<svg width="64" height="64" viewBox="0 0 64 64" fill="none" xmlns="http://www.w3.org/2000/svg">
<rect width="64" height="64" fill="#F8A300"/>
<rect width="58" height="58" transform="matrix(0 -1 1 0 3 61)" fill="#FBF8EF"/>
<path d="M58 42V58H42L58 42Z" fill="#F8A300"/>
<path d="M42 6H58V22L42 6Z" fill="#F8A300"/>
<path d="M22 6H6V22L22 6Z" fill="#F8A300"/>
<path d="M22 58H6V42L22 58Z" fill="#F8A300"/>
<path d="M32.0005 10.5C36.6949 10.5 40.5005 14.3056 40.5005 19C40.5005 21.3038 39.6265 24.7336 38.2007 27.5869C37.4858 29.0173 36.6176 30.3331 35.6245 31.2979C34.6332 32.2609 33.4745 32.9141 32.1919 32.9141C30.912 32.9141 29.7315 32.2627 28.7065 31.3037C27.6786 30.3418 26.762 29.0295 25.9985 27.5996C24.4767 24.7493 23.5005 21.3141 23.5005 19C23.5005 14.3056 27.3061 10.5 32.0005 10.5Z" fill="#F8A300" stroke="#111111"/>
<path d="M32.0005 14.5C35.6167 14.5 38.5005 17.595 38.5005 21.3516C38.5004 23.1946 37.841 25.9294 36.7671 28.2041C36.2287 29.3445 35.5722 30.4 34.8159 31.1777C34.0627 31.9522 33.161 32.5 32.144 32.5C31.13 32.5 30.2121 31.9552 29.4341 31.1846C28.6515 30.4094 27.9585 29.3562 27.3833 28.2158C26.2373 25.9438 25.5006 23.2044 25.5005 21.3516C25.5005 17.595 28.3842 14.5 32.0005 14.5Z" fill="#FBF8EF" stroke="#111111"/>
<path d="M32.5005 32.0859C32.5005 33.3725 31.826 34.5435 30.8394 35.5498C29.8495 36.5594 28.5008 37.451 27.0366 38.1895C24.1169 39.6619 20.6166 40.5859 18.3091 40.5859C13.6147 40.5859 9.80908 36.7804 9.80908 32.0859C9.80908 27.3915 13.6147 23.5859 18.3091 23.5859C20.6166 23.5859 24.1169 24.51 27.0366 25.9824C28.5008 26.7209 29.8495 27.6125 30.8394 28.6221C31.826 29.6284 32.5005 30.7993 32.5005 32.0859Z" fill="#F8A300" stroke="#111111"/>
<path d="M32.5005 32C32.5005 33.0187 31.9428 33.929 31.1597 34.6934C30.372 35.4621 29.3037 36.137 28.1509 36.6934C25.8528 37.8024 23.0953 38.5 21.27 38.5C17.5522 38.4999 14.5005 35.6103 14.5005 32C14.5005 28.3897 17.5522 25.5001 21.27 25.5C23.0953 25.5 25.8528 26.1976 28.1509 27.3066C29.3037 27.863 30.372 28.5379 31.1597 29.3066C31.9428 30.071 32.5005 30.9813 32.5005 32Z" fill="#FBF8EF" stroke="#111111"/>
<path d="M53.8091 32.0859C53.8091 36.7804 50.0035 40.5859 45.3091 40.5859C42.9996 40.5859 39.5932 39.6609 36.7671 38.1865C35.3497 37.447 34.0485 36.5539 33.0952 35.543C32.144 34.5342 31.5005 33.3651 31.5005 32.0859C31.5005 30.8068 32.144 29.6377 33.0952 28.6289C34.0485 27.618 35.3497 26.7248 36.7671 25.9854C39.5932 24.511 42.9996 23.5859 45.3091 23.5859C50.0035 23.5859 53.8091 27.3915 53.8091 32.0859Z" fill="#F8A300" stroke="#111111"/>
<path d="M49.5005 32C49.5005 35.6185 46.3892 38.5 42.6177 38.5C40.761 38.4999 38.0311 37.8018 35.7671 36.6914C34.6315 36.1344 33.5831 35.4592 32.811 34.6895C32.0426 33.9233 31.5005 33.0143 31.5005 32C31.5005 30.9857 32.0426 30.0767 32.811 29.3105C33.5831 28.5408 34.6315 27.8656 35.7671 27.3086C38.0311 26.1982 40.761 25.5001 42.6177 25.5C46.3892 25.5 49.5005 28.3815 49.5005 32Z" fill="#FBF8EF" stroke="#111111"/>
<path d="M32.0005 31.5C33.2863 31.5 34.446 32.1667 35.436 33.1455C36.4284 34.1267 37.2959 35.4645 38.0103 36.916C39.4351 39.8113 40.309 43.283 40.3091 45.5859C40.3091 50.2804 36.5035 54.0859 31.8091 54.0859C27.1147 54.0859 23.3091 50.2804 23.3091 45.5859C23.3092 43.2728 24.2843 39.7957 25.8052 36.9033C26.5682 35.4521 27.4848 34.1181 28.5122 33.1396C29.536 32.1647 30.7174 31.5 32.0005 31.5Z" fill="#F8A300" stroke="#111111"/>
<path d="M32.144 31.5C33.163 31.5 34.0645 32.0549 34.8169 32.8359C35.5728 33.6207 36.2299 34.6847 36.7681 35.833C37.8414 38.1232 38.5005 40.8712 38.5005 42.7002C38.5002 46.4324 35.6129 49.5 32.0005 49.5C28.3881 49.5 25.5007 46.4324 25.5005 42.7002C25.5005 40.8615 26.2369 38.1089 27.3823 35.8213C27.9572 34.6733 28.65 33.6113 29.4321 32.8291C30.2094 32.0518 31.128 31.5 32.144 31.5Z" fill="#FBF8EF" stroke="#111111"/>
<path d="M32.3365 31.6309C33.2857 32.4959 33.6839 33.7364 33.739 35.0851C33.794 36.4335 33.5103 37.9431 33.0371 39.4319C32.0922 42.4047 30.3527 45.4207 28.8096 47.1139C25.6475 50.5835 20.2713 50.8329 16.8017 47.6709C13.332 44.5088 13.0827 39.1326 16.2447 35.6629C17.8125 33.9427 20.9324 32.1617 24.0488 31.1823C25.6142 30.6904 27.2119 30.3899 28.6445 30.4106C30.0708 30.4313 31.3945 30.7725 32.3365 31.6309Z" fill="#F8A300" stroke="#111111"/>
<path d="M32.3701 32.3361C31.5057 33.2846 30.2707 33.6838 28.929 33.7386C27.5885 33.7934 26.0897 33.5084 24.6119 33.0347C21.6606 32.0887 18.6677 30.3485 16.9755 28.8064C13.5058 25.6444 13.2565 20.2682 16.4185 16.7985C19.5806 13.3288 24.9568 13.0795 28.4265 16.2416C30.1481 17.8107 31.9068 20.9327 32.8637 24.0497C33.3445 25.6158 33.6338 27.2136 33.6044 28.6462C33.5751 30.0725 33.2275 31.3952 32.3701 32.3361Z" fill="#F8A300" stroke="#111111"/>
<path d="M47.2502 16.0191C50.7199 19.1812 50.9692 24.5573 47.8071 28.027C46.2435 29.7427 43.1163 31.6011 39.988 32.659C38.4173 33.1902 36.8134 33.5309 35.3752 33.5408C33.9434 33.5506 32.6101 33.2326 31.6634 32.3698C30.7113 31.5021 30.3187 30.2387 30.2689 28.8647C30.2191 27.489 30.5096 25.9422 30.9889 24.4154C31.9455 21.3676 33.6967 18.272 35.2423 16.5761C38.4043 13.1064 43.7805 12.857 47.2502 16.0191Z" fill="#F8A300" stroke="#111111"/>
<path d="M47.9814 47.3356C44.8193 50.8053 39.4432 51.0547 35.9735 47.8926C34.2568 46.3281 32.3983 43.1783 31.3408 40.0292C30.8097 38.4479 30.469 36.8333 30.4591 35.3874C30.4493 33.9487 30.7678 32.6102 31.6309 31.6631C32.4997 30.7097 33.7647 30.3221 35.1393 30.2809C36.5152 30.2397 38.0616 30.5419 39.5879 31.032C42.6356 32.0106 45.7299 33.7835 47.4244 35.3277C50.8941 38.4898 51.1435 43.8659 47.9814 47.3356Z" fill="#F8A300" stroke="#111111"/>
<path d="M32 24.5C36.1421 24.5 39.5 27.8579 39.5 32C39.5 36.1421 36.1421 39.5 32 39.5C27.8579 39.5 24.5 36.1421 24.5 32C24.5 27.8579 27.8579 24.5 32 24.5Z" fill="#FBF8EF" stroke="#111111"/>
</svg>
