<svg width="64" height="64" viewBox="0 0 64 64" fill="none" xmlns="http://www.w3.org/2000/svg">
<g clip-path="url(#clip0_379_1697)">
<rect width="64" height="64" fill="#FBF8EF"/>
<rect x="3" y="61" width="58" height="58" rx="29" transform="rotate(-90 3 61)" fill="#F2995A"/>
<path d="M29.3636 28.7536C29.934 29.5764 30.4386 30.285 30.8386 30.8389C30.2841 30.4397 29.5747 29.9363 28.751 29.3673C26.6961 27.9478 23.9274 26.1186 21.0763 24.4835C18.2295 22.8509 15.2833 21.4015 12.8776 20.7537C11.6766 20.4302 10.585 20.2993 9.69834 20.4633C8.79668 20.6301 8.10086 21.105 7.74161 21.9743C7.38236 22.8437 7.53988 23.6713 8.06076 24.4259C8.57299 25.168 9.43851 25.8458 10.5175 26.4646C12.6787 27.7041 15.7885 28.7575 18.9574 29.6108C22.131 30.4655 25.3833 31.1246 27.8408 31.5698C28.8258 31.7483 29.6837 31.8926 30.3582 32.0013C29.6839 32.1112 28.8262 32.2568 27.8415 32.4369C25.3847 32.8862 22.1336 33.5506 18.9613 34.4104C15.7938 35.269 12.6857 36.3274 10.5265 37.5704C9.44858 38.1909 8.58417 38.8702 8.07315 39.6131C7.5535 40.3686 7.39733 41.1965 7.758 42.0652C8.11867 42.9339 8.81526 43.4078 9.71719 43.573C10.6041 43.7356 11.6955 43.6029 12.8959 43.2775C15.3006 42.6257 18.2444 41.1716 21.0886 39.5343C23.937 37.8945 26.7028 36.0608 28.7553 34.638C29.5781 34.0677 30.2866 33.5631 30.8405 33.163C30.4414 33.7175 29.9379 34.4269 29.3689 35.2506C27.9494 37.3055 26.1203 40.0742 24.4852 42.9253C22.8525 45.7722 21.4032 48.7183 20.7553 51.1241C20.4319 52.3251 20.301 53.4166 20.4649 54.3033C20.6317 55.2049 21.1067 55.9008 21.976 56.26C22.8453 56.6193 23.6729 56.4618 24.4275 55.9409C25.1696 55.4286 25.8475 54.5631 26.4663 53.4842C27.7057 51.3229 28.7591 48.2131 29.6125 45.0442C30.4672 41.8706 31.1262 38.6183 31.5715 36.1609C31.75 35.1758 31.8942 34.3179 32.003 33.6434C32.1129 34.3178 32.2585 35.1754 32.4386 36.1602C32.8879 38.6169 33.5522 41.8681 34.4121 45.0403C35.2706 48.2078 36.3291 51.3159 37.5721 53.4751C38.1926 54.553 38.8719 55.4175 39.6148 55.9285C40.3703 56.4481 41.1981 56.6043 42.0669 56.2436C42.9356 55.883 43.4094 55.1864 43.5747 54.2844C43.7372 53.3975 43.6045 52.3062 43.2791 51.1057C42.6274 48.701 41.1732 45.7572 39.5359 42.9131C37.8962 40.0646 36.0625 37.2989 34.6397 35.2463C34.0693 34.4236 33.5647 33.715 33.1647 33.1611C33.7192 33.5603 34.4286 34.0637 35.2523 34.6327C37.3071 36.0522 40.0759 37.8813 42.927 39.5165C45.7738 41.1491 48.72 42.5984 51.1257 43.2463C52.3267 43.5697 53.4183 43.7007 54.3049 43.5367C55.2066 43.3699 55.9024 42.895 56.2617 42.0256C56.6209 41.1563 56.4634 40.3287 55.9425 39.5741C55.4303 38.832 54.5648 38.1541 53.4858 37.5354C51.3246 36.2959 48.2147 35.2425 45.0459 34.3892C41.8722 33.5345 38.62 32.8754 36.1625 32.4301C35.1774 32.2516 34.3196 32.1074 33.6451 31.9986C34.3194 31.8888 35.177 31.7432 36.1618 31.5631C38.6185 31.1138 41.8697 30.4494 45.042 29.5896C48.2094 28.731 51.3175 27.6726 53.4768 26.4296C54.5547 25.809 55.4191 25.1298 55.9301 24.3868C56.4498 23.6314 56.6059 22.8035 56.2453 21.9348C55.8846 21.066 55.188 20.5922 54.2861 20.4269C53.3992 20.2644 52.3078 20.3971 51.1073 20.7225C48.7027 21.3743 45.7589 22.8284 42.9147 24.4657C40.0662 26.1055 37.3005 27.9391 35.248 29.362C34.4252 29.9323 33.7166 30.4369 33.1628 30.837C33.5619 30.2824 34.0654 29.573 34.6344 28.7493C36.0538 26.6945 37.883 23.9258 39.5181 21.0746C41.1508 18.2278 42.6001 15.2816 43.248 12.8759C43.5714 11.6749 43.7023 10.5833 43.5383 9.69669C43.3716 8.79503 42.8966 8.09921 42.0273 7.73996C41.158 7.38071 40.3304 7.53823 39.5757 8.05912C38.8337 8.57134 38.1558 9.43686 37.537 10.5158C36.2975 12.6771 35.2442 15.7869 34.3908 18.9557C33.5361 22.1294 32.8771 25.3817 32.4318 27.8391C32.2533 28.8242 32.1091 29.6821 32.0003 30.3566C31.8904 29.6822 31.7448 28.8246 31.5647 27.8398C31.1154 25.3831 30.451 22.1319 29.5912 18.9596C28.7327 15.7922 27.6742 12.6841 26.4312 10.5249C25.8107 9.44693 25.1314 8.58252 24.3885 8.0715C23.633 7.55185 22.8051 7.39568 21.9364 7.75635C21.0677 8.11702 20.5939 8.81362 20.4286 9.71554C20.266 10.6025 20.3987 11.6938 20.7241 12.8943C21.3759 15.299 22.8301 18.2428 24.4673 21.0869C26.1071 23.9354 27.9408 26.7011 29.3636 28.7536Z" fill="#F2995A" stroke="#111111" stroke-width="0.5"/>
<path d="M28.3221 30.0073C29.1634 30.5499 29.9004 31.012 30.4817 31.3711C29.8168 31.214 28.9689 31.0196 27.9903 30.8084C25.5491 30.2813 22.2916 29.6483 19.0321 29.2261C15.7776 28.8045 12.5012 28.5902 10.0304 28.9103C8.79692 29.0701 7.73812 29.366 6.9813 29.8562C6.21169 30.3547 5.75002 31.0594 5.75002 32C5.75002 32.9406 6.21169 33.6453 6.9813 34.1438C7.73812 34.634 8.79692 34.9299 10.0304 35.0897C12.5012 35.4098 15.7776 35.1955 19.0321 34.7739C22.2916 34.3517 25.5491 33.7187 27.9903 33.1916C28.9689 32.9804 29.8168 32.786 30.4817 32.6289C29.9004 32.988 29.1634 33.4501 28.3221 33.9927C26.2232 35.3462 23.4722 37.202 20.8689 39.2082C18.2694 41.2114 15.8012 43.3767 14.2804 45.3501C13.5212 46.3353 12.9817 47.2932 12.7932 48.175C12.6015 49.0717 12.7733 49.8964 13.4385 50.5616C14.1036 51.2267 14.9283 51.3985 15.825 51.2068C16.7068 51.0183 17.6647 50.4788 18.6499 49.7196C20.6234 48.1988 22.7886 45.7306 24.7918 43.1312C26.7981 40.5278 28.6538 37.7768 30.0073 35.6779C30.5499 34.8366 31.012 34.0996 31.3711 33.5183C31.214 34.1832 31.0197 35.0312 30.8084 36.0097C30.2813 38.4509 29.6483 41.7084 29.2261 44.9679C28.8045 48.2224 28.5903 51.4988 28.9103 53.9696C29.0701 55.2031 29.366 56.2619 29.8562 57.0187C30.3547 57.7883 31.0594 58.25 32 58.25C32.9406 58.25 33.6454 57.7883 34.1438 57.0187C34.634 56.2619 34.9299 55.2031 35.0897 53.9696C35.4098 51.4988 35.1956 48.2224 34.774 44.9679C34.3517 41.7084 33.7187 38.4509 33.1916 36.0097C32.9804 35.0312 32.786 34.1833 32.6289 33.5183C32.988 34.0996 33.4502 34.8366 33.9927 35.6779C35.3462 37.7768 37.202 40.5278 39.2082 43.1312C41.2114 45.7306 43.3767 48.1988 45.3501 49.7196C46.3353 50.4788 47.2933 51.0183 48.175 51.2068C49.0717 51.3985 49.8965 51.2267 50.5616 50.5616C51.2267 49.8964 51.3986 49.0717 51.2068 48.175C51.0183 47.2932 50.4789 46.3353 49.7196 45.3501C48.1988 43.3767 45.7306 41.2114 43.1312 39.2082C40.5278 37.202 37.7768 35.3462 35.6779 33.9927C34.8366 33.4501 34.0996 32.988 33.5183 32.6289C34.1833 32.786 35.0312 32.9804 36.0098 33.1916C38.451 33.7187 41.7084 34.3517 44.9679 34.7739C48.2225 35.1955 51.4988 35.4098 53.9696 35.0897C55.2031 34.9299 56.2619 34.634 57.0187 34.1438C57.7884 33.6453 58.25 32.9406 58.25 32C58.25 31.0594 57.7884 30.3547 57.0187 29.8562C56.2619 29.366 55.2031 29.0701 53.9696 28.9103C51.4988 28.5902 48.2225 28.8045 44.9679 29.2261C41.7084 29.6483 38.451 30.2813 36.0098 30.8084C35.0312 31.0196 34.1833 31.214 33.5183 31.3711C34.0996 31.012 34.8366 30.5499 35.6779 30.0073C37.7768 28.6538 40.5278 26.798 43.1312 24.7918C45.7306 22.7886 48.1988 20.6233 49.7196 18.6499C50.4789 17.6647 51.0183 16.7068 51.2068 15.825C51.3986 14.9283 51.2267 14.1036 50.5616 13.4384C49.8965 12.7733 49.0717 12.6015 48.175 12.7932C47.2933 12.9817 46.3353 13.5212 45.3501 14.2804C43.3767 15.8012 41.2114 18.2694 39.2082 20.8688C37.202 23.4722 35.3462 26.2232 33.9927 28.3221C33.4502 29.1634 32.988 29.9004 32.6289 30.4817C32.786 29.8168 32.9804 28.9688 33.1916 27.9903C33.7187 25.5491 34.3517 22.2916 34.774 19.0321C35.1956 15.7776 35.4098 12.5012 35.0897 10.0304C34.9299 8.7969 34.634 7.73809 34.1438 6.98128C33.6454 6.21166 32.9406 5.75 32 5.75C31.0594 5.75 30.3547 6.21167 29.8562 6.98128C29.366 7.73809 29.0701 8.7969 28.9103 10.0304C28.5903 12.5012 28.8045 15.7776 29.2261 19.0321C29.6483 22.2916 30.2813 25.5491 30.8084 27.9903C31.0197 28.9688 31.214 29.8167 31.3711 30.4817C31.012 29.9004 30.5499 29.1634 30.0073 28.3221C28.6538 26.2232 26.7981 23.4722 24.7918 20.8688C22.7886 18.2694 20.6234 15.8012 18.6499 14.2804C17.6647 13.5212 16.7068 12.9817 15.825 12.7932C14.9283 12.6015 14.1036 12.7733 13.4385 13.4384C12.7733 14.1036 12.6015 14.9283 12.7932 15.825C12.9817 16.7068 13.5212 17.6647 14.2804 18.6499C15.8012 20.6233 18.2694 22.7886 20.8689 24.7918C23.4722 26.798 26.2232 28.6538 28.3221 30.0073Z" fill="#F2995A" stroke="#111111" stroke-width="0.5"/>
<path d="M29.9228 29.5376C30.2696 30.0369 30.5848 30.4814 30.8538 30.8561C30.4783 30.5884 30.0326 30.2747 29.5321 29.9297C27.9497 28.8388 25.8172 27.4328 23.6209 26.176C21.4289 24.9216 19.1563 23.8058 17.2978 23.3071C16.3704 23.0583 15.5209 22.956 14.8265 23.0851C14.1172 23.217 13.564 23.5936 13.2797 24.2836C12.9953 24.9736 13.1224 25.6306 13.5328 26.224C13.9346 26.8048 14.6095 27.3308 15.4429 27.8077C17.113 28.7634 19.5119 29.573 21.9511 30.2274C24.3951 30.8831 26.8991 31.388 28.7906 31.7289C29.3888 31.8367 29.9261 31.9282 30.3812 32.0029C29.9263 32.0791 29.3894 32.1725 28.7916 32.2824C26.9012 32.6299 24.3991 33.1437 21.9574 33.808C19.5205 34.471 17.1245 35.2889 15.4577 36.2505C14.626 36.7304 13.9529 37.2587 13.5532 37.841C13.1449 38.4358 13.0201 39.0932 13.3069 39.7822C13.5937 40.4712 14.1482 40.8459 14.858 40.9753C15.5528 41.1019 16.4019 40.9966 17.3284 40.7445C19.1852 40.2394 21.4539 39.1155 23.6414 37.8535C25.8333 36.589 27.9609 35.1755 29.5394 34.079C30.0387 33.7322 30.4832 33.417 30.8579 33.148C30.5902 33.5236 30.2765 33.9692 29.9315 34.4697C28.8406 36.0521 27.4346 38.1846 26.1777 40.3809C24.9234 42.5729 23.8076 44.8455 23.3089 46.704C23.0601 47.6314 22.9578 48.481 23.0869 49.1753C23.2188 49.8846 23.5954 50.4378 24.2854 50.7222C24.9754 51.0066 25.6324 50.8794 26.2258 50.469C26.8066 50.0673 27.3326 49.3923 27.8095 48.559C28.7652 46.8888 29.5747 44.4899 30.2292 42.0507C30.8849 39.6067 31.3898 37.1028 31.7307 35.2112C31.8385 34.613 31.93 34.0758 32.0047 33.6206C32.0809 34.0755 32.1743 34.6124 32.2842 35.2103C32.6317 37.1006 33.1455 39.6027 33.8098 42.0444C34.4728 44.4813 35.2907 46.8774 36.2523 48.5441C36.7322 49.3758 37.2605 50.0489 37.8428 50.4486C38.4376 50.8569 39.095 50.9817 39.784 50.6949C40.473 50.4081 40.8477 49.8536 40.9771 49.1438C41.1037 48.4491 40.9984 47.5999 40.7463 46.6734C40.2412 44.8166 39.1173 42.5479 37.8553 40.3604C36.5908 38.1685 35.1773 36.0409 34.0808 34.4624C33.734 33.9632 33.4188 33.5186 33.1498 33.144C33.5253 33.4117 33.971 33.7253 34.4715 34.0703C36.0539 35.1612 38.1864 36.5673 40.3827 37.8241C42.5747 39.0784 44.8473 40.1943 46.7058 40.6929C47.6332 40.9417 48.4828 41.044 49.1771 40.9149C49.8864 40.7831 50.4396 40.4065 50.724 39.7165C51.0083 39.0264 50.8812 38.3694 50.4708 37.7761C50.0691 37.1952 49.3941 36.6693 48.5608 36.1923C46.8906 35.2366 44.4917 34.4271 42.0525 33.7727C39.6085 33.1169 37.1045 32.612 35.213 32.2711C34.6148 32.1633 34.0776 32.0718 33.6224 31.9972C34.0773 31.9209 34.6142 31.8275 35.2121 31.7176C37.1024 31.3701 39.6045 30.8564 42.0462 30.1921C44.4831 29.5291 46.8792 28.7111 48.5459 27.7495C49.3776 27.2697 50.0507 26.7413 50.4504 26.1591C50.8587 25.5643 50.9835 24.9068 50.6967 24.2178C50.4099 23.5288 49.8554 23.1541 49.1456 23.0248C48.4509 22.8981 47.6017 23.0034 46.6752 23.2555C44.8184 23.7607 42.5497 24.8845 40.3622 26.1465C38.1703 27.4111 36.0427 28.8246 34.4642 29.921C33.9649 30.2678 33.5204 30.583 33.1458 30.852C33.4134 30.4765 33.7271 30.0308 34.0721 29.5304C35.163 27.948 36.569 25.8154 37.8259 23.6191C39.0802 21.4272 40.1961 19.1545 40.6947 17.296C40.9435 16.3686 41.0458 15.5191 40.9167 14.8247C40.7849 14.1154 40.4083 13.5623 39.7182 13.2779C39.0282 12.9935 38.3712 13.1206 37.7779 13.531C37.197 13.9328 36.671 14.6077 36.1941 15.4411C35.2384 17.1112 34.4289 19.5101 33.7744 21.9493C33.1187 24.3933 32.6138 26.8973 32.2729 28.7888C32.1651 29.387 32.0736 29.9243 31.999 30.3794C31.9227 29.9245 31.8293 29.3876 31.7194 28.7898C31.3719 26.8995 30.8581 24.3973 30.1938 21.9556C29.5308 19.5187 28.7129 17.1227 27.7513 15.4559C27.2715 14.6242 26.7431 13.9511 26.1609 13.5515C25.566 13.1431 24.9086 13.0183 24.2196 13.3051C23.5306 13.5919 23.1559 14.1464 23.0266 14.8562C22.8999 15.551 23.0052 16.4001 23.2573 17.3266C23.7624 19.1834 24.8863 21.4521 26.1483 23.6396C27.4129 25.8315 28.8264 27.9591 29.9228 29.5376Z" fill="#F2995A" stroke="#111111" stroke-width="0.5"/>
<path d="M52.8483 31.8044C52.9567 31.8788 53.0511 31.9442 53.13 31.9993C53.0511 32.0545 52.9567 32.1199 52.8483 32.1942C52.4838 32.4441 51.9596 32.7951 51.3217 33.1991C50.045 34.0075 48.317 35.0254 46.5049 35.8685C44.6879 36.7139 42.8087 37.3729 41.2241 37.4827C39.6465 37.592 38.4216 37.1585 37.7861 35.8876C37.1007 34.5167 36.7646 33.2536 36.7646 31.9994C36.7646 30.7451 37.1007 29.482 37.7861 28.1112C38.4216 26.8403 39.6465 26.4067 41.2241 26.516C42.8087 26.6258 44.6879 27.2848 46.5049 28.1303C48.317 28.9734 50.045 29.9912 51.3217 30.7997C51.9596 31.2036 52.4838 31.5546 52.8483 31.8044Z" fill="#FBF8EF" stroke="#111111" stroke-width="0.5"/>
<path d="M26.3379 28.1111C27.0233 29.4819 27.3594 30.7451 27.3594 31.9993C27.3594 33.2535 27.0233 34.5167 26.3379 35.8875C25.7024 37.1584 24.4775 37.592 22.8999 37.4827C21.3153 37.3729 19.4361 36.7139 17.6191 35.8684C15.807 35.0254 14.0789 34.0075 12.8023 33.1991C12.1644 32.7951 11.6402 32.4441 11.2757 32.1943C11.1672 32.1199 11.0729 32.0545 10.994 31.9994C11.0729 31.9442 11.1672 31.8788 11.2757 31.8045C11.6402 31.5546 12.1644 31.2036 12.8023 30.7997C14.0789 29.9912 15.807 28.9733 17.6191 28.1302C19.4361 27.2848 21.3153 26.6258 22.8999 26.516C24.4775 26.4066 25.7024 26.8402 26.3379 28.1111Z" fill="#FBF8EF" stroke="#111111" stroke-width="0.5"/>
<path d="M31.8632 11.2134C31.9376 11.105 32.003 11.0107 32.0581 10.9317C32.1132 11.0107 32.1786 11.105 32.253 11.2134C32.5028 11.5779 32.8539 12.1021 33.2578 12.74C34.0662 14.0167 35.0841 15.7447 35.9272 17.5568C36.7726 19.3738 37.4316 21.253 37.5414 22.8376C37.6507 24.4152 37.2171 25.6402 35.9462 26.2756C34.5754 26.961 33.3122 27.2971 32.058 27.2971C30.8038 27.2971 29.5406 26.961 28.1698 26.2756C26.8989 25.6402 26.4653 24.4152 26.5747 22.8376C26.6845 21.253 27.3435 19.3738 28.189 17.5568C29.0321 15.7447 30.0499 14.0167 30.8584 12.74C31.2623 12.1021 31.6134 11.5779 31.8632 11.2134Z" fill="#FBF8EF" stroke="#111111" stroke-width="0.5"/>
<path d="M35.9994 37.7417C36.6979 37.9164 37.143 38.2696 37.4106 38.7445C37.6833 39.2284 37.7864 39.8649 37.7424 40.6241C37.6542 42.1461 36.9815 44.0632 36.1051 45.9627C35.2317 47.8556 34.1686 49.7043 33.3226 51.0814C32.8998 51.7696 32.5318 52.339 32.2697 52.7361C32.1884 52.8594 32.1172 52.9661 32.0578 53.0545C31.9985 52.9661 31.9274 52.8594 31.8461 52.7362C31.5841 52.339 31.2163 51.7696 30.7937 51.0815C29.9481 49.7043 28.8856 47.8557 28.0127 45.9628C27.1368 44.0633 26.4647 42.1461 26.3769 40.6241C26.3331 39.865 26.4363 39.2285 26.7091 38.7446C26.9769 38.2696 27.4221 37.9164 28.1206 37.7417C28.8435 37.561 29.424 37.5603 30.0233 37.6064C30.1963 37.6197 30.3741 37.6374 30.5589 37.6558C31.0079 37.7004 31.4981 37.7492 32.06 37.7492C32.6219 37.7492 33.1121 37.7004 33.5611 37.6558C33.7459 37.6374 33.9237 37.6197 34.0967 37.6064C34.6959 37.5603 35.2764 37.561 35.9994 37.7417Z" fill="#FBF8EF" stroke="#111111" stroke-width="0.5"/>
<path d="M46.6217 17.1635C46.751 17.1394 46.8639 17.1189 46.9587 17.1021C46.9419 17.1969 46.9214 17.3098 46.8973 17.4391C46.8163 17.8735 46.6938 18.4924 46.5284 19.229C46.1974 20.7034 45.6952 22.6451 45.0101 24.5225C44.3231 26.4051 43.4603 28.1999 42.4175 29.398C41.3793 30.5908 40.2066 31.1504 38.8586 30.7011C37.4046 30.2164 36.2738 29.5609 35.3869 28.674C34.5001 27.7871 33.8445 26.6563 33.3599 25.2023C32.9105 23.8543 33.4701 22.6816 34.6629 21.6434C35.861 20.6006 37.6558 19.7378 39.5383 19.0508C41.4158 18.3656 43.3574 17.8635 44.8318 17.5324C45.5684 17.367 46.1873 17.2445 46.6217 17.1635Z" fill="#FBF8EF" stroke="#111111" stroke-width="0.5"/>
<path d="M25.2647 33.2969C26.7187 33.7816 27.8495 34.4371 28.7364 35.324C29.6232 36.2108 30.2788 37.3417 30.7634 38.7957C31.2127 40.1436 30.6532 41.3164 29.4603 42.3546C28.2621 43.3975 26.4673 44.2603 24.5847 44.9473C22.7072 45.6325 20.7655 46.1347 19.2911 46.4657C18.5544 46.6312 17.9355 46.7536 17.5011 46.8347C17.3718 46.8588 17.2589 46.8793 17.1641 46.8961C17.1809 46.8013 17.2014 46.6883 17.2255 46.5591C17.3065 46.1247 17.429 45.5058 17.5944 44.7691C17.9255 43.2947 18.4278 41.353 19.1129 39.4756C19.8 37.5929 20.6628 35.7981 21.7057 34.6C22.7439 33.4071 23.9167 32.8476 25.2647 33.2969Z" fill="#FBF8EF" stroke="#111111" stroke-width="0.5"/>
<path d="M17.2265 17.439C17.2024 17.31 17.182 17.1973 17.1652 17.1027C18.2187 17.2896 21.497 17.9225 24.6002 19.0566C26.4801 19.7436 28.2709 20.606 29.4659 21.6478C30.6555 22.685 31.2131 23.8563 30.7643 25.2024C30.2797 26.6564 29.6242 27.7872 28.7373 28.6741C27.8504 29.561 26.7196 30.2165 25.2656 30.7012C23.9176 31.1505 22.7449 30.5909 21.7066 29.3981C20.6638 28.1999 19.801 26.4052 19.1139 24.5225C18.4288 22.645 17.9265 20.7034 17.5955 19.229C17.43 18.4923 17.3076 17.8734 17.2265 17.439Z" fill="#FBF8EF" stroke="#111111" stroke-width="0.5"/>
<path d="M33.3558 38.7957C33.8405 37.3418 34.496 36.2109 35.3829 35.3241C36.2698 34.4372 37.4006 33.7816 38.8546 33.297C40.2026 32.8477 41.3753 33.4072 42.4135 34.6001C43.4563 35.7982 44.3191 37.593 45.0061 39.4757C45.6912 41.3532 46.1934 43.2949 46.5244 44.7693C46.6899 45.506 46.8123 46.1249 46.8933 46.5592C46.9175 46.6885 46.9379 46.8015 46.9547 46.8963C46.8599 46.8795 46.747 46.859 46.6177 46.8349C46.1833 46.7538 45.5645 46.6314 44.8278 46.4659C43.3534 46.1348 41.4118 45.6326 39.5343 44.9474C37.6517 44.2604 35.857 43.3976 34.6589 42.3547C33.466 41.3165 32.9065 40.1437 33.3558 38.7957Z" fill="#FBF8EF" stroke="#111111" stroke-width="0.5"/>
<rect x="22.25" y="22.25" width="19.5" height="19.5" rx="9.75" fill="#F2995A" stroke="#111111" stroke-width="0.5"/>
<rect x="25.25" y="25.25" width="13.5" height="13.5" rx="6.75" fill="#FBF8EF" stroke="#111111" stroke-width="0.5"/>
<path d="M61 53V61H53L61 53Z" fill="#F2995A"/>
<path d="M53 3H61V11L53 3Z" fill="#F2995A"/>
<path d="M11 3H3V11L11 3Z" fill="#F2995A"/>
<path d="M11 61H3V53L11 61Z" fill="#F2995A"/>
</g>
<defs>
<clipPath id="clip0_379_1697">
<rect width="64" height="64" fill="white"/>
</clipPath>
</defs>
</svg>
