<svg width="64" height="64" viewBox="0 0 64 64" fill="none" xmlns="http://www.w3.org/2000/svg">
<rect width="64" height="64" fill="#FBF8EF"/>
<rect width="58" height="58" transform="matrix(0 -1 1 0 3 61)" fill="#F2995A"/>
<path d="M58 42V58H42L58 42Z" fill="#FBF8EF"/>
<path d="M42 6H58V22L42 6Z" fill="#FBF8EF"/>
<path d="M22 6H6V22L22 6Z" fill="#FBF8EF"/>
<path d="M22 58H6V42L22 58Z" fill="#FBF8EF"/>
<path d="M32.1914 32.1636C31.1745 32.1636 30.1685 31.6455 29.2183 30.7565C28.2698 29.869 27.3993 28.6317 26.6594 27.2459C25.177 24.4694 24.25 21.1566 24.25 19C24.25 14.7198 27.7198 11.25 32 11.25C36.2802 11.25 39.75 14.7198 39.75 19C39.75 21.1618 38.9157 24.4769 37.5289 27.2519C36.8365 28.6375 36.0135 29.8736 35.1013 30.7598C34.1882 31.6468 33.207 32.1636 32.1914 32.1636Z" fill="#FBF8EF" stroke="#111111" stroke-width="0.5"/>
<path d="M32.1436 31.75C31.4079 31.75 30.6695 31.3529 29.9616 30.6517C29.256 29.9529 28.606 28.9759 28.0523 27.8783C26.9429 25.6788 26.25 23.0554 26.25 21.3511C26.25 17.968 28.8376 15.25 32 15.25C35.1624 15.25 37.75 17.968 37.75 21.3511C37.75 23.0602 37.1262 25.686 36.0883 27.8842C35.5702 28.9817 34.9557 29.9575 34.2774 30.6551C33.5974 31.3543 32.8777 31.75 32.1436 31.75Z" fill="#F2995A" stroke="#111111" stroke-width="0.5"/>
<path d="M10.5586 32.0862C10.5586 27.806 14.0284 24.3362 18.3086 24.3362C20.4685 24.3362 23.8526 25.2173 26.6986 26.6526C28.1194 27.3692 29.3908 28.2164 30.3035 29.1473C31.2178 30.0798 31.75 31.0727 31.75 32.0862C31.75 33.0998 31.2178 34.0927 30.3035 35.0252C29.3908 35.9561 28.1194 36.8033 26.6986 37.5199C23.8526 38.9552 20.4685 39.8362 18.3086 39.8362C14.0284 39.8362 10.5586 36.3664 10.5586 32.0862Z" fill="#FBF8EF" stroke="#111111" stroke-width="0.5"/>
<path d="M15.25 32C15.25 28.8346 17.9347 26.25 21.2698 26.25C22.9541 26.25 25.5993 26.9084 27.8247 27.9825C28.9356 28.5186 29.9264 29.1511 30.6357 29.8434C31.3473 30.538 31.75 31.2667 31.75 32C31.75 32.7333 31.3473 33.462 30.6357 34.1566C29.9264 34.8489 28.9356 35.4814 27.8247 36.0175C25.5993 37.0916 22.9541 37.75 21.2698 37.75C17.9347 37.75 15.25 35.1654 15.25 32Z" fill="#F2995A" stroke="#111111" stroke-width="0.5"/>
<path d="M32.25 32.0863C32.25 31.069 32.7619 30.0751 33.64 29.1439C34.5171 28.2137 35.7407 27.3671 37.1131 26.6511C39.8623 25.2168 43.1497 24.3363 45.3086 24.3363C49.5888 24.3363 53.0586 27.8061 53.0586 32.0863C53.0586 36.3665 49.5888 39.8363 45.3086 39.8363C43.1497 39.8363 39.8623 38.9558 37.1131 37.5215C35.7407 36.8055 34.5171 35.9589 33.64 35.0288C32.7619 34.0975 32.25 33.1036 32.25 32.0863Z" fill="#FBF8EF" stroke="#111111" stroke-width="0.5"/>
<path d="M32.25 32C32.25 31.2645 32.644 30.5353 33.3398 29.8416C34.0338 29.1497 35.0046 28.5176 36.097 27.9818C38.2856 26.9084 40.9023 26.25 42.6176 26.25C46.0192 26.25 48.75 28.8387 48.75 32C48.75 35.1613 46.0192 37.75 42.6176 37.75C40.9023 37.75 38.2856 37.0916 36.097 36.0182C35.0046 35.4824 34.0338 34.8503 33.3398 34.1584C32.644 33.4647 32.25 32.7355 32.25 32Z" fill="#F2995A" stroke="#111111" stroke-width="0.5"/>
<path d="M31.8086 53.3364C27.5284 53.3364 24.0586 49.8666 24.0586 45.5864C24.0586 43.4292 24.9858 40.0729 26.4687 37.2527C27.2088 35.8451 28.0797 34.5862 29.0285 33.6826C29.9792 32.7773 30.9847 32.25 32 32.25C33.0139 32.25 33.9946 32.776 34.9083 33.6793C35.8208 34.5815 36.6441 35.8392 37.3368 37.2467C38.7241 40.0654 39.5586 43.4242 39.5586 45.5864C39.5586 49.8666 36.0888 53.3364 31.8086 53.3364Z" fill="#FBF8EF" stroke="#111111" stroke-width="0.5"/>
<path d="M32 48.75C28.8357 48.75 26.25 46.0528 26.25 42.6997C26.25 41.0094 26.9429 38.3731 28.0527 36.157C28.6065 35.0511 29.2566 34.0651 29.9624 33.3593C30.6707 32.651 31.4089 32.25 32.1436 32.25C32.8767 32.25 33.5962 32.6496 34.2765 33.356C34.9551 34.0605 35.5697 35.0453 36.088 36.1511C37.1262 38.366 37.75 41.0046 37.75 42.6997C37.75 46.0528 35.1643 48.75 32 48.75Z" fill="#F2995A" stroke="#111111" stroke-width="0.5"/>
<path d="M17.3069 47.1159C14.1434 44.2329 13.916 39.3311 16.7991 36.1676C18.2473 34.5785 21.2324 32.8532 24.2736 31.8975C25.7905 31.4207 27.3051 31.1409 28.6332 31.1601C29.9644 31.1793 31.0781 31.4981 31.8316 32.1848C32.5816 32.8683 32.9399 33.8852 32.9902 35.1153C33.0404 36.3457 32.7804 37.7629 32.3224 39.204C31.4056 42.0884 29.7158 45.0055 28.2553 46.6081C25.3723 49.7716 20.4705 49.999 17.3069 47.1159Z" fill="#FBF8EF" stroke="#111111" stroke-width="0.5"/>
<path d="M16.9722 17.3039C19.8553 14.1403 24.757 13.913 27.9206 16.7961C29.5089 18.2436 31.2122 21.2286 32.146 24.2704C32.6118 25.7876 32.8808 27.3026 32.8536 28.6312C32.8262 29.9629 32.5023 31.0775 31.815 31.8316C31.1312 32.5819 30.1195 32.9398 28.8983 32.9897C27.6765 33.0396 26.2705 32.7794 24.8406 32.3211C21.9786 31.4037 19.0831 29.7133 17.48 28.2523C14.3165 25.3692 14.0891 20.4674 16.9722 17.3039Z" fill="#FBF8EF" stroke="#111111" stroke-width="0.5"/>
<path d="M32.1684 31.8152C31.4199 31.1331 31.0636 30.0984 31.0179 28.8373C30.9723 27.5769 31.2389 26.1202 31.7036 24.6399C32.6338 21.6764 34.3368 18.6825 35.7961 17.0813C38.6792 13.9177 43.5809 13.6904 46.7445 16.5734C49.908 19.4565 50.1354 24.3583 47.2523 27.5218C45.8021 29.1131 42.8014 30.916 39.747 31.9489C38.2231 32.4643 36.7021 32.7822 35.3695 32.7914C34.0337 32.8006 32.9196 32.4999 32.1684 31.8152Z" fill="#FBF8EF" stroke="#111111" stroke-width="0.5"/>
<path d="M32.1848 32.1684C32.8664 31.4205 33.9002 31.0692 35.1612 31.0314C36.4213 30.9937 37.8781 31.2708 39.3586 31.7462C42.3221 32.6978 45.3168 34.4224 46.9187 35.8824C50.0823 38.7654 50.3096 43.6672 47.4266 46.8307C44.5435 49.9943 39.6417 50.2216 36.4782 47.3386C34.8873 45.8888 33.0844 42.867 32.0513 39.7907C31.5358 38.2559 31.2178 36.7239 31.2086 35.383C31.1994 34.0386 31.5004 32.9194 32.1848 32.1684Z" fill="#FBF8EF" stroke="#111111" stroke-width="0.5"/>
<path d="M32 39.75C27.7198 39.75 24.25 36.2802 24.25 32C24.25 27.7198 27.7198 24.25 32 24.25C36.2802 24.25 39.75 27.7198 39.75 32C39.75 36.2802 36.2802 39.75 32 39.75Z" fill="#F2995A" stroke="#111111" stroke-width="0.5"/>
</svg>
