<svg width="64" height="64" viewBox="0 0 64 64" fill="none" xmlns="http://www.w3.org/2000/svg">
<g clip-path="url(#clip0_379_2028)">
<rect width="64" height="64" fill="#FBF8EF"/>
<rect x="-21.8284" y="32" width="76.1911" height="76.1911" transform="rotate(-45 -21.8284 32)" fill="#FBF8EF"/>
<rect x="-21.8284" y="32" width="76.1911" height="76.1911" transform="rotate(-45 -21.8284 32)" stroke="#7ECEA6" stroke-width="4"/>
<rect width="62.9413" height="62.9413" transform="translate(-13 32) rotate(-45)" fill="#7ECEA6"/>
<rect width="56" height="56" transform="translate(-8 32) rotate(-45)" fill="#FBF8EF"/>
<path d="M32 24L32.7909 29.0484L36 25.0718L34.1607 29.8393L38.9282 28L34.9516 31.2091L40 32L34.9516 32.7909L38.9282 36L34.1607 34.1607L36 38.9282L32.7909 34.9516L32 40L31.2091 34.9516L28 38.9282L29.8393 34.1607L25.0718 36L29.0484 32.7909L24 32L29.0484 31.2091L25.0718 28L29.8393 29.8393L28 25.0718L31.2091 29.0484L32 24Z" fill="#FBF8EF"/>
<path d="M49.6679 35.019C46.9959 34.5238 45.0054 34.1548 43.6261 33.7997C42.9361 33.622 42.4118 33.451 42.0368 33.2748C41.6544 33.0951 41.4681 32.9286 41.3952 32.7843C41.1449 32.2885 41.1448 31.7032 41.3949 31.2073C41.4678 31.063 41.654 30.8964 42.0363 30.7166C42.4113 30.5403 42.9355 30.3691 43.6255 30.1912C45.0047 29.8356 46.995 29.4659 49.6669 28.9698C50.3907 28.8354 50.9161 28.7381 51.3298 28.7016C51.7408 28.6654 52.0114 28.6928 52.2331 28.786C52.5532 28.9206 52.8261 29.1475 53.0169 29.4377C53.149 29.6386 53.2253 29.8996 53.2647 30.3103C53.3044 30.7237 53.3047 31.2581 53.3047 31.9943C53.3047 32.7303 53.3044 33.2645 53.2647 33.6777C53.2253 34.0883 53.1491 34.3493 53.017 34.5502C52.8263 34.8404 52.5535 35.0672 52.2334 35.2019C52.0118 35.2951 51.7413 35.3225 51.3305 35.2865C50.9168 35.2502 50.3916 35.1531 49.6679 35.019Z" fill="#7ECEA6" stroke="#111111" stroke-width="0.5"/>
<path d="M10.8047 31.9973C10.8047 31.2624 10.805 30.7291 10.8445 30.3164C10.8838 29.9065 10.9597 29.6459 11.0913 29.4453C11.2829 29.1531 11.5575 28.925 11.8798 28.7903C12.1011 28.6978 12.3712 28.6709 12.7815 28.7075C13.1944 28.7444 13.7187 28.8419 14.4411 28.9767C17.0914 29.4714 19.0656 29.84 20.4341 30.1942C21.1186 30.3714 21.6388 30.5419 22.0112 30.7174C22.3907 30.8963 22.5762 31.062 22.6491 31.2058C22.9016 31.7035 22.9016 32.2917 22.6491 32.7894C22.5761 32.9332 22.3906 33.0989 22.0111 33.2777C21.6387 33.4532 21.1185 33.6237 20.4339 33.8008C19.0654 34.155 17.0912 34.5234 14.4409 35.0178C13.7185 35.1526 13.1942 35.2501 12.7813 35.2869C12.3711 35.3235 12.1011 35.2966 11.8797 35.2041C11.5574 35.0694 11.2828 34.8413 11.0913 34.5492C10.9597 34.3485 10.8838 34.0879 10.8445 33.678C10.805 33.2654 10.8047 32.7321 10.8047 31.9973Z" fill="#7ECEA6" stroke="#111111" stroke-width="0.5"/>
<path d="M35.0712 14.3965C34.5682 17.0559 34.1933 19.0369 33.8345 20.4097C33.655 21.0963 33.4826 21.618 33.3056 21.9911C33.1252 22.3715 32.9585 22.5569 32.8142 22.6293C32.3167 22.8793 31.7299 22.8775 31.2339 22.6246C31.0901 22.5513 30.9245 22.3649 30.7464 21.9835C30.5716 21.6093 30.4024 21.0866 30.227 20.3989C29.8763 19.0241 29.5133 17.0408 29.0262 14.3785C28.8941 13.657 28.7986 13.1333 28.7633 12.721C28.7282 12.3114 28.756 12.0417 28.8491 11.8208C28.9842 11.5004 29.2117 11.2275 29.5026 11.0369C29.7031 10.9055 29.9634 10.8297 30.3726 10.7905C30.7846 10.751 31.3169 10.7507 32.0504 10.7507C32.7878 10.7507 33.323 10.751 33.737 10.7907C34.1484 10.8302 34.4097 10.9066 34.6107 11.0388C34.9022 11.2306 35.1297 11.5052 35.264 11.8272C35.3565 12.0493 35.383 12.3202 35.3454 12.7318C35.3075 13.146 35.2082 13.6719 35.0712 14.3965Z" fill="#7ECEA6" stroke="#111111" stroke-width="0.5"/>
<path d="M32.0511 53.2472C31.3175 53.2472 30.7851 53.2469 30.3731 53.2074C29.9638 53.1682 29.7035 53.0924 29.5029 52.9609C29.2121 52.7703 28.9846 52.4974 28.8495 52.1769C28.7563 51.9559 28.7286 51.6862 28.7638 51.2766C28.7992 50.8642 28.8948 50.3405 29.027 49.6189C29.5146 46.9567 29.8779 44.9736 30.2288 43.5989C30.4044 42.9112 30.5737 42.3886 30.7485 42.0144C30.9267 41.633 31.0923 41.4467 31.2362 41.3734C31.7322 41.1206 32.319 41.1189 32.8165 41.3689C32.9608 41.4414 33.1274 41.6268 33.3078 42.0072C33.4847 42.3804 33.6569 42.9021 33.8363 43.5887C34.1949 44.9615 34.5694 46.9425 35.072 49.6019C35.2089 50.3264 35.308 50.8523 35.3458 51.2664C35.3834 51.6779 35.3569 51.9488 35.2643 52.1708C35.13 52.4929 34.9025 52.7674 34.611 52.9591C34.4101 53.0914 34.1488 53.1677 33.7375 53.2072C33.3235 53.2469 32.7884 53.2472 32.0511 53.2472Z" fill="#7ECEA6" stroke="#111111" stroke-width="0.5"/>
<path d="M46.6445 21.6833C44.404 23.2154 42.7348 24.3566 41.508 25.0771C40.8944 25.4375 40.4027 25.6858 40.0129 25.8253C39.6156 25.9676 39.3663 25.981 39.2128 25.9302C38.6852 25.7555 38.2719 25.3405 38.0993 24.8121C38.0492 24.6585 38.0637 24.4092 38.2075 24.0125C38.3487 23.6233 38.599 23.1326 38.9619 22.5205C39.6874 21.2967 40.8355 19.6322 42.3767 17.398C42.7938 16.7933 43.0967 16.3547 43.3636 16.0376C43.6286 15.7226 43.8392 15.5513 44.0616 15.4608C44.3832 15.3301 44.7364 15.2979 45.0763 15.3685C45.3114 15.4173 45.5494 15.5478 45.867 15.8097C46.1867 16.0735 46.5638 16.4502 47.0832 16.9696C47.6046 17.491 47.9828 17.8695 48.2474 18.1904C48.5103 18.5091 48.641 18.7479 48.6896 18.9836C48.7598 19.3244 48.7269 19.6785 48.5949 20.0005C48.5037 20.2231 48.3311 20.4337 48.0139 20.6984C47.6946 20.9649 47.2531 21.2672 46.6445 21.6833Z" fill="#7ECEA6" stroke="#111111" stroke-width="0.5"/>
<path d="M17.0363 47.0202C16.5175 46.5014 16.1412 46.1247 15.8777 45.8054C15.616 45.4883 15.4856 45.2506 15.4366 45.0159C15.3655 44.6746 15.3979 44.3198 15.5298 43.997C15.6204 43.7751 15.7918 43.5651 16.1067 43.3006C16.4237 43.0344 16.862 42.7322 17.4663 42.3161C19.689 40.7854 21.3449 39.6452 22.5627 38.9247C23.1719 38.5643 23.6602 38.3157 24.0476 38.1755C24.4425 38.0327 24.691 38.0182 24.8444 38.068C25.3748 38.2404 25.7913 38.6552 25.9657 39.1849C26.0162 39.3381 26.0027 39.5866 25.8615 39.9821C25.7229 40.3701 25.4762 40.8594 25.1182 41.47C24.4026 42.6907 23.2691 44.3511 21.7473 46.58C21.3321 47.1881 21.0305 47.6293 20.7647 47.9484C20.5005 48.2654 20.2905 48.438 20.0683 48.5294C19.7451 48.6625 19.3895 48.6957 19.0473 48.6248C18.8121 48.5761 18.5737 48.4454 18.2554 48.1828C17.935 47.9185 17.5569 47.5408 17.0363 47.0202Z" fill="#7ECEA6" stroke="#111111" stroke-width="0.5"/>
<path d="M21.7378 17.4168C23.2599 19.6463 24.3936 21.3071 25.1094 22.5281C25.4675 23.1388 25.7142 23.6282 25.8528 24.0163C25.9941 24.4119 26.0075 24.6604 25.957 24.8136C25.7825 25.3432 25.3661 25.758 24.8358 25.9303C24.6823 25.9802 24.4338 25.9657 24.0389 25.8228C23.6514 25.6825 23.163 25.4338 22.5537 25.0733C21.3357 24.3524 19.6796 23.2119 17.4564 21.6806C16.8522 21.2644 16.4139 20.9622 16.0969 20.696C15.7821 20.4315 15.6107 20.2214 15.5201 19.9995C15.3883 19.6767 15.3559 19.322 15.427 18.9808C15.4759 18.7461 15.6064 18.5084 15.8681 18.1913C16.1315 17.872 16.5078 17.4953 17.0266 16.9765C17.5473 16.4558 17.9254 16.0781 18.2458 15.8138C18.5642 15.5511 18.8026 15.4204 19.0379 15.3717C19.3801 15.3009 19.7356 15.3341 20.0587 15.4671C20.2809 15.5586 20.491 15.7312 20.7552 16.0483C21.0211 16.3674 21.3226 16.8086 21.7378 17.4168Z" fill="#7ECEA6" stroke="#111111" stroke-width="0.5"/>
<path d="M47.0825 47.0296C46.5632 47.549 46.1861 47.9257 45.8664 48.1894C45.5489 48.4514 45.3109 48.5818 45.0758 48.6306C44.736 48.7012 44.3829 48.6691 44.0614 48.5384C43.839 48.4481 43.6284 48.2768 43.3633 47.9619C43.0964 47.6449 42.7934 47.2064 42.3761 46.6019C40.8337 44.3671 39.6848 42.7023 38.9587 41.4781C38.5955 40.8658 38.3449 40.375 38.2037 39.9858C38.0596 39.5889 38.0451 39.3396 38.0952 39.1859C38.2677 38.6576 38.6808 38.2427 39.2083 38.0678C39.3617 38.017 39.6111 38.0304 40.0086 38.1727C40.3985 38.3122 40.8905 38.5605 41.5044 38.921C42.7317 39.6416 44.4018 40.783 46.6434 42.3154C47.2522 42.7316 47.6939 43.0339 48.0133 43.3004C48.3306 43.5651 48.5033 43.7757 48.5945 43.9985C48.7265 44.3204 48.7595 44.6744 48.6893 45.0151C48.6407 45.2509 48.5099 45.4897 48.247 45.8086C47.9823 46.1295 47.604 46.5081 47.0825 47.0296Z" fill="#7ECEA6" stroke="#111111" stroke-width="0.5"/>
<rect x="24.25" y="24.25" width="15.5" height="15.5" rx="7.75" fill="#FBF8EF" stroke="#111111" stroke-width="0.5"/>
<rect x="49.25" y="22.25" width="3.5" height="3.5" rx="1.75" fill="#FBF8EF" stroke="#111111" stroke-width="0.5"/>
<rect x="49.25" y="38.25" width="3.5" height="3.5" rx="1.75" fill="#FBF8EF" stroke="#111111" stroke-width="0.5"/>
<rect x="38.25" y="49.25" width="3.5" height="3.5" rx="1.75" fill="#FBF8EF" stroke="#111111" stroke-width="0.5"/>
<rect x="22.25" y="49.25" width="3.5" height="3.5" rx="1.75" fill="#FBF8EF" stroke="#111111" stroke-width="0.5"/>
<rect x="11.25" y="38.25" width="3.5" height="3.5" rx="1.75" fill="#FBF8EF" stroke="#111111" stroke-width="0.5"/>
<rect x="11.25" y="22.25" width="3.5" height="3.5" rx="1.75" fill="#FBF8EF" stroke="#111111" stroke-width="0.5"/>
<rect x="21.25" y="11.25" width="3.5" height="3.5" rx="1.75" fill="#FBF8EF" stroke="#111111" stroke-width="0.5"/>
<rect x="38.25" y="11.25" width="3.5" height="3.5" rx="1.75" fill="#FBF8EF" stroke="#111111" stroke-width="0.5"/>
</g>
<defs>
<clipPath id="clip0_379_2028">
<rect width="64" height="64" fill="white"/>
</clipPath>
</defs>
</svg>
