<svg width="128" height="128" viewBox="0 0 128 128" fill="none" xmlns="http://www.w3.org/2000/svg">
<g clip-path="url(#clip0_2741_1423)">
<rect width="128" height="128" fill="#FBF8EF"/>
<path d="M55.4997 74.4998C43.4342 77.3819 41.2628 71.9432 33.9999 81.9996L38.4997 83.4997C44.9999 76 44.1088 80.4621 54.9997 77.5001C66.1163 74.4767 73.7506 72.8549 84.4997 76.9996C87.3513 78.0991 89.7941 78.7907 92.4997 81.0001C95.1925 83.1991 97.9218 87.4024 99.4998 90.5003C101.327 94.0873 100.5 98.0005 100.5 98.0005L102.5 97.0008C102.5 97.0008 101.505 90.2646 99.4998 86.5005C97.7365 83.1899 96.4045 81.3734 93.4996 79.0003C90.4564 76.5142 87.7944 75.9117 84.4997 74.4998C74 70 66.515 71.8685 55.4997 74.4998Z" fill="#65D157"/>
<path d="M38.4997 83.4997L33.9999 81.9996C33.9999 81.9996 26.3461 92.8407 25.0001 95.5001C23.5756 98.3147 22.5 100 21.5 103C23.2573 103 25.9998 103 25.9998 103C25.9998 103 28.0686 98.1146 29.4998 95.5001C30.548 93.5852 38.4997 83.4997 38.4997 83.4997Z" fill="#65D157"/>
<path d="M25.9998 103C25.9998 103 23.2573 103 21.5 103C20.603 105.843 19.2869 112.598 19.0512 115.569C18.7909 118.852 18.9995 124 18.9995 124L23.9995 124C23.9995 124 22.7591 119.562 22.9997 115.569C23.1371 113.29 25.9998 103 25.9998 103Z" fill="#65D157"/>
<path d="M9.00082 64.5C9.00082 71.5 6.42741 81.5724 7.99993 93.0001C9.7851 105.973 18.9999 124 18.9999 124L24.0004 124C24.0004 124 13.5884 106.766 11.5009 93.0001C9.98445 83.0001 11.5009 70.9911 11.5009 64.5C11.5009 61.0003 15.542 55.6704 16.5011 50.501C17.2851 46.2758 15.8008 43.6908 16.7512 39.5C17.804 34.8581 19.2512 28.5 19.2512 28.5L16.7512 28.5C16.7512 28.5 15.4531 34.8785 14.5013 39.5C13.6347 43.7078 15.29 46.2778 14.5013 50.501C13.5222 55.7436 9.00083 60.7903 9.00082 64.5Z" fill="#65D157"/>
<path d="M20.6751 74.2911C19.0728 73.411 17.587 71.5911 16.2619 72.7852C14.9596 73.9587 17.1292 75.5025 17.1463 77.2844C17.1596 78.6663 16.5366 79.3985 16.6739 80.7771C17.0018 84.0699 20.0489 84.7578 22.0184 87.4551C24.3557 90.6558 24.8025 92.744 27.7632 94.9165C31.0128 97.301 37.6653 95.3546 36.1886 99.0155C35.779 100.031 33 101.5 33 101.5C33 101.5 48.5337 99.9338 43.0895 88.4955C40.1678 82.3569 30.8411 82.7827 25.4418 78.6432C23.443 77.1108 22.8776 75.5007 20.6751 74.2911Z" fill="#65D157"/>
<path d="M44.0385 52.0659C43.5874 50.5567 43.7958 48.5505 42.223 48.4642C40.6773 48.3794 41.0682 50.6358 39.9665 51.7234C39.112 52.5669 38.266 52.6296 37.4911 53.5467C35.6401 55.7372 37.1132 58.0113 36.6591 60.8429C36.1203 64.2032 33.6857 66.1114 34 69.5C34.3534 73.3107 42 72 37 78.5C32 85 47.9054 76.1363 49.7865 71.5367C52.0002 66.1237 45.0847 63.3987 44.2977 57.6037C44.0063 55.4584 44.6585 54.1402 44.0385 52.0659Z" fill="#65D157"/>
<path d="M72.3436 112.097C74.4039 111.367 77.1994 111.515 77.2089 109.329C77.2182 107.18 74.1179 107.88 72.5332 106.429C71.3042 105.304 71.1581 104.135 69.8326 103.126C66.6667 100.713 63.622 102.873 59.6609 102.483C54.825 102.007 50.8948 99.0942 47 102C44.6589 103.747 39.5009 102.306 36.4292 103.337C27 106.5 24.7457 113.5 25 113.5C25.2543 113.5 30 105.5 43.1177 116.606C47.4211 120.249 56.7082 114.341 64.6857 112.844C67.6389 112.29 69.5117 113.102 72.3436 112.097Z" fill="#65D157"/>
<path d="M114.246 72.2515C115.838 72.6466 118.004 72.5392 118.002 73.7727C118 74.985 115.602 74.6163 114.368 75.4484C113.411 76.0937 113.293 76.7542 112.262 77.3352C109.799 78.7231 107.447 77.5068 104.38 77.7835C100.741 78.1118 98.089 81.0943 95.1272 78.9883C91.6276 76.5 75 72 75 72C75 72 84.0363 72.9988 91.6276 69.9542C96.4998 68.0001 98.5 69.4999 102.5 71.0003C104.656 71.8092 112.057 71.7085 114.246 72.2515Z" fill="#65D157"/>
<path d="M55.1702 41.9348C53.795 40.4309 51.2998 35.2159 49.5001 35.9997C47.7312 36.7701 50.0964 40.0487 49.5001 41.9348C49.0376 43.3976 49.0739 45.8371 48.7425 47.3408C47.9508 50.9327 50.9057 52.7528 52.0392 56.3059C53.3843 60.5223 52.6083 63.4915 54.919 67.2612C57.5174 71.5005 64.2747 77.969 62.7873 81.0457C61.3 84.1224 70.5003 72 68.8903 64.7316C67.2515 57.3325 62.8925 54.5449 58.6633 48.2385C57.0976 45.9039 57.0604 44.002 55.1702 41.9348Z" fill="#65D157"/>
<path d="M4.90971 43.863C4.28685 43.0603 3.90711 41.8029 3.01329 42.1213C2.1348 42.4342 2.90878 43.7011 2.56612 44.6155C2.30037 45.3247 1.84648 45.5617 1.64301 46.2965C1.15702 48.0516 2.53571 49.0743 2.98295 50.8866C3.51368 53.0373 2.67872 54.7368 4.06413 56.4501C8.51618 61.9559 8 79 8 79C8 79 9.56217 60.4769 10.3223 55.1606C10.8555 51.4314 8.28825 50.442 6.42082 47.1372C5.72949 45.9137 5.76584 44.9663 4.90971 43.863Z" fill="#65D157"/>
<path d="M32.8197 47.5324C34.3194 46.9984 35.9329 45.6916 36.7464 46.804C37.5459 47.8973 35.4371 48.9051 35.0275 50.3441C34.7099 51.4601 35.0544 52.1212 34.6366 53.2208C33.6387 55.8471 31.0057 56.0655 28.8037 58.0282C26.1906 60.3572 25.4426 62.5685 22.404 64.2836L22.3728 64.3011C18.9408 66.2382 11.354 70.5203 11.0131 73.0305C10.6712 75.5484 10.4998 62.4998 14.6046 57.9878C18.6037 53.592 22.6597 53.2717 27.9736 50.5231C29.9408 49.5056 30.7585 48.2663 32.8197 47.5324Z" fill="#65D157"/>
<path d="M85.1235 89.1778C86.6568 89.6821 88.7678 89.6571 88.7163 91.0174C88.6658 92.3544 86.3479 91.8443 85.1146 92.7089C84.1582 93.3795 84.0167 94.1029 82.9907 94.6993C80.5399 96.1239 78.3008 94.6811 75.307 94.8541C71.7543 95.0594 69.7645 96.3154 66.2589 95.7843C62.3167 95.187 51.6471 96.1983 49.5365 97.499C47.4259 98.7997 58.8934 88.7783 63.8592 87.513C69.7032 86.024 73.3991 87.4056 79.3717 88.5287C81.5828 88.9445 83.016 88.4846 85.1235 89.1778Z" fill="#65D157"/>
<path d="M124.556 56.5669C125.953 55.6244 123.585 52.0205 121.848 49.9281C117.566 44.7717 111.277 45.0077 104.213 45.8232C98.0938 46.5295 97.2664 49.0608 91.9999 52.0007C87.5181 54.5025 80.7419 57.5258 76.9999 61.0007C74.1486 63.6483 71 72.5 71 72.5C71 72.5 77.8298 64.4126 81.5395 64.404C87.5923 64.3901 91.6032 67.775 97.5328 66.643C106.449 64.941 107.614 57.2467 117.847 56.1562C120.492 55.8743 123.072 57.5688 124.556 56.5669Z" fill="#65D157"/>
<path d="M28.0002 104C19.5 108.812 23.9997 124 23.9997 124C23.9997 124 21.9194 112.289 29.9998 107.5C36.6894 103.535 52.0358 97.5342 57.4996 92.001C60.4165 89.0471 62.0866 87.379 64.4996 84.001C69.1435 77.4999 70.5002 73.4989 73.4997 66.9999C77.9032 57.4591 87.0643 54.4765 94 45.0001C98.6086 38.7032 104.5 27.9999 104.5 27.9999L102.5 26.5C102.5 26.5 96.8301 37.3715 92 43.5001C85.8441 51.3108 73.4997 61 73.4997 61C73.4997 61 74.4917 51.1692 73.4997 45C72.382 38.049 66.499 28.0001 66.499 28.0001L64.4994 29.5002C64.4994 29.5002 69.9849 38.6579 70.9999 45.0001C72.1742 52.3375 71.1679 59.3963 70.0001 64.0014C68.0838 71.5581 65.9994 75.9984 61.9997 82.4999C59.974 85.7927 58.3665 86.9073 55.5001 89.5014C49.9116 94.559 34.5596 100.288 28.0002 104Z" fill="#65D157"/>
<path d="M13.5003 66.5C13.5003 66.5 16.3037 62.0334 18.6478 59.6419C20.6031 57.647 21.9068 56.6716 24.2269 55.0773C26.5511 53.4801 28.1252 53.0211 30.5 51.5C32.0479 50.5086 34.3763 48.8299 34.3763 48.8299C34.3763 48.8299 32.2589 50.7644 30.8112 51.8929C28.5753 53.6357 26.9887 54.4935 24.7729 55.9224C22.4734 57.4052 21.3682 58.5113 19.351 60.3599C16.9092 62.5977 13.5003 66.5 13.5003 66.5Z" fill="#FBF8EF"/>
<path d="M58.0481 91.9339C58.0481 91.9339 62.9913 90.0972 66.3069 89.627C69.0725 89.2348 70.7006 89.2547 73.5118 89.4024C76.3281 89.5503 77.8563 90.1444 80.6663 90.3835C82.4979 90.5393 85.367 90.6252 85.367 90.6252C85.367 90.6252 82.5095 90.8707 80.674 90.8846C77.8391 90.906 76.0582 90.6206 73.4305 90.4052C70.7035 90.1816 69.1533 90.3863 66.4276 90.6248C63.1281 90.9134 58.0481 91.9339 58.0481 91.9339Z" fill="#FBF8EF"/>
<path d="M87.5 73.5508C87.5 73.5508 93.9915 73.8371 97.3071 74.3073C100.073 74.6995 101.701 74.6796 104.512 74.5319C107.328 74.384 108.857 73.7899 111.667 73.5508C113.498 73.395 116.367 73.3092 116.367 73.3092C116.367 73.3092 113.51 73.0636 111.674 73.0497C108.839 73.0283 107.058 73.3137 104.431 73.5291C101.704 73.7527 100.154 73.548 97.4278 73.3095C94.1283 73.0209 87.5 73.5508 87.5 73.5508Z" fill="#FBF8EF"/>
<path d="M19.5 75.5C19.5 75.5 24.0944 80.3814 26.9765 82.0866C29.3806 83.5089 30.8978 85.6278 33 87.5C35.106 89.3756 36.263 89.1612 38.3072 91.104C39.6396 92.3703 39.5 95.5 39.5 95.5C39.5 95.5 39.4415 92.6363 38 91.5C35.7736 89.745 34.2264 90.0425 32.3098 88.232C30.3207 86.3532 28.7241 84.4583 26.4472 82.941C23.6911 81.1042 19.5 75.5 19.5 75.5Z" fill="#FBF8EF"/>
<path d="M42.0344 51C42.0344 51 42.8554 56.7325 42.8554 59.6608C42.8554 62 41.8175 64.2607 42.0344 66.7092C42.2517 69.1622 43.2308 69.6894 43.3573 72.1509C43.4397 73.7554 41.1777 75.7373 41.1777 75.7373C41.1777 75.7373 43.1137 73.8162 42.8631 72.2344C42.476 69.7914 41.1593 69.0935 41.033 66.7928C40.902 64.4053 41.8851 62.5 41.8851 59.918C41.8851 57.0262 42.0344 51 42.0344 51Z" fill="#FBF8EF"/>
<path d="M64.6422 72.7903C64.6422 72.7903 64.8086 67.5265 63.7109 64.3445C62.8059 61.7208 60.4321 59.1711 59.1825 56.6929C57.2888 52.9372 55.1103 49.8493 53.95 47.2789C53.0766 45.3442 52.4173 42.0638 52.4173 42.0638C52.4173 42.0638 52.7698 45.4622 53.5001 47.4998C54.4566 50.1686 56.9158 54.9282 58.3019 57.171C59.7404 59.4985 61.761 62.1953 62.7873 64.7316C64.0297 67.8019 64.6422 72.7903 64.6422 72.7903Z" fill="#FBF8EF"/>
<path d="M81.0001 60.9668C81.0001 60.9668 83.2929 59.6857 87.2019 58.9859C90.3188 58.4279 95.9757 58.936 99.0005 57.9997C104.007 56.4499 108.057 53.5881 111.284 52.5963C113.713 51.8498 118.5 52.5968 118.5 52.5968C118.5 52.5968 113.641 51.5285 111.123 52.1217C107.826 52.8986 103.684 54.7164 98.8898 56.2977C95.7791 57.3237 90.1595 57.1412 87.0005 57.999C83.1764 59.0375 81.0001 60.9668 81.0001 60.9668Z" fill="#FBF8EF"/>
<path d="M30.1085 107.863C30.1085 107.863 32.4426 107.115 36.1489 107.175C39.1041 107.223 44.1877 108.675 47.1282 108.367C51.9952 107.856 55.3868 106.503 58.5337 106.653C65.0063 106.962 72.0454 108.842 72.0454 108.842C72.0454 108.842 64.8163 105.799 58.5358 105.814C55.373 105.822 52.0188 106.241 47.3403 106.818C44.3045 107.192 39.1952 106.038 36.1462 106.253C32.4553 106.512 30.1085 107.863 30.1085 107.863Z" fill="#FBF8EF"/>
<path d="M8.12372 62.8342C8.12372 62.8342 8.50874 59.4854 8.24323 57.3282C7.96827 55.094 7.25485 53.3699 6.70071 51.7419C6.14656 50.114 5.72534 49.4169 4.91813 47.856C4.39199 46.8386 3.9999 44.4997 3.9999 44.4997C3.9999 44.4997 4.17274 46.8091 4.5 48C4.97979 49.746 5.37656 50.4578 5.87377 52.0536C6.53976 54.1911 7.39702 57.5805 7.39702 57.5805L8.12372 62.8342Z" fill="#FBF8EF"/>
<path d="M8.09777 38.9658C7.29459 37.5239 7.45808 36.1613 7.73292 34.8642C8.03098 33.4576 8.43578 32.1711 8.18662 30.6735L8.14226 30.4467C7.897 29.3262 7.26892 28.4582 6.69435 27.4515C6.0963 26.4036 5.59741 25.2385 6.13559 23.7405L6.19753 23.5806C6.86965 21.968 8.52958 21.5496 10.1098 21.5736C10.2048 21.575 10.3003 21.5792 10.3962 21.5837C9.52153 21.1116 8.64873 20.5836 7.87233 20.0124C6.82839 19.2442 5.90946 18.364 5.41545 17.3971C4.90388 16.3956 4.85173 15.2975 5.55395 14.2171L5.70464 13.9969C6.47132 12.9312 7.41376 12.429 8.40522 12.0608C9.4884 11.6585 10.4962 11.4448 11.6148 10.8516L11.8348 10.7272C12.346 10.4212 12.8356 10.0104 13.3242 9.55644C13.8589 9.05965 14.4365 8.46734 14.9695 8.00761C15.5111 7.54034 16.1062 7.11668 16.7613 6.95381C17.4117 6.79221 18.0712 6.89872 18.7279 7.34374L18.8593 7.43759C19.8022 8.14243 20.5212 9.17076 21.0735 10.2708C21.0543 9.1062 21.1157 7.93373 21.3151 6.86909C21.5266 5.73958 21.9003 4.68608 22.5331 3.89209C23.1396 3.13109 23.9705 2.62742 25.054 2.51686L25.2746 2.49998C27.7104 2.37462 29.2748 3.51266 30.5764 5.03844C31.2177 5.79031 31.8108 6.65398 32.4124 7.50866C32.9441 8.26415 33.488 9.02144 34.1012 9.7352L34.3685 10.0383C34.6429 10.3414 34.9692 10.6032 35.3209 10.8625C35.6578 11.1109 36.0493 11.3782 36.3758 11.6484C36.7096 11.9247 37.0324 12.248 37.2447 12.6554C37.4367 13.0239 37.5264 13.4381 37.4835 13.9092L37.4566 14.1142C37.2245 15.5065 36.3037 16.8073 35.2374 17.9045C36.0536 17.5782 36.889 17.2962 37.6969 17.1065C38.8218 16.8424 39.9455 16.7429 40.9084 16.9869C41.8397 17.223 42.6056 17.7789 43.0483 18.7489L43.1326 18.9488C43.8845 20.8819 43.1969 22.3757 42.313 23.7439C41.4658 25.0552 40.4858 26.2195 40.0119 27.7321L39.9242 28.04C39.7865 28.5731 39.7588 29.1135 39.7729 29.6668C39.78 29.944 39.7969 30.2197 39.815 30.4993C39.8328 30.7753 39.8515 31.0581 39.8593 31.335C39.889 32.3842 39.7665 33.4727 38.7837 34.342L38.5754 34.5132C37.9312 35.0041 37.0629 34.9738 36.238 34.764C35.3949 34.5496 34.4576 34.1131 33.5368 33.5937C33.9129 34.0334 34.2727 34.4831 34.5994 34.9353C35.3926 36.0336 36.032 37.1954 36.2179 38.2814C36.3121 38.8321 36.2934 39.3827 36.1013 39.8979C35.9318 40.3524 35.6372 40.7522 35.2168 41.088L35.0282 41.2287C33.6428 42.1908 32.3176 42.2308 31.0021 42.0426C30.3643 41.9514 29.6895 41.8003 29.0409 41.6778C28.3774 41.5526 27.7015 41.4488 26.9857 41.4329L26.4755 41.4367C25.9705 41.4545 25.4814 41.5119 24.9982 41.5815C24.3695 41.6721 23.7118 41.7906 23.0933 41.8522C21.8154 41.9795 20.5342 41.8864 19.234 40.8974L19.0465 40.7446C18.1447 39.9588 17.7738 38.8435 17.698 37.6786C17.6181 36.4507 17.8608 35.1098 18.2045 33.8862C17.5938 34.7319 16.9142 35.6222 16.201 36.4644C14.9225 37.9741 13.4956 39.3838 12.1432 40.0834C11.4633 40.4351 10.7501 40.6349 10.0581 40.5249C9.34486 40.4114 8.74082 39.983 8.27207 39.2556L8.09777 38.9658Z" fill="#F8A300" stroke="#FBF8EF"/>
<path d="M19.9444 22.4714C19.4268 23.973 17.381 26.0137 17.381 26.0137C17.381 26.0137 20.2228 26.5381 21.4993 27.4831C22.7759 28.428 23.9184 30.8531 23.9184 30.8531C23.9184 30.8531 25.3812 28.1279 26.7701 26.7634C27.9258 25.6281 30.1401 24.3444 30.1401 24.3444C30.1401 24.3444 27.9134 23.3207 27.1449 22.0688C26.3018 20.6951 26.5613 17.983 26.5613 17.983C26.5613 17.983 24.895 19.3709 23.6025 19.5051C22.1417 19.6568 20.032 18.3238 20.032 18.3238C20.032 18.3238 20.4621 20.9699 19.9444 22.4714Z" fill="#FBF8EF"/>
<path d="M24.7782 21.5216C25.7453 22.0307 26.7617 24.1261 26.2526 25.0932C25.7435 26.0603 23.8786 26.6389 22.9115 26.1298C21.9444 25.6207 21.3658 23.7558 21.8749 22.7887C22.384 21.8216 23.8111 21.0126 24.7782 21.5216Z" fill="#F8A300"/>
<path d="M32.5026 39.1021C30.4841 40.3158 28.8567 38.4916 26.5014 38.5009C24.3265 38.5096 22.7655 40.2682 20.9599 39.0558C18.4139 37.3462 22.0363 31.277 22.0363 31.277C22.0363 31.277 19.7807 36.6428 22.036 37.9426C23.5538 38.8173 24.7477 37.4866 26.4995 37.4963C28.0682 37.5049 29.0671 38.5423 30.4965 37.896C33.3498 36.606 26.9157 30.7217 26.9157 30.7217C26.9157 30.7217 35.8735 37.0752 32.5026 39.1021Z" fill="#FBF8EF"/>
<path d="M10.7386 37C8.40833 34.8903 11.9679 33.666 11.4857 30.5598C11.1271 28.2492 8.06804 27.0112 9.26178 25.0007C10.6089 22.7318 15.9998 25.5008 15.9998 25.5008C15.9998 25.5008 11.6588 24.1531 10.7386 26.0005C9.92961 27.6247 12.7539 28.7621 13 30.5598C13.2766 32.5797 10.7386 34.7939 11.7393 35.4847C13.9344 37 19.3638 28.843 19.3638 28.843C19.3638 28.843 13.5 39.5 10.7386 37Z" fill="#FBF8EF"/>
<path d="M14.2096 13.0871C15.8188 11.9263 15.9344 9.71433 17.9158 9.61188C20.9097 9.45708 20 17 20 17C20 17 19.8626 11.0581 17.484 11.3888C16.0549 11.5875 15.9565 13.0686 14.7883 13.9154C13.2721 15.0145 11.4812 14.4653 10.4992 16.0599C8.65495 19.0548 17.4246 21.8179 17.4246 21.8179C17.4246 21.8179 6.60376 19.6574 8.50042 15.9402C9.63324 13.72 12.1882 14.5452 14.2096 13.0871Z" fill="#FBF8EF"/>
<path d="M31.816 12.0998C33.1051 12.9658 34.44 12.6364 35.373 13.8779C37.4531 16.6456 28.8378 19.8688 28.8378 19.8688C28.8378 19.8688 35.5895 16.2843 33.6255 14.122C32.9084 13.3326 32.0749 13.4855 31.1827 12.9013C28.9381 11.4314 29.4624 7.79868 26.7851 7.62273C23.1971 7.38694 24.0098 16.402 24.0098 16.402C24.0098 16.402 21.824 5.34811 26.2149 5.37664C29.6321 5.39885 28.9793 10.1942 31.816 12.0998Z" fill="#FBF8EF"/>
<path d="M37 27.6021C36.7268 29.4621 38.6119 31.0328 37 32C34.5 33.5 29.5 27.0007 29.5 27.0007C29.5 27.0007 34.473 32 36.041 30.5C36.9672 29.614 35.8597 28.5719 36.041 27.3031C36.4068 24.7436 40.2894 23.241 39 21C37.4893 18.3744 30.9999 22.4999 30.9999 22.4999C30.9999 22.4999 38.2635 16.6176 40.3498 19.795C42.1708 22.5683 37.482 24.3196 37 27.6021Z" fill="#FBF8EF"/>
<path d="M65.2256 43.6072C63.6994 43.2392 62.8526 42.2461 62.1265 41.2228C61.3386 40.1123 60.7079 39.0143 59.5138 38.2318L59.3285 38.1162C58.3986 37.5723 57.3993 37.4548 56.3289 37.2084C55.2158 36.9521 54.0778 36.5487 53.3762 35.2045L53.2992 35.049C52.5635 33.4456 53.3969 31.9001 54.4516 30.7386C54.4579 30.7316 54.4649 30.725 54.4713 30.718C53.7046 31.0114 52.905 31.2769 52.1222 31.4706C50.9019 31.7725 49.6601 31.9165 48.6274 31.6764C48.1034 31.5545 47.6184 31.3303 47.2224 30.9649C46.8243 30.5973 46.5411 30.11 46.3866 29.5041L46.3296 29.2557C46.0792 28.0336 46.3356 27.052 46.7159 26.1249C47.132 25.1106 47.6267 24.2795 47.9306 23.125L47.9847 22.8933C48.099 22.3451 48.1271 21.7442 48.1248 21.1146C48.1222 20.4276 48.0806 19.6444 48.1026 18.9795C48.125 18.3032 48.2122 17.6132 48.5218 17.0479C48.8097 16.5225 49.2672 16.1429 49.9262 15.9543L50.2214 15.8854C51.2928 15.6862 52.4536 15.846 53.5665 16.1655C52.7706 15.4474 52.0232 14.6746 51.4263 13.8798C50.7654 12.9996 50.261 12.0553 50.1056 11.0985C49.9566 10.18 50.1345 9.27101 50.7543 8.44258L50.8838 8.27753C52.3644 6.49615 54.1669 6.13735 56.0651 6.21079C56.9997 6.24695 57.9811 6.38846 58.9594 6.518C59.8244 6.63254 60.6975 6.73967 61.5842 6.77089L61.9654 6.77917C62.349 6.78271 62.7381 6.72446 63.1432 6.64634C63.5299 6.57175 63.968 6.47057 64.3657 6.41671C64.773 6.36157 65.2088 6.34313 65.633 6.45806C66.0169 6.56207 66.3663 6.76819 66.6694 7.10325L66.7964 7.25447C67.5801 8.26274 67.8598 9.68649 67.9087 11.0993C68.2358 10.3198 68.6032 9.56274 69.0141 8.88916C69.5768 7.96663 70.2446 7.15538 71.0323 6.66599C71.7933 6.19312 72.6594 6.02828 73.5908 6.3337L73.7776 6.40041C75.6144 7.1212 76.2152 8.56703 76.6001 10.0598C76.9694 11.4924 77.1492 12.9124 77.8936 14.2054L78.0499 14.4628C78.3301 14.897 78.6862 15.2603 79.0787 15.604C79.2753 15.7762 79.4771 15.9407 79.6828 16.1072C79.8859 16.2716 80.0945 16.4403 80.2924 16.6126C81.0422 17.2658 81.7273 18.0548 81.7015 19.3061L81.6869 19.5629C81.6137 20.3407 80.9871 20.914 80.2857 21.3321C79.5706 21.7584 78.6327 22.1109 77.6366 22.4017C78.1801 22.4323 78.7178 22.4782 79.2359 22.5463C80.563 22.7208 81.8227 23.0398 82.7269 23.6112C83.1848 23.9006 83.5712 24.2668 83.819 24.7302C84.0386 25.1409 84.1363 25.6031 84.1021 26.1094L84.0793 26.3284C83.8591 27.9167 83.0319 28.8694 82.0556 29.665C81.5832 30.0499 81.0443 30.422 80.5451 30.7932C80.0336 31.1734 79.5301 31.576 79.0621 32.0614L78.7395 32.4167C78.4293 32.7777 78.1565 33.153 77.8956 33.5329C77.5566 34.0264 77.2165 34.5604 76.8628 35.0301C76.1304 36.0022 75.2393 36.8389 73.71 37.1101L73.4871 37.1425C72.3789 37.2735 71.3956 36.9001 70.5656 36.2972C69.7698 35.719 69.097 34.9183 68.5486 34.1033C68.7125 34.9943 68.8609 35.9545 68.9548 36.9075C69.1241 38.6277 69.1276 40.3955 68.6924 41.6916C68.4724 42.3467 68.125 42.9285 67.5832 43.3046C67.0301 43.6883 66.3406 43.8123 65.539 43.6727L65.2256 43.6072Z" fill="#F8A300" stroke="#FBF8EF"/>
<path d="M61.3625 24.7883C62.0739 26.1096 62.181 28.8375 62.181 28.8375C62.181 28.8375 64.3653 27.1996 65.8392 26.9182C67.3131 26.6368 69.7293 27.3964 69.7293 27.3964C69.7293 27.3964 68.7734 24.635 68.7152 22.7964C68.6669 21.2666 69.1935 18.9064 69.1935 18.9064C69.1935 18.9064 67.0563 19.7974 65.6946 19.5293C64.2005 19.2351 62.483 17.3178 62.483 17.3178C62.483 17.3178 62.3797 19.3641 61.6451 20.3477C60.8148 21.4595 58.5378 22.071 58.5378 22.071C58.5378 22.071 60.6511 23.4671 61.3625 24.7883Z" fill="#FBF8EF"/>
<path d="M63.7987 20.8223C64.7717 20.4766 66.8781 21.1127 67.2237 22.0857C67.5693 23.0587 66.7768 24.7246 65.8038 25.0702C64.8308 25.4159 63.1649 24.6233 62.8193 23.6503C62.4736 22.6773 62.8257 21.1679 63.7987 20.8223Z" fill="#F8A300"/>
<path d="M80.9566 26.7164C80.5068 28.8957 78.1974 28.8576 76.6954 30.4996C75.3084 32.0157 75.5301 34.2262 73.5316 34.7038C70.7135 35.3772 68.8181 28.974 68.8181 28.974C68.8181 28.974 71.1003 33.9774 73.4476 33.2434C75.0272 32.7495 74.8676 31.0679 75.9963 29.8574C77.0071 28.7734 78.3674 28.744 78.834 27.3373C79.7655 24.5293 71.5576 25.2293 71.5576 25.2293C71.5576 25.2293 81.7078 23.0769 80.9566 26.7164Z" fill="#FBF8EF"/>
<path d="M65.5575 40.4875C62.5997 40.7548 64.0292 37.4984 61.563 35.8438C59.7284 34.613 56.9093 35.9448 56.2774 33.828C55.5643 31.4392 60.9403 29.4683 60.9403 29.4683C60.9403 29.4683 57.224 31.6203 57.9177 33.4426C58.5277 35.0447 61.1266 33.8116 62.5328 34.7921C64.1129 35.8937 64.0253 39.0746 65.146 38.822C67.6044 38.2679 65.4162 29.2724 65.4162 29.2724C65.4162 29.2724 69.0626 40.1708 65.5575 40.4875Z" fill="#FBF8EF"/>
<path d="M51.1717 22.7604C51.3961 20.8993 49.9338 19.4023 51.1318 17.9604C52.9417 15.7819 57.5981 21.2448 57.5981 21.2448C57.5981 21.2448 53.3831 17.5346 52.0894 19.3985C51.3121 20.5183 52.2778 21.5353 52.1177 22.889C51.9099 24.6461 50.3815 25.5382 50.8601 27.2415C51.7591 30.4407 59.295 26.1193 59.295 26.1193C59.295 26.1193 50.8638 32.2513 49.4968 28.5532C48.6803 26.3444 50.8898 25.0984 51.1717 22.7604Z" fill="#FBF8EF"/>
<path d="M61.7618 9.89943C63.189 9.55871 63.8152 8.42058 65.275 8.56768C68.5297 8.89564 65.2505 16.9439 65.2505 16.9439C65.2505 16.9439 67.0851 9.9586 64.3254 9.93784C63.3178 9.93026 62.8902 10.6072 61.9129 10.8526C59.4544 11.4702 57.2671 8.77939 55.4301 10.5262C52.9683 12.8673 59.7503 18.0767 59.7503 18.0767C59.7503 18.0767 50.6728 12.5151 53.5048 9.48372C55.7089 7.12447 58.6215 10.6492 61.7618 9.89943Z" fill="#FBF8EF"/>
<path d="M75.8495 16.228C76.9664 17.609 79.2647 17.3057 78.9041 19.0448C78.3447 21.7419 70.6282 21.052 70.6282 21.052C70.6282 21.052 77.2856 20.7999 77.248 18.7501C77.2258 17.5393 75.7927 17.6411 75.0276 16.7025C73.4842 14.8092 74.9272 11.15 72.5449 10.6103C69.7537 9.97802 68.4628 17.1276 68.4628 17.1276C68.4628 17.1276 69.0293 8.315 72.5724 8.901C75.665 9.41248 73.8783 13.7908 75.8495 16.228Z" fill="#FBF8EF"/>
<path d="M96.8805 44.1253C95.5554 43.1413 95.1441 41.8319 94.8612 40.5365C94.5544 39.1318 94.3944 37.7927 93.5514 36.53L93.4177 36.3416C92.7333 35.421 91.8038 34.8881 90.8661 34.2068C89.89 33.4975 88.9562 32.6407 88.8307 31.0538L88.8221 30.8764C88.8048 30 89.1842 29.2745 89.7692 28.6971C90.381 28.0935 91.2275 27.6379 92.1268 27.2898C92.2312 27.2494 92.3372 27.2113 92.4438 27.1733C91.4445 27.1241 90.4284 27.0311 89.4734 26.8709C88.0592 26.6337 86.7192 26.2412 85.7653 25.588C85.2828 25.2576 84.8816 24.8486 84.629 24.3427C84.3737 23.8313 84.2859 23.2511 84.3842 22.6122L84.431 22.3496C84.6916 21.0628 85.3441 20.2175 86.0964 19.4741C86.9183 18.662 87.749 18.0527 88.5248 17.052L88.6741 16.8481C89.0143 16.359 89.2916 15.7832 89.5503 15.1685C89.8334 14.4957 90.1164 13.7183 90.4131 13.0801C90.7147 12.4314 91.0829 11.8005 91.613 11.3826C92.1395 10.9679 92.7844 10.7937 93.566 10.9293L93.7243 10.9609C94.734 11.1846 95.6587 11.7003 96.4822 12.3508C96.0233 11.238 95.6496 10.083 95.4751 8.98399C95.3106 7.94765 95.3166 6.92363 95.6229 6.02C95.9152 5.15799 96.4737 4.42934 97.3598 3.92099L97.5416 3.82188C99.7104 2.70589 101.604 3.09991 103.418 3.95548C104.312 4.37708 105.208 4.92042 106.108 5.45212C106.903 5.92212 107.71 6.38872 108.563 6.78716L108.931 6.95351C109.306 7.11694 109.711 7.2214 110.138 7.31316C110.547 7.40105 111.014 7.4837 111.423 7.59572C111.841 7.71026 112.268 7.87228 112.629 8.15633C112.955 8.41321 113.208 8.75394 113.362 9.201L113.422 9.39884C113.764 10.6919 113.465 12.1651 112.944 13.5345C112.931 13.5685 112.916 13.6017 112.903 13.6356C113.573 12.9812 114.279 12.3672 114.994 11.8639C115.913 11.2166 116.886 10.7218 117.843 10.5843C118.766 10.4517 119.662 10.6554 120.431 11.3302L120.584 11.4716C122.064 12.9244 122.052 14.5689 121.809 16.1795C121.576 17.7232 121.161 19.1876 121.351 20.7612L121.398 21.0779C121.492 21.6205 121.689 22.1245 121.929 22.623C122.05 22.8727 122.178 23.1171 122.31 23.3645C122.44 23.6088 122.573 23.8588 122.694 24.1081C123.152 25.0522 123.488 26.0948 122.95 27.2914L122.831 27.5331C122.46 28.2187 121.694 28.5141 120.903 28.6291C120.091 28.747 119.109 28.6984 118.097 28.5647C118.041 28.5572 117.985 28.5473 117.928 28.5394C118.523 28.8532 119.101 29.1857 119.637 29.5363C120.749 30.2642 121.729 31.0969 122.289 32.0178C122.572 32.4842 122.757 32.9877 122.783 33.5204C122.805 33.9906 122.702 34.4592 122.468 34.9171L122.359 35.1132C121.492 36.5599 120.3 37.1414 119.024 37.5108C118.405 37.6899 117.728 37.8296 117.086 37.9848C116.43 38.1434 115.771 38.3268 115.112 38.6067L114.648 38.82C114.195 39.0439 113.773 39.2973 113.361 39.5595C112.826 39.9006 112.275 40.279 111.736 40.5895C110.624 41.2311 109.418 41.6732 107.826 41.3063L107.596 41.2469C105.393 40.6087 104.508 38.3909 104.157 36.4345C103.932 37.3688 103.66 38.3676 103.335 39.3354C102.764 41.0394 102.011 42.7171 101.033 43.7621C100.539 44.2903 99.9559 44.6908 99.278 44.8184C98.5884 44.9482 97.8751 44.7817 97.1585 44.3177L96.8805 44.1253Z" fill="#F8A300" stroke="#FBF8EF"/>
<path d="M100.896 24.219C101.042 25.8005 100.016 28.502 100.016 28.502C100.016 28.502 102.822 27.8114 104.374 28.1478C105.926 28.4842 107.965 30.2248 107.965 30.2248C107.965 30.2248 108.178 27.1392 108.883 25.3243C109.469 23.8141 110.96 21.7334 110.96 21.7334C110.96 21.7334 108.509 21.716 107.294 20.8908C105.96 19.9855 105.082 17.4066 105.082 17.4066C105.082 17.4066 104.133 19.3569 103.011 20.0108C101.741 20.7498 99.2701 20.4023 99.2701 20.4023C99.2701 20.4023 100.75 22.6374 100.896 24.219Z" fill="#FBF8EF"/>
<path d="M104.912 21.3647C106.003 21.431 107.791 22.923 107.724 24.0139C107.658 25.1048 106.196 26.3991 105.105 26.3328C104.014 26.2664 102.72 24.8045 102.786 23.7136C102.853 22.6227 103.821 21.2983 104.912 21.3647Z" fill="#F8A300"/>
<path d="M119.183 34.2133C117.842 36.1498 115.608 35.1561 113.465 36.1333C111.486 37.0355 110.787 39.2805 108.642 38.9179C105.618 38.4065 106.424 31.3846 106.424 31.3846C106.424 31.3846 106.575 37.2033 109.165 37.4606C110.908 37.6338 111.449 35.9298 113.05 35.2182C114.484 34.581 115.821 35.1158 116.858 33.9389C118.928 31.5896 110.644 28.8718 110.644 28.8718C110.644 28.8718 121.422 30.9795 119.183 34.2133Z" fill="#FBF8EF"/>
<path d="M98.4796 41.2478C95.4879 40.283 98.229 37.7032 96.5122 35.0701C95.2351 33.1114 91.9376 33.241 92.1989 30.9174C92.4937 28.2953 98.5464 28.6023 98.5464 28.6023C98.5464 28.6023 94.0353 29.1591 93.9562 31.2214C93.8867 33.0346 96.9289 32.9099 97.8925 34.4474C98.9752 36.1749 97.5724 39.2368 98.7686 39.455C101.393 39.9336 102.987 30.2654 102.987 30.2654C102.987 30.2654 102.025 42.391 98.4796 41.2478Z" fill="#FBF8EF"/>
<path d="M91.8093 18.0226C92.7988 16.3028 91.9945 14.2389 93.7585 13.3307C96.4239 11.9584 98.6966 19.208 98.6966 19.208C98.6966 19.208 96.1278 13.8484 94.0957 15.128C92.8747 15.8968 93.3941 17.2873 92.6775 18.5396C91.7473 20.165 89.8891 20.4009 89.6498 22.2582C89.2003 25.7466 98.3304 24.6589 98.3304 24.6589C98.3304 24.6589 87.5783 27.1394 87.7785 22.9711C87.8981 20.4815 90.5664 20.183 91.8093 18.0226Z" fill="#FBF8EF"/>
<path d="M107.452 9.88216C108.983 10.1414 110.065 9.29221 111.426 10.0402C114.46 11.7077 107.933 18.1886 107.933 18.1886C107.933 18.1886 112.613 12.1447 109.933 10.9814C108.955 10.5567 108.258 11.0389 107.205 10.8732C104.554 10.4564 103.538 6.92949 101.025 7.87009C97.6579 9.13067 102.106 17.0139 102.106 17.0139C102.106 17.0139 95.5678 7.83688 99.5819 6.05723C102.706 4.67218 104.083 9.31171 107.452 9.88216Z" fill="#FBF8EF"/>
<path d="M118.552 21.8816C119.068 23.6892 121.433 24.3458 120.361 25.8903C118.699 28.2857 111.469 24.4175 111.469 24.4175C111.469 24.4175 118.058 26.9295 118.87 24.9174C119.35 23.7289 117.912 23.2344 117.555 22.0033C116.836 19.5199 119.757 16.5535 117.661 15.041C115.204 13.269 110.985 19.6982 110.985 19.6982C110.985 19.6982 115.187 11.3492 118.395 13.3875C121.196 15.1666 117.642 18.6912 118.552 21.8816Z" fill="#FBF8EF"/>
<path d="M92.3782 86.9119C91.2854 88.1489 91.1539 89.515 91.1452 90.8409C91.1358 92.2787 91.2563 93.6219 90.6929 95.0317L90.6011 95.2438C90.122 96.286 89.3229 96.9997 88.5465 97.8604C87.7384 98.7563 87.002 99.7878 87.2076 101.366L87.2342 101.537C87.542 103.27 88.9821 104.085 90.4566 104.444C90.5203 104.459 90.585 104.472 90.6494 104.486C89.74 104.735 88.814 105.041 87.9668 105.412C86.8226 105.913 85.7652 106.558 85.0975 107.394C84.4043 108.262 84.144 109.326 84.6042 110.545L84.7044 110.793C85.2256 111.998 86.0389 112.69 86.9288 113.261C87.901 113.886 88.8398 114.31 89.8058 115.128L89.9941 115.297C90.4282 115.705 90.8187 116.211 91.1989 116.759C91.6151 117.358 92.0528 118.06 92.4752 118.624C92.9045 119.196 93.3953 119.737 94.0004 120.036C94.6013 120.333 95.2684 120.37 96.005 120.075L96.1533 120.012C97.0763 119.592 97.8515 118.952 98.499 118.222C98.2799 119.375 98.1532 120.562 98.2161 121.659C98.2747 122.682 98.4993 123.663 98.9976 124.471C99.4725 125.242 100.181 125.831 101.165 126.147L101.365 126.206C103.718 126.849 105.49 126.072 107.087 124.859C107.874 124.262 108.638 123.545 109.409 122.839C110.089 122.214 110.783 121.591 111.534 121.024L111.86 120.785C112.193 120.548 112.568 120.362 112.967 120.184C113.349 120.013 113.788 119.836 114.165 119.641C114.55 119.443 114.935 119.196 115.229 118.843C115.495 118.524 115.672 118.139 115.73 117.67L115.748 117.464C115.817 116.083 115.266 114.688 114.535 113.459C115.256 113.942 116.008 114.385 116.756 114.728C117.765 115.19 118.812 115.494 119.784 115.435C120.723 115.377 121.569 114.979 122.202 114.129L122.326 113.954C123.474 112.226 123.121 110.62 122.55 109.094C122.003 107.632 121.294 106.285 121.154 104.706L121.135 104.387C121.114 103.837 121.202 103.303 121.334 102.765C121.4 102.496 121.476 102.23 121.553 101.961C121.63 101.695 121.708 101.423 121.775 101.154C122.028 100.136 122.141 99.0459 121.367 97.9867L121.2 97.775C120.69 97.1743 119.878 97.0142 119.067 97.038C118.24 97.0624 117.285 97.2806 116.328 97.5838C116.316 97.5876 116.304 97.5917 116.291 97.5956C116.768 97.2176 117.229 96.8253 117.652 96.4222C118.596 95.5224 119.401 94.5329 119.765 93.5236C119.949 93.0119 120.026 92.4801 119.936 91.9487C119.857 91.4803 119.653 91.0375 119.32 90.6294L119.17 90.4566C118.022 89.2205 116.736 88.8982 115.411 88.801C114.768 88.7538 114.077 88.7573 113.417 88.7383C112.742 88.7188 112.06 88.6757 111.357 88.5383L110.859 88.4255C110.37 88.3003 109.904 88.1397 109.447 87.9684C108.852 87.7455 108.235 87.4893 107.644 87.2969C106.423 86.8995 105.151 86.7165 103.67 87.4049L103.455 87.5133C102.409 88.0838 101.808 89.0712 101.486 90.1693C101.156 91.2962 101.106 92.5848 101.176 93.7903C100.76 92.8595 100.287 91.8736 99.7718 90.9269C98.8415 89.2173 97.7437 87.5737 96.5671 86.6308C95.975 86.1564 95.319 85.824 94.6202 85.7943C93.9016 85.764 93.2224 86.057 92.6104 86.6662L92.3782 86.9119Z" fill="#F8A300" stroke="#FBF8EF"/>
<path d="M100.426 105.557C100.241 103.98 98.679 101.549 98.679 101.549C98.679 101.549 101.567 101.644 103.016 100.994C104.465 100.344 106.1 98.2187 106.1 98.2187C106.1 98.2187 106.946 101.193 108.011 102.823C108.898 104.179 110.787 105.907 110.787 105.907C110.787 105.907 108.393 106.431 107.374 107.49C106.257 108.651 105.931 111.356 105.931 111.356C105.931 111.356 104.6 109.644 103.366 109.237C101.971 108.777 99.6254 109.628 99.6254 109.628C99.6254 109.628 100.611 107.135 100.426 105.557Z" fill="#FBF8EF"/>
<path d="M104.946 107.518C105.999 107.227 107.44 105.398 107.149 104.344C106.858 103.291 105.16 102.327 104.107 102.618C103.053 102.908 102.089 104.606 102.38 105.66C102.671 106.713 103.892 107.809 104.946 107.518Z" fill="#F8A300"/>
<path d="M116.249 91.9952C114.536 90.3781 112.556 91.8124 110.257 91.2999C108.135 90.8267 106.986 88.7751 104.963 89.5737C102.11 90.6997 104.352 97.4028 104.352 97.4028C104.352 97.4028 103.295 91.6789 105.776 90.8911C107.446 90.3609 108.328 91.9161 110.041 92.281C111.575 92.6078 112.773 91.8078 114.031 92.7447C116.543 94.6146 109 98.988 109 98.988C109 98.988 119.108 94.6956 116.249 91.9952Z" fill="#FBF8EF"/>
<path d="M94.5381 89.3974C91.8108 90.9604 95.0265 92.9171 93.8917 95.8485C93.0476 98.0291 89.7946 98.5847 90.5311 100.804C91.3622 103.308 97.2203 101.755 97.2203 101.755C97.2203 101.755 92.6916 102.144 92.1875 100.143C91.7443 98.3833 94.7464 97.8757 95.371 96.1721C96.0728 94.258 94.0667 91.5526 95.1919 91.0916C97.6601 90.0804 101.221 99.2093 101.221 99.2093C101.221 99.2093 97.77 87.5453 94.5381 89.3974Z" fill="#FBF8EF"/>
<path d="M92.8185 113.499C94.1424 114.977 93.7826 117.162 95.6964 117.686C98.588 118.477 99.3113 110.914 99.3113 110.914C99.3113 110.914 97.9073 116.689 95.6543 115.858C94.3007 115.358 94.5211 113.89 93.5608 112.813C92.3145 111.416 90.4476 111.57 89.8291 109.802C88.6675 106.482 97.825 105.657 97.825 105.657C97.825 105.657 86.7924 105.455 87.8509 109.492C88.4831 111.903 91.1553 111.643 92.8185 113.499Z" fill="#FBF8EF"/>
<path d="M109.807 118.227C111.252 117.656 112.485 118.263 113.662 117.25C116.286 114.99 108.558 110.001 108.558 110.001C108.558 110.001 114.388 114.945 112.007 116.638C111.138 117.256 110.356 116.928 109.36 117.308C106.853 118.265 106.589 121.925 103.936 121.525C100.38 120.989 103.101 112.356 103.101 112.356C103.101 112.356 98.6033 122.687 102.899 123.597C106.242 124.306 106.629 119.482 109.807 118.227Z" fill="#FBF8EF"/>
<path d="M118.184 104.19C118.315 102.315 120.492 101.183 119.124 99.8939C117.002 97.8943 110.729 103.175 110.729 103.175C110.729 103.175 116.656 99.3539 117.867 101.154C118.582 102.218 117.278 102.999 117.184 104.277C116.994 106.856 120.466 109.154 118.727 111.067C116.69 113.309 111.233 107.892 111.233 107.892C111.233 107.892 117.071 115.191 119.788 112.533C122.16 110.213 117.954 107.5 118.184 104.19Z" fill="#FBF8EF"/>
</g>
<defs>
<clipPath id="clip0_2741_1423">
<rect width="128" height="128" fill="white"/>
</clipPath>
</defs>
</svg>
