<svg width="64" height="64" viewBox="0 0 64 64" fill="none" xmlns="http://www.w3.org/2000/svg">
<g clip-path="url(#clip0_2741_1759)">
<rect width="64" height="64" fill="#FBF8EF"/>
<rect y="64" width="64" height="64" rx="32" transform="rotate(-90 0 64)" fill="#65D157"/>
<rect x="4" y="60" width="56" height="56" rx="28" transform="rotate(-90 4 60)" fill="#FBF8EF"/>
<rect x="54.063" y="27.5" width="9" height="17" rx="2.5" transform="rotate(90 54.063 27.5)" fill="#FBF8EF" stroke="#111111"/>
<rect x="27.063" y="27.5" width="9" height="17" rx="2.5" transform="rotate(90 27.063 27.5)" fill="#FBF8EF" stroke="#111111"/>
<rect x="27.563" y="10" width="9" height="17" rx="2.5" fill="#FBF8EF" stroke="#111111"/>
<path d="M34.063 37C35.4437 37 36.563 38.1193 36.563 39.5L36.563 51.5C36.563 52.8807 35.4437 54 34.063 54L30.063 54C28.6823 54 27.563 52.8807 27.563 51.5L27.563 39.5C27.563 38.1193 28.6823 37 30.063 37L34.063 37Z" fill="#FBF8EF" stroke="#111111"/>
<rect x="44.438" y="13.2616" width="9" height="17" rx="2.5" transform="rotate(45 44.438 13.2616)" fill="#FBF8EF" stroke="#111111"/>
<rect x="25.3442" y="32.3534" width="9" height="17" rx="2.5" transform="rotate(45 25.3442 32.3534)" fill="#FBF8EF" stroke="#111111"/>
<rect x="13.3246" y="19.626" width="9" height="17" rx="2.5" transform="rotate(-45 13.3246 19.626)" fill="#FBF8EF" stroke="#111111"/>
<rect x="32.4184" y="38.7178" width="9" height="17" rx="2.5" transform="rotate(-45 32.4184 38.7178)" fill="#FBF8EF" stroke="#111111"/>
<rect x="53.563" y="28" width="8" height="16" rx="2" transform="rotate(90 53.563 28)" fill="#FBF8EF"/>
<rect x="26.563" y="28" width="8" height="16" rx="2" transform="rotate(90 26.563 28)" fill="#FBF8EF"/>
<rect x="28.063" y="10.5" width="8" height="16" rx="2" fill="#FBF8EF"/>
<rect x="28.063" y="37.5" width="8" height="16" rx="2" fill="#FBF8EF"/>
<rect x="44.438" y="13.9688" width="8" height="16" rx="2" transform="rotate(45 44.438 13.9688)" fill="#FBF8EF"/>
<rect x="25.3442" y="33.0605" width="8" height="16" rx="2" transform="rotate(45 25.3442 33.0605)" fill="#FBF8EF"/>
<rect x="14.0317" y="19.626" width="8" height="16" rx="2" transform="rotate(-45 14.0317 19.626)" fill="#FBF8EF"/>
<rect x="33.1255" y="38.7178" width="8" height="16" rx="2" transform="rotate(-45 33.1255 38.7178)" fill="#FBF8EF"/>
<rect x="23.5" y="23.5" width="17" height="17" rx="8.5" fill="#65D157" stroke="#111111"/>
<path d="M61 53V61H53L61 53Z" fill="#65D157"/>
<path d="M53 3H61V11L53 3Z" fill="#65D157"/>
<path d="M11 3H3V11L11 3Z" fill="#65D157"/>
<path d="M11 61H3V53L11 61Z" fill="#65D157"/>
</g>
<defs>
<clipPath id="clip0_2741_1759">
<rect width="64" height="64" fill="white"/>
</clipPath>
</defs>
</svg>
