<svg width="64" height="64" viewBox="0 0 64 64" fill="none" xmlns="http://www.w3.org/2000/svg">
<g clip-path="url(#clip0_2741_1867)">
<rect width="64" height="64" fill="#FBF8EF"/>
<rect y="64" width="64" height="64" rx="32" transform="rotate(-90 0 64)" fill="#65D157"/>
<path d="M21.841 7.52589C22.8009 7.1274 23.7176 7.30704 24.5307 7.86631C25.3185 8.40829 26.0206 9.3096 26.6485 10.4003C27.9083 12.5886 28.973 15.7232 29.8327 18.895C30.695 22.0765 31.3607 25.335 31.8107 27.7954C31.8794 28.1711 31.9401 28.5289 31.9987 28.8646C32.0568 28.5288 32.1178 28.171 32.1859 27.795C32.6318 25.3339 33.2922 22.0738 34.1493 18.8909C35.0039 15.7177 36.0641 12.582 37.3203 10.3917C37.9464 9.29982 38.6475 8.39706 39.4345 7.85378C40.2466 7.29331 41.1629 7.11253 42.1232 7.50941C43.0836 7.90629 43.6049 8.68114 43.7844 9.6514C43.9583 10.5918 43.8175 11.7261 43.4902 12.9414C42.8336 15.3796 41.3709 18.3489 39.736 21.1997C38.0961 24.0591 36.2624 26.8342 34.8408 28.8922C34.6236 29.2066 34.413 29.5024 34.217 29.7813C34.4957 29.5848 34.7921 29.3751 35.1063 29.1573C37.1618 27.7324 39.9337 25.8944 42.7904 24.2499C45.6385 22.6103 48.6054 21.1419 51.0425 20.4813C52.2572 20.1521 53.3908 20.0094 54.3314 20.1817C55.3021 20.3596 56.0782 20.8795 56.4766 21.8393C56.8751 22.7991 56.6955 23.7159 56.1362 24.529C55.5942 25.3168 54.6929 26.0189 53.6023 26.6468C51.4139 27.9066 48.2794 28.9712 45.1075 29.831C41.9261 30.6933 38.6675 31.359 36.2071 31.809C35.8311 31.8777 35.473 31.9387 35.137 31.9974C35.4731 32.0555 35.8313 32.116 36.2075 32.1842C38.6687 32.6301 41.9287 33.2905 45.1116 34.1476C48.2849 35.0022 51.4205 36.0624 53.6109 37.3186C54.7027 37.9447 55.6055 38.6458 56.1488 39.4328C56.7092 40.2449 56.89 41.1612 56.4931 42.1215C56.0962 43.0819 55.3214 43.6032 54.3511 43.7827C53.4107 43.9566 52.2764 43.8158 51.0611 43.4885C48.6229 42.8319 45.6536 41.3692 42.8029 39.7343C39.9434 38.0944 37.1683 36.2607 35.1104 34.839C34.7958 34.6217 34.4994 34.4118 34.2203 34.2157C34.4168 34.4944 34.6274 34.7904 34.8452 35.1046C36.2702 37.1601 38.1081 39.932 39.7526 42.7887C41.3922 45.6368 42.8607 48.6037 43.5212 51.0408C43.8505 52.2555 43.9932 53.3891 43.8208 54.3297C43.643 55.3004 43.123 56.0765 42.1632 56.4749C41.2034 56.8734 40.2866 56.6938 39.4736 56.1345C38.6857 55.5925 37.9836 54.6912 37.3557 53.6006C36.096 51.4122 35.0313 48.2777 34.1715 45.1058C33.3092 41.9244 32.6435 38.6658 32.1936 36.2054C32.1248 35.8294 32.0629 35.4716 32.0043 35.1357C31.9462 35.4716 31.8865 35.8298 31.8183 36.2058C31.3724 38.667 30.7121 41.927 29.8549 45.1099C29.0003 48.2832 27.9401 51.4188 26.684 53.6092C26.0578 54.701 25.3568 55.6038 24.5697 56.147C23.7576 56.7075 22.8414 56.8883 21.881 56.4914C20.9206 56.0945 20.3993 55.3197 20.2198 54.3494C20.0459 53.409 20.1867 52.2747 20.514 51.0594C21.1706 48.6212 22.6333 45.6519 24.2682 42.8012C25.9081 39.9417 27.7419 37.1666 29.1635 35.1086C29.3806 34.7943 29.59 34.4978 29.7859 34.219C29.5074 34.4153 29.2119 34.6259 28.898 34.8435C26.8424 36.2684 24.0705 38.1064 21.2138 39.7509C18.3657 41.3905 15.3988 42.859 12.9617 43.5195C11.7471 43.8488 10.6135 43.9914 9.67287 43.8191C8.70218 43.6412 7.92608 43.1213 7.5276 42.1615C7.12911 41.2017 7.30874 40.2849 7.86802 39.4719C8.40999 38.684 9.31131 37.9819 10.402 37.354C12.5903 36.0943 15.7249 35.0296 18.8967 34.1698C22.0782 33.3075 25.3367 32.6418 27.7971 32.1919C28.1727 32.1232 28.5303 32.0616 28.8659 32.0029C28.5302 31.9449 28.1725 31.8847 27.7967 31.8166C25.3356 31.3707 22.0755 30.7104 18.8926 29.8532C15.7194 28.9986 12.5837 27.9384 10.3934 26.6823C9.30153 26.0561 8.39876 25.3551 7.85549 24.568C7.29502 23.7559 7.11424 22.8397 7.51111 21.8793C7.90799 20.9189 8.68285 20.3976 9.65311 20.2181C10.5935 20.0442 11.7278 20.185 12.9432 20.5123C15.3813 21.1689 18.3506 22.6316 21.2014 24.2665C24.0608 25.9064 26.8359 27.7402 28.8939 29.1618C29.2081 29.3788 29.5039 29.5888 29.7827 29.7846C29.5863 29.5062 29.3766 29.2101 29.159 28.8963C27.7341 26.8407 25.8961 24.0688 24.2516 21.2121C22.612 18.364 21.1436 15.3971 20.483 12.96C20.1538 11.7454 20.0111 10.6118 20.1834 9.67116C20.3613 8.70047 20.8812 7.92437 21.841 7.52589Z" fill="#65D157" stroke="#111111"/>
<path d="M13.2636 13.2617C13.9985 12.5268 14.9143 12.3427 15.8794 12.549C16.8145 12.749 17.8077 13.3139 18.8045 14.082C20.8045 15.6233 22.9857 18.1136 24.9917 20.7167C27.0037 23.3276 28.8635 26.0849 30.219 28.1869C30.426 28.5079 30.6187 28.8154 30.8011 29.1032C30.7266 28.7706 30.6463 28.4167 30.5657 28.0432C30.0378 25.5983 29.403 22.3332 28.9795 19.0642C28.5573 15.8052 28.3396 12.5023 28.6639 9.99821C28.8256 8.74999 29.1287 7.64792 29.6486 6.84523C30.1851 6.01708 30.9628 5.50007 32.002 5.50007C33.0411 5.50007 33.8188 6.01708 34.3553 6.84523C34.8752 7.64792 35.1783 8.74999 35.34 9.99821C35.6644 12.5023 35.4466 15.8052 35.0244 19.0642C34.601 22.3332 33.9661 25.5983 33.4383 28.0432C33.3576 28.4168 33.276 28.7706 33.2014 29.1032C33.3839 28.8152 33.5778 28.5081 33.7849 28.1869C35.1405 26.0849 37.0002 23.3276 39.0123 20.7167C41.0183 18.1136 43.1994 15.6233 45.1995 14.082C46.1963 13.3139 47.1894 12.749 48.1246 12.549C49.0896 12.3427 50.0054 12.5268 50.7403 13.2617C51.4752 13.9965 51.6593 14.9124 51.4529 15.8774C51.2529 16.8125 50.6881 17.8057 49.9199 18.8025C48.3786 20.8026 45.8883 22.9837 43.2853 24.9897C40.6744 27.0017 37.9171 28.8615 35.8151 30.217C35.4938 30.4242 35.1862 30.6173 34.8981 30.7999C35.2309 30.7252 35.585 30.6444 35.9587 30.5637C38.4036 30.0358 41.6687 29.401 44.9377 28.9775C48.1968 28.5554 51.4997 28.3376 54.0038 28.662C55.252 28.8237 56.354 29.1268 57.1567 29.6467C57.9849 30.1831 58.5019 30.9609 58.5019 32C58.5019 33.0391 57.9849 33.8169 57.1567 34.3533C56.354 34.8732 55.252 35.1763 54.0038 35.338C51.4997 35.6624 48.1968 35.4446 44.9377 35.0225C41.6687 34.599 38.4036 33.9642 35.9587 33.4363C35.585 33.3556 35.2309 33.2748 34.8981 33.2001C35.1862 33.3827 35.4938 33.5758 35.8151 33.783C37.9171 35.1385 40.6744 36.9983 43.2853 39.0103C45.8883 41.0163 48.3786 43.1974 49.9199 45.1975C50.6881 46.1943 51.2529 47.1875 51.4529 48.1226C51.6593 49.0876 51.4752 50.0035 50.7403 50.7383C50.0054 51.4732 49.0896 51.6573 48.1246 51.451C47.1894 51.251 46.1963 50.6861 45.1995 49.918C43.1994 48.3767 41.0183 45.8864 39.0123 43.2833C37.0002 40.6724 35.1405 37.9151 33.7849 35.8131C33.5778 35.4919 33.3839 35.1848 33.2014 34.8968C33.276 35.2294 33.3576 35.5832 33.4383 35.9568C33.9661 38.4017 34.601 41.6668 35.0244 44.9358C35.4466 48.1948 35.6644 51.4977 35.34 54.0018C35.1783 55.25 34.8752 56.3521 34.3553 57.1548C33.8188 57.9829 33.0411 58.4999 32.002 58.4999C30.9628 58.4999 30.1851 57.9829 29.6486 57.1548C29.1287 56.3521 28.8256 55.25 28.6639 54.0018C28.3396 51.4977 28.5573 48.1948 28.9795 44.9358C29.403 41.6668 30.0378 38.4017 30.5657 35.9568C30.6463 35.5833 30.7266 35.2294 30.8011 34.8968C30.6187 35.1846 30.426 35.4921 30.219 35.8131C28.8635 37.9151 27.0037 40.6724 24.9917 43.2833C22.9857 45.8864 20.8045 48.3767 18.8045 49.918C17.8077 50.6861 16.8145 51.251 15.8794 51.451C14.9143 51.6573 13.9985 51.4732 13.2636 50.7383C12.5288 50.0035 12.3447 49.0876 12.551 48.1226C12.751 47.1875 13.3158 46.1943 14.084 45.1975C15.6253 43.1974 18.1156 41.0163 20.7186 39.0103C23.3296 36.9983 26.0868 35.1385 28.1888 33.783C28.5098 33.576 28.8167 33.3825 29.1045 33.2001C28.7721 33.2747 28.4184 33.3557 28.0452 33.4363C25.6003 33.9642 22.3352 34.599 19.0662 35.0225C15.8071 35.4446 12.5043 35.6624 10.0002 35.338C8.75197 35.1763 7.64989 34.8732 6.8472 34.3533C6.01905 33.8169 5.50204 33.0391 5.50204 32C5.50204 30.9609 6.01905 30.1831 6.8472 29.6467C7.64989 29.1268 8.75197 28.8237 10.0002 28.662C12.5043 28.3376 15.8071 28.5554 19.0662 28.9775C22.3352 29.401 25.6003 30.0358 28.0452 30.5637C28.4184 30.6443 28.7721 30.7253 29.1045 30.7999C28.8167 30.6175 28.5098 30.424 28.1888 30.217C26.0868 28.8615 23.3296 27.0017 20.7186 24.9897C18.1156 22.9837 15.6253 20.8026 14.084 18.8025C13.3158 17.8057 12.751 16.8125 12.551 15.8774C12.3447 14.9124 12.5288 13.9965 13.2636 13.2617Z" fill="#65D157" stroke="#111111"/>
<path d="M24.1235 13.0739C24.9036 12.7492 25.6499 12.8974 26.3024 13.3453C26.9295 13.7759 27.4804 14.4861 27.9676 15.3305C28.9459 17.0263 29.7705 19.4487 30.4347 21.89C31.1015 24.3408 31.6174 26.85 31.9656 28.744C31.9764 28.8027 31.9855 28.8611 31.996 28.9186C32.0063 28.861 32.0163 28.8026 32.0269 28.7439C32.3685 26.8487 32.8747 24.3376 33.5328 21.8845C34.1884 19.441 35.0045 17.0161 35.9768 15.3169C36.4611 14.4706 37.0099 13.7581 37.6357 13.3252C38.2865 12.8751 39.0325 12.7239 39.8137 13.0458C40.5949 13.3678 41.0177 14.0007 41.1624 14.7788C41.3014 15.5268 41.1888 16.4192 40.9362 17.3609C40.4288 19.2518 39.2992 21.5475 38.0427 23.7433C36.7812 25.9477 35.371 28.0863 34.278 29.6717C34.2441 29.7209 34.2089 29.7688 34.1756 29.8169C34.2237 29.7834 34.2723 29.7491 34.3215 29.715C35.9031 28.6164 38.0372 27.1994 40.2372 25.9301C42.4287 24.6658 44.7207 23.528 46.6098 23.014C47.5505 22.7581 48.4418 22.6423 49.1902 22.7787C49.9688 22.9206 50.6028 23.3413 50.9275 24.1214C51.2522 24.9014 51.104 25.6478 50.6561 26.3002C50.2255 26.9274 49.5154 27.4782 48.671 27.9654C46.9751 28.9438 44.5528 29.7684 42.1115 30.4326C39.6607 31.0993 37.1514 31.6153 35.2575 31.9635C35.1985 31.9743 35.1397 31.9837 35.082 31.9942C35.1398 32.0045 35.1986 32.0141 35.2576 32.0248C37.1527 32.3663 39.6639 32.8725 42.117 33.5307C44.5604 34.1862 46.9853 35.0023 48.6846 35.9746C49.5308 36.4589 50.2434 37.0078 50.6762 37.6335C51.1264 38.2844 51.2776 39.0304 50.9556 39.8116C50.6337 40.5928 50.0007 41.0156 49.2227 41.1602C48.4746 41.2993 47.5823 41.1867 46.6406 40.934C44.7497 40.4266 42.454 39.2971 40.2582 38.0406C38.0538 36.7791 35.9152 35.3689 34.3298 34.2759C34.2804 34.2419 34.2319 34.2072 34.1836 34.1738C34.2172 34.222 34.2523 34.2701 34.2865 34.3193C35.3851 35.9009 36.8021 38.0351 38.0713 40.2351C39.3356 42.4266 40.4735 44.7185 40.9875 46.6077C41.2434 47.5483 41.3591 48.4396 41.2228 49.1881C41.0809 49.9666 40.6601 50.6006 39.8801 50.9254C39.1001 51.2501 38.3537 51.1019 37.7013 50.654C37.0741 50.2234 36.5232 49.5132 36.036 48.6688C35.0577 46.973 34.2331 44.5506 33.5689 42.1093C32.9021 39.6585 32.3862 37.1492 32.038 35.2553C32.0271 35.1964 32.0168 35.1379 32.0063 35.0802C31.996 35.1378 31.9873 35.1966 31.9767 35.2554C31.6351 37.1506 31.1289 39.6617 30.4708 42.1148C29.8152 44.5583 28.9991 46.9832 28.0268 48.6824C27.5425 49.5287 26.9937 50.2412 26.3679 50.6741C25.7171 51.1242 24.9711 51.2754 24.1899 50.9535C23.4087 50.6315 22.9859 49.9986 22.8412 49.2205C22.7022 48.4725 22.8148 47.5801 23.0675 46.6384C23.5748 44.7475 24.7044 42.4518 25.9609 40.256C27.2224 38.0516 28.6326 35.913 29.7256 34.3276C29.7594 34.2785 29.7935 34.2299 29.8267 34.1818C29.7788 34.2152 29.7311 34.2503 29.6822 34.2843C28.1006 35.3829 25.9664 36.7999 23.7664 38.0692C21.5749 39.3335 19.283 40.4713 17.3938 40.9853C16.4531 41.2412 15.5618 41.357 14.8134 41.2206C14.0349 41.0787 13.4008 40.658 13.0761 39.8779C12.7514 39.0979 12.8996 38.3515 13.3475 37.6991C13.7781 37.0719 14.4882 36.5211 15.3326 36.0339C17.0285 35.0555 19.4508 34.2309 21.8921 33.5667C24.343 32.9 26.8522 32.384 28.7462 32.0358C28.8047 32.025 28.863 32.015 28.9204 32.0046C28.863 31.9943 28.8046 31.9851 28.746 31.9745C26.8509 31.633 24.3397 31.1268 21.8866 30.4686C19.4432 29.8131 17.0183 28.997 15.319 28.0246C14.4728 27.5404 13.7602 26.9915 13.3274 26.3658C12.8772 25.7149 12.726 24.9689 13.048 24.1877C13.37 23.4065 14.0029 22.9837 14.7809 22.8391C15.529 22.7 16.4213 22.8126 17.363 23.0653C19.2539 23.5727 21.5497 24.7022 23.7454 25.9587C25.9498 27.2202 28.0884 28.6304 29.6738 29.7234C29.7228 29.7572 29.7708 29.7918 29.8187 29.8249C29.7854 29.7771 29.7511 29.7289 29.7171 29.68C28.6186 28.0984 27.2016 25.9642 25.9323 23.7642C24.668 21.5727 23.5301 19.2808 23.0162 17.3916C22.7603 16.451 22.6445 15.5597 22.7808 14.8112C22.9228 14.0327 23.3435 13.3987 24.1235 13.0739Z" fill="#65D157" stroke="#111111"/>
<path d="M52.6924 31.999C52.3308 32.2467 51.8149 32.5922 51.1895 32.9883C49.9179 33.7935 48.1998 34.8048 46.4014 35.6416C44.5928 36.4831 42.7472 37.1267 41.209 37.2334C39.6847 37.339 38.584 36.92 38.0117 35.7754C37.3396 34.431 37.0166 33.206 37.0166 31.999C37.0167 30.9429 37.2642 29.8733 37.7764 28.7217L38.0117 28.2227C38.5841 27.0783 39.6849 26.66 41.209 26.7656C42.7472 26.8723 44.5928 27.5159 46.4014 28.3574C48.1999 29.1942 49.9179 30.2056 51.1895 31.0107C51.8147 31.4067 52.3308 31.7514 52.6924 31.999Z" fill="#FBF8EF" stroke="#111111"/>
<path d="M27.1123 31.999C27.1123 33.0553 26.8648 34.1255 26.3525 35.2773L26.1172 35.7754C25.5449 36.92 24.4442 37.339 22.9199 37.2334C21.3817 37.1268 19.5362 36.4831 17.7275 35.6416C15.9288 34.8047 14.2101 33.7935 12.9385 32.9883C12.3135 32.5925 11.7991 32.2466 11.4375 31.999C11.799 31.7514 12.3137 31.4064 12.9385 31.0107C14.2101 30.2055 15.9288 29.1943 17.7275 28.3574C19.5362 27.5159 21.3817 26.8723 22.9199 26.7656C24.3488 26.6666 25.4058 27.028 26.0039 28.0166L26.1172 28.2227C26.7893 29.567 27.1122 30.7921 27.1123 31.999Z" fill="#FBF8EF" stroke="#111111"/>
<path d="M32.061 11.3711C32.3087 11.7327 32.6542 12.2485 33.0503 12.874C33.8555 14.1456 34.8668 15.8636 35.7036 17.6621C36.5451 19.4707 37.1888 21.3163 37.2954 22.8545C37.401 24.3787 36.982 25.4795 35.8374 26.0518C34.4931 26.7239 33.268 27.0469 32.061 27.0469C31.0049 27.0468 29.9353 26.7993 28.7837 26.2871L28.2847 26.0518C27.1403 25.4794 26.722 24.3786 26.8276 22.8545C26.9343 21.3163 27.5779 19.4707 28.4194 17.6621C29.2562 15.8636 30.2676 14.1456 31.0728 12.874C31.4687 12.2488 31.8134 11.7327 32.061 11.3711Z" fill="#FBF8EF" stroke="#111111"/>
<path d="M34.1177 37.8555C34.7007 37.8106 35.2521 37.8125 35.9399 37.9844C36.579 38.1441 36.9634 38.4586 37.1938 38.8672C37.4343 39.2938 37.537 39.8768 37.4946 40.6094C37.4093 42.0824 36.7532 43.9647 35.8794 45.8584C35.0117 47.7388 33.9542 49.5784 33.1108 50.9512C32.6899 51.6363 32.3238 52.2034 32.063 52.5986C32.0619 52.6003 32.0602 52.6019 32.0591 52.6035C32.0581 52.602 32.0572 52.6002 32.0562 52.5986C31.7954 52.2034 31.4291 51.6365 31.0083 50.9512C30.1654 49.5785 29.1088 47.7388 28.2417 45.8584C27.3685 43.9648 26.7135 42.0833 26.6284 40.6104C26.5861 39.8775 26.6876 39.2939 26.9282 38.8672C27.1299 38.5096 27.4498 38.2246 27.9546 38.0518L28.1831 37.9844C28.8709 37.8125 29.4223 37.8106 30.0054 37.8555C30.5768 37.8994 31.256 37.999 32.061 37.999C32.8663 37.999 33.5462 37.8995 34.1177 37.8555Z" fill="#FBF8EF" stroke="#111111"/>
<path d="M46.6482 17.4123C46.5677 17.8431 46.4472 18.4522 46.285 19.1745C45.9553 20.643 45.4555 22.573 44.7755 24.4364C44.0917 26.3104 43.2418 28.0705 42.2295 29.2335C41.2264 30.386 40.1518 30.8681 38.9377 30.4634C37.5119 29.9881 36.4172 29.3502 35.5638 28.4967C34.8171 27.7499 34.2357 26.8185 33.7836 25.6421L33.5971 25.1228C33.1926 23.9089 33.6753 22.8347 34.8277 21.8317C35.9907 20.8194 37.7509 19.9696 39.6248 19.2857C41.4883 18.6057 43.4182 18.106 44.8867 17.7762C45.6088 17.614 46.2174 17.4929 46.6482 17.4123Z" fill="#FBF8EF" stroke="#111111"/>
<path d="M28.5607 35.5008C29.3076 36.2477 29.8894 37.1795 30.3416 38.3561L30.5274 38.8747C30.9321 40.0887 30.4501 41.1634 29.2975 42.1665C28.1345 43.1787 26.3744 44.0286 24.5004 44.7125C22.6367 45.3926 20.7064 45.8929 19.2378 46.2227C18.5161 46.3848 17.9078 46.5039 17.477 46.5845C17.5576 46.1538 17.6775 45.5459 17.8395 44.8243C18.1693 43.3558 18.6696 41.4255 19.3497 39.5618C20.0336 37.6878 20.8834 35.9277 21.8957 34.7646C22.8361 33.6842 23.839 33.1924 24.961 33.4685L25.1868 33.5341C26.6126 34.0094 27.7073 34.6474 28.5607 35.5008Z" fill="#FBF8EF" stroke="#111111"/>
<path d="M16.9388 16.3017L16.9395 16.3024C16.9401 16.3025 16.9412 16.3023 16.9423 16.3024C16.9445 16.3028 16.9478 16.3031 16.9519 16.3038C16.9602 16.3051 16.9721 16.3081 16.9878 16.3107C17.0193 16.3159 17.0655 16.3232 17.1253 16.3335C17.245 16.354 17.4196 16.3848 17.6404 16.426C18.0823 16.5085 18.711 16.6326 19.4579 16.8003C20.9497 17.1353 22.9254 17.6455 24.844 18.3457C26.7525 19.0422 28.6521 19.9431 29.9554 21.0775C31.2691 22.221 32.0598 23.6899 31.4766 25.4396C30.964 26.9773 30.2552 28.2175 29.2683 29.2044C28.4048 30.0678 27.3478 30.7186 26.067 31.211L25.5035 31.4127C23.754 31.9957 22.2856 31.2043 21.1421 29.8907C20.0077 28.5874 19.1068 26.6879 18.4103 24.7794C17.7101 22.8607 17.1999 20.885 16.8649 19.3933C16.6972 18.6464 16.5724 18.0183 16.49 17.5765C16.4488 17.3556 16.418 17.1811 16.3974 17.0613C16.3872 17.0017 16.3798 16.9554 16.3746 16.9239C16.3721 16.9082 16.3698 16.8955 16.3684 16.8873C16.3678 16.8833 16.3674 16.8798 16.3671 16.8776L16.3664 16.8756L16.3664 16.8742L16.2586 16.1947L16.9388 16.3017Z" fill="#FBF8EF" stroke="#111111"/>
<path d="M34.8552 34.7942C35.8421 33.8073 37.0823 33.0984 38.62 32.5858L38.9452 32.4926C40.5525 32.1038 41.9106 32.876 42.9828 34.1078C44.117 35.4111 45.0174 37.3101 45.7138 39.2184C46.414 41.1371 46.9243 43.1128 47.2592 44.6046C47.427 45.3515 47.5511 45.9802 47.6335 46.4221C47.6747 46.6429 47.7055 46.8175 47.726 46.9372C47.7363 46.997 47.7436 47.0432 47.7488 47.0746C47.7514 47.0904 47.7537 47.103 47.755 47.1112C47.7557 47.1151 47.7568 47.1181 47.7571 47.1202C47.7573 47.1213 47.757 47.1223 47.7571 47.123L47.7578 47.1236L47.2634 47.2024L47.7571 47.1243L47.8648 47.8038L47.1853 47.6961L47.184 47.6961L47.1819 47.6954C47.1797 47.6951 47.1762 47.6947 47.1722 47.694C47.164 47.6927 47.1514 47.6904 47.1356 47.6878C47.1042 47.6826 47.0579 47.6753 46.9982 47.665C46.8784 47.6445 46.7039 47.6137 46.4831 47.5725C46.0412 47.49 45.4132 47.3653 44.6663 47.1975C43.1745 46.8625 41.1988 46.3524 39.2801 45.6521C37.3718 44.9557 35.4728 44.0554 34.1695 42.9211C32.8557 41.7775 32.0638 40.3086 32.6468 38.559L32.8492 37.9962C33.3417 36.7152 33.9917 35.6577 34.8552 34.7942Z" fill="#FBF8EF" stroke="#111111"/>
<rect x="22.5" y="22.5" width="19" height="19" rx="9.5" fill="#65D157" stroke="#111111"/>
<rect x="25.5" y="25.5" width="13" height="13" rx="6.5" fill="#FBF8EF" stroke="#111111"/>
<path d="M61 53V61H53L61 53Z" fill="#65D157"/>
<path d="M53 3H61V11L53 3Z" fill="#65D157"/>
<path d="M11 3H3V11L11 3Z" fill="#65D157"/>
<path d="M11 61H3V53L11 61Z" fill="#65D157"/>
</g>
<defs>
<clipPath id="clip0_2741_1867">
<rect width="64" height="64" fill="white"/>
</clipPath>
</defs>
</svg>
