<svg width="64" height="64" viewBox="0 0 64 64" fill="none" xmlns="http://www.w3.org/2000/svg">
<g clip-path="url(#clip0_2741_1891)">
<rect width="64" height="64" fill="#65D157"/>
<rect y="64" width="64" height="64" rx="32" transform="rotate(-90 0 64)" fill="#FBF8EF"/>
<path d="M21.841 7.52589C22.8009 7.1274 23.7176 7.30704 24.5307 7.86631C25.3185 8.40829 26.0206 9.3096 26.6485 10.4003C27.9083 12.5886 28.973 15.7232 29.8327 18.895C30.695 22.0765 31.3607 25.335 31.8107 27.7954C31.8794 28.1711 31.9401 28.5289 31.9987 28.8646C32.0568 28.5288 32.1178 28.171 32.1859 27.795C32.6318 25.3339 33.2922 22.0738 34.1493 18.8909C35.0039 15.7177 36.0641 12.582 37.3203 10.3917C37.9464 9.29982 38.6475 8.39706 39.4345 7.85378C40.2466 7.29331 41.1629 7.11253 42.1232 7.50941C43.0836 7.90629 43.6049 8.68114 43.7844 9.6514C43.9583 10.5918 43.8175 11.7261 43.4902 12.9414C42.8336 15.3796 41.3709 18.3489 39.736 21.1997C38.0961 24.0591 36.2624 26.8342 34.8408 28.8922C34.6236 29.2066 34.413 29.5024 34.217 29.7813C34.4957 29.5848 34.7921 29.3751 35.1063 29.1573C37.1618 27.7324 39.9337 25.8944 42.7904 24.2499C45.6385 22.6103 48.6054 21.1419 51.0425 20.4813C52.2572 20.1521 53.3908 20.0094 54.3314 20.1817C55.3021 20.3596 56.0782 20.8795 56.4766 21.8393C56.8751 22.7991 56.6955 23.7159 56.1362 24.529C55.5942 25.3168 54.6929 26.0189 53.6023 26.6468C51.4139 27.9066 48.2794 28.9712 45.1075 29.831C41.9261 30.6933 38.6675 31.359 36.2071 31.809C35.8311 31.8777 35.473 31.9387 35.137 31.9974C35.4731 32.0555 35.8313 32.116 36.2075 32.1842C38.6687 32.6301 41.9287 33.2905 45.1116 34.1476C48.2849 35.0022 51.4205 36.0624 53.6109 37.3186C54.7027 37.9447 55.6055 38.6458 56.1488 39.4328C56.7092 40.2449 56.89 41.1612 56.4931 42.1215C56.0962 43.0819 55.3214 43.6032 54.3511 43.7827C53.4107 43.9566 52.2764 43.8158 51.0611 43.4885C48.6229 42.8319 45.6536 41.3692 42.8029 39.7343C39.9434 38.0944 37.1683 36.2607 35.1104 34.839C34.7958 34.6217 34.4994 34.4118 34.2203 34.2157C34.4168 34.4944 34.6274 34.7904 34.8452 35.1046C36.2702 37.1601 38.1081 39.932 39.7526 42.7887C41.3922 45.6368 42.8607 48.6037 43.5212 51.0408C43.8505 52.2555 43.9932 53.3891 43.8208 54.3297C43.643 55.3004 43.123 56.0765 42.1632 56.4749C41.2034 56.8734 40.2866 56.6938 39.4736 56.1345C38.6857 55.5925 37.9836 54.6912 37.3557 53.6006C36.096 51.4122 35.0313 48.2777 34.1715 45.1058C33.3092 41.9244 32.6435 38.6658 32.1936 36.2054C32.1248 35.8294 32.0629 35.4716 32.0043 35.1357C31.9462 35.4716 31.8865 35.8298 31.8183 36.2058C31.3724 38.667 30.7121 41.927 29.8549 45.1099C29.0003 48.2832 27.9401 51.4188 26.684 53.6092C26.0578 54.701 25.3568 55.6038 24.5697 56.147C23.7576 56.7075 22.8414 56.8883 21.881 56.4914C20.9206 56.0945 20.3993 55.3197 20.2198 54.3494C20.0459 53.409 20.1867 52.2747 20.514 51.0594C21.1706 48.6212 22.6333 45.6519 24.2682 42.8012C25.9081 39.9417 27.7419 37.1666 29.1635 35.1086C29.3806 34.7943 29.59 34.4978 29.7859 34.219C29.5074 34.4153 29.2119 34.6259 28.898 34.8435C26.8424 36.2684 24.0705 38.1064 21.2138 39.7509C18.3657 41.3905 15.3988 42.859 12.9617 43.5195C11.7471 43.8488 10.6135 43.9914 9.67287 43.8191C8.70218 43.6412 7.92608 43.1213 7.5276 42.1615C7.12911 41.2017 7.30874 40.2849 7.86802 39.4719C8.40999 38.684 9.31131 37.9819 10.402 37.354C12.5903 36.0943 15.7249 35.0296 18.8967 34.1698C22.0782 33.3075 25.3367 32.6418 27.7971 32.1919C28.1727 32.1232 28.5303 32.0616 28.8659 32.0029C28.5302 31.9449 28.1725 31.8847 27.7967 31.8166C25.3356 31.3707 22.0755 30.7104 18.8926 29.8532C15.7194 28.9986 12.5837 27.9384 10.3934 26.6823C9.30153 26.0561 8.39876 25.3551 7.85549 24.568C7.29502 23.7559 7.11424 22.8397 7.51111 21.8793C7.90799 20.9189 8.68285 20.3976 9.65311 20.2181C10.5935 20.0442 11.7278 20.185 12.9432 20.5123C15.3813 21.1689 18.3506 22.6316 21.2014 24.2665C24.0608 25.9064 26.8359 27.7402 28.8939 29.1618C29.2081 29.3788 29.5039 29.5888 29.7827 29.7846C29.5863 29.5062 29.3766 29.2101 29.159 28.8963C27.7341 26.8407 25.8961 24.0688 24.2516 21.2121C22.612 18.364 21.1436 15.3971 20.483 12.96C20.1538 11.7454 20.0111 10.6118 20.1834 9.67116C20.3613 8.70047 20.8812 7.92437 21.841 7.52589Z" fill="#FBF8EF" stroke="#111111"/>
<path d="M13.2636 13.2617C13.9985 12.5268 14.9143 12.3427 15.8794 12.549C16.8145 12.749 17.8077 13.3139 18.8045 14.082C20.8045 15.6233 22.9857 18.1136 24.9917 20.7167C27.0037 23.3276 28.8635 26.0849 30.219 28.1869C30.426 28.5079 30.6187 28.8154 30.8011 29.1032C30.7266 28.7706 30.6463 28.4167 30.5657 28.0432C30.0378 25.5983 29.403 22.3332 28.9795 19.0642C28.5573 15.8052 28.3396 12.5023 28.6639 9.99821C28.8256 8.74999 29.1287 7.64792 29.6486 6.84523C30.1851 6.01708 30.9628 5.50007 32.002 5.50007C33.0411 5.50007 33.8188 6.01708 34.3553 6.84523C34.8752 7.64792 35.1783 8.74999 35.34 9.99821C35.6644 12.5023 35.4466 15.8052 35.0244 19.0642C34.601 22.3332 33.9661 25.5983 33.4383 28.0432C33.3576 28.4168 33.276 28.7706 33.2014 29.1032C33.3839 28.8152 33.5778 28.5081 33.7849 28.1869C35.1405 26.0849 37.0002 23.3276 39.0123 20.7167C41.0183 18.1136 43.1994 15.6233 45.1995 14.082C46.1963 13.3139 47.1894 12.749 48.1246 12.549C49.0896 12.3427 50.0054 12.5268 50.7403 13.2617C51.4752 13.9965 51.6593 14.9124 51.4529 15.8774C51.2529 16.8125 50.6881 17.8057 49.9199 18.8025C48.3786 20.8026 45.8883 22.9837 43.2853 24.9897C40.6744 27.0017 37.9171 28.8615 35.8151 30.217C35.4938 30.4242 35.1862 30.6173 34.8981 30.7999C35.2309 30.7252 35.585 30.6444 35.9587 30.5637C38.4036 30.0358 41.6687 29.401 44.9377 28.9775C48.1968 28.5554 51.4997 28.3376 54.0038 28.662C55.252 28.8237 56.354 29.1268 57.1567 29.6467C57.9849 30.1831 58.5019 30.9609 58.5019 32C58.5019 33.0391 57.9849 33.8169 57.1567 34.3533C56.354 34.8732 55.252 35.1763 54.0038 35.338C51.4997 35.6624 48.1968 35.4446 44.9377 35.0225C41.6687 34.599 38.4036 33.9642 35.9587 33.4363C35.585 33.3556 35.2309 33.2748 34.8981 33.2001C35.1862 33.3827 35.4938 33.5758 35.8151 33.783C37.9171 35.1385 40.6744 36.9983 43.2853 39.0103C45.8883 41.0163 48.3786 43.1974 49.9199 45.1975C50.6881 46.1943 51.2529 47.1875 51.4529 48.1226C51.6593 49.0876 51.4752 50.0035 50.7403 50.7383C50.0054 51.4732 49.0896 51.6573 48.1246 51.451C47.1894 51.251 46.1963 50.6861 45.1995 49.918C43.1994 48.3767 41.0183 45.8864 39.0123 43.2833C37.0002 40.6724 35.1405 37.9151 33.7849 35.8131C33.5778 35.4919 33.3839 35.1848 33.2014 34.8968C33.276 35.2294 33.3576 35.5832 33.4383 35.9568C33.9661 38.4017 34.601 41.6668 35.0244 44.9358C35.4466 48.1948 35.6644 51.4977 35.34 54.0018C35.1783 55.25 34.8752 56.3521 34.3553 57.1548C33.8188 57.9829 33.0411 58.4999 32.002 58.4999C30.9628 58.4999 30.1851 57.9829 29.6486 57.1548C29.1287 56.3521 28.8256 55.25 28.6639 54.0018C28.3396 51.4977 28.5573 48.1948 28.9795 44.9358C29.403 41.6668 30.0378 38.4017 30.5657 35.9568C30.6463 35.5833 30.7266 35.2294 30.8011 34.8968C30.6187 35.1846 30.426 35.4921 30.219 35.8131C28.8635 37.9151 27.0037 40.6724 24.9917 43.2833C22.9857 45.8864 20.8045 48.3767 18.8045 49.918C17.8077 50.6861 16.8145 51.251 15.8794 51.451C14.9143 51.6573 13.9985 51.4732 13.2636 50.7383C12.5288 50.0035 12.3447 49.0876 12.551 48.1226C12.751 47.1875 13.3158 46.1943 14.084 45.1975C15.6253 43.1974 18.1156 41.0163 20.7186 39.0103C23.3296 36.9983 26.0868 35.1385 28.1888 33.783C28.5098 33.576 28.8167 33.3825 29.1045 33.2001C28.7721 33.2747 28.4184 33.3557 28.0452 33.4363C25.6003 33.9642 22.3352 34.599 19.0662 35.0225C15.8071 35.4446 12.5043 35.6624 10.0002 35.338C8.75197 35.1763 7.64989 34.8732 6.8472 34.3533C6.01905 33.8169 5.50204 33.0391 5.50204 32C5.50204 30.9609 6.01905 30.1831 6.8472 29.6467C7.64989 29.1268 8.75197 28.8237 10.0002 28.662C12.5043 28.3376 15.8071 28.5554 19.0662 28.9775C22.3352 29.401 25.6003 30.0358 28.0452 30.5637C28.4184 30.6443 28.7721 30.7253 29.1045 30.7999C28.8167 30.6175 28.5098 30.424 28.1888 30.217C26.0868 28.8615 23.3296 27.0017 20.7186 24.9897C18.1156 22.9837 15.6253 20.8026 14.084 18.8025C13.3158 17.8057 12.751 16.8125 12.551 15.8774C12.3447 14.9124 12.5288 13.9965 13.2636 13.2617Z" fill="#FBF8EF" stroke="#111111"/>
<path d="M24.1235 13.0739C24.9036 12.7492 25.6499 12.8974 26.3024 13.3453C26.9295 13.7759 27.4804 14.4861 27.9676 15.3305C28.9459 17.0263 29.7705 19.4487 30.4347 21.89C31.1015 24.3408 31.6174 26.85 31.9656 28.744C31.9764 28.8027 31.9855 28.8611 31.996 28.9186C32.0063 28.861 32.0163 28.8026 32.0269 28.7439C32.3685 26.8487 32.8747 24.3376 33.5328 21.8845C34.1884 19.441 35.0045 17.0161 35.9768 15.3169C36.4611 14.4706 37.0099 13.7581 37.6357 13.3252C38.2865 12.8751 39.0325 12.7239 39.8137 13.0458C40.5949 13.3678 41.0177 14.0007 41.1624 14.7788C41.3014 15.5268 41.1888 16.4192 40.9362 17.3609C40.4288 19.2518 39.2992 21.5475 38.0427 23.7433C36.7812 25.9477 35.371 28.0863 34.278 29.6717C34.2441 29.7209 34.2089 29.7688 34.1756 29.8169C34.2237 29.7834 34.2723 29.7491 34.3215 29.715C35.9031 28.6164 38.0372 27.1994 40.2372 25.9301C42.4287 24.6658 44.7207 23.528 46.6098 23.014C47.5505 22.7581 48.4418 22.6423 49.1902 22.7787C49.9688 22.9206 50.6028 23.3413 50.9275 24.1214C51.2522 24.9014 51.104 25.6478 50.6561 26.3002C50.2255 26.9274 49.5154 27.4782 48.671 27.9654C46.9751 28.9438 44.5528 29.7684 42.1115 30.4326C39.6607 31.0993 37.1514 31.6153 35.2575 31.9635C35.1985 31.9743 35.1397 31.9837 35.082 31.9942C35.1398 32.0045 35.1986 32.0141 35.2576 32.0248C37.1527 32.3663 39.6639 32.8725 42.117 33.5307C44.5604 34.1862 46.9853 35.0023 48.6846 35.9746C49.5308 36.4589 50.2434 37.0078 50.6762 37.6335C51.1264 38.2844 51.2776 39.0304 50.9556 39.8116C50.6337 40.5928 50.0007 41.0156 49.2227 41.1602C48.4746 41.2993 47.5823 41.1867 46.6406 40.934C44.7497 40.4266 42.454 39.2971 40.2582 38.0406C38.0538 36.7791 35.9152 35.3689 34.3298 34.2759C34.2804 34.2419 34.2319 34.2072 34.1836 34.1738C34.2172 34.222 34.2523 34.2701 34.2865 34.3193C35.3851 35.9009 36.8021 38.0351 38.0713 40.2351C39.3356 42.4266 40.4735 44.7185 40.9875 46.6077C41.2434 47.5483 41.3591 48.4396 41.2228 49.1881C41.0809 49.9666 40.6601 50.6006 39.8801 50.9254C39.1001 51.2501 38.3537 51.1019 37.7013 50.654C37.0741 50.2234 36.5232 49.5132 36.036 48.6688C35.0577 46.973 34.2331 44.5506 33.5689 42.1093C32.9021 39.6585 32.3862 37.1492 32.038 35.2553C32.0271 35.1964 32.0168 35.1379 32.0063 35.0802C31.996 35.1378 31.9873 35.1966 31.9767 35.2554C31.6351 37.1506 31.1289 39.6617 30.4708 42.1148C29.8152 44.5583 28.9991 46.9832 28.0268 48.6824C27.5425 49.5287 26.9937 50.2412 26.3679 50.6741C25.7171 51.1242 24.9711 51.2754 24.1899 50.9535C23.4087 50.6315 22.9859 49.9986 22.8412 49.2205C22.7022 48.4725 22.8148 47.5801 23.0675 46.6384C23.5748 44.7475 24.7044 42.4518 25.9609 40.256C27.2224 38.0516 28.6326 35.913 29.7256 34.3276C29.7594 34.2785 29.7935 34.2299 29.8267 34.1818C29.7788 34.2152 29.7311 34.2503 29.6822 34.2843C28.1006 35.3829 25.9664 36.7999 23.7664 38.0692C21.5749 39.3335 19.283 40.4713 17.3938 40.9853C16.4531 41.2412 15.5618 41.357 14.8134 41.2206C14.0349 41.0787 13.4008 40.658 13.0761 39.8779C12.7514 39.0979 12.8996 38.3515 13.3475 37.6991C13.7781 37.0719 14.4882 36.5211 15.3326 36.0339C17.0285 35.0555 19.4508 34.2309 21.8921 33.5667C24.343 32.9 26.8522 32.384 28.7462 32.0358C28.8047 32.025 28.863 32.015 28.9204 32.0046C28.863 31.9943 28.8046 31.9851 28.746 31.9745C26.8509 31.633 24.3397 31.1268 21.8866 30.4686C19.4432 29.8131 17.0183 28.997 15.319 28.0246C14.4728 27.5404 13.7602 26.9915 13.3274 26.3658C12.8772 25.7149 12.726 24.9689 13.048 24.1877C13.37 23.4065 14.0029 22.9837 14.7809 22.8391C15.529 22.7 16.4213 22.8126 17.363 23.0653C19.2539 23.5727 21.5497 24.7022 23.7454 25.9587C25.9498 27.2202 28.0884 28.6304 29.6738 29.7234C29.7228 29.7572 29.7708 29.7918 29.8187 29.8249C29.7854 29.7771 29.7511 29.7289 29.7171 29.68C28.6186 28.0984 27.2016 25.9642 25.9323 23.7642C24.668 21.5727 23.5301 19.2808 23.0162 17.3916C22.7603 16.451 22.6445 15.5597 22.7808 14.8112C22.9228 14.0327 23.3435 13.3987 24.1235 13.0739Z" fill="#FBF8EF" stroke="#111111"/>
<path d="M53.8584 32.4033L53.8574 32.4033C53.8569 32.4037 53.8563 32.4047 53.8555 32.4053C53.8537 32.4066 53.851 32.4087 53.8477 32.4111C53.8409 32.416 53.8303 32.4233 53.8174 32.4326C53.7915 32.4512 53.7533 32.4779 53.7041 32.5127C53.6049 32.5828 53.4597 32.6845 53.2744 32.8115C52.9037 33.0657 52.3714 33.4225 51.7246 33.832C50.4329 34.65 48.6751 35.6862 46.8232 36.5479C44.9814 37.4048 43.0019 38.1109 41.2783 38.2305C39.5406 38.3509 37.9421 37.8714 37.1172 36.2217C36.3923 34.7719 36.0166 33.3937 36.0166 31.998C36.0167 30.777 36.3039 29.5694 36.8613 28.3154L37.1172 27.7744C37.9421 26.1249 39.5407 25.6462 41.2783 25.7666C43.002 25.8861 44.9814 26.5923 46.8232 27.4492C48.6751 28.3108 50.4329 29.3471 51.7246 30.165C52.3713 30.5746 52.9037 30.9304 53.2744 31.1846C53.4597 31.3116 53.6049 31.4132 53.7041 31.4834C53.7535 31.5183 53.7915 31.5459 53.8174 31.5645C53.8303 31.5737 53.8409 31.5811 53.8477 31.5859C53.851 31.5883 53.8537 31.5905 53.8555 31.5918L53.8574 31.5928L53.8584 31.5937L54.415 31.998L53.8584 32.4033Z" fill="#65D157" stroke="#111111"/>
<path d="M28.1123 31.998C28.1123 33.3937 27.7366 34.7719 27.0117 36.2217L26.8477 36.5176C25.986 37.9291 24.4797 38.3434 22.8506 38.2305C21.127 38.1109 19.1475 37.4048 17.3057 36.5479C15.4538 35.6863 13.696 34.65 12.4043 33.832C11.7576 33.4225 11.2252 33.0666 10.8545 32.8125C10.6691 32.6854 10.524 32.5829 10.4248 32.5127C10.3756 32.4779 10.3374 32.4512 10.3115 32.4326C10.2986 32.4233 10.288 32.416 10.2813 32.4111C10.2779 32.4087 10.2752 32.4066 10.2734 32.4053C10.2726 32.4047 10.272 32.4037 10.2715 32.4033L10.2705 32.4033L9.71387 31.998L10.2705 31.5937L10.2715 31.5937C10.272 31.5934 10.2726 31.5924 10.2734 31.5918C10.2752 31.5905 10.2779 31.5884 10.2813 31.5859C10.288 31.5811 10.2986 31.5737 10.3115 31.5645C10.3374 31.5459 10.3756 31.5192 10.4248 31.4844C10.524 31.4142 10.6691 31.3117 10.8545 31.1846C11.2252 30.9304 11.7576 30.5745 12.4043 30.165C13.696 29.3471 15.4538 28.3108 17.3057 27.4492C19.1475 26.5923 21.127 25.8861 22.8506 25.7666C24.5882 25.6462 26.1868 26.1249 27.0117 27.7744L27.2666 28.3154C27.8241 29.5695 28.1122 30.7768 28.1123 31.998Z" fill="#65D157" stroke="#111111"/>
<path d="M32.4663 10.2041L32.4663 10.2051C32.4666 10.2055 32.4677 10.2062 32.4683 10.207C32.4696 10.2088 32.4717 10.2115 32.4741 10.2148C32.479 10.2216 32.4863 10.2322 32.4956 10.2451C32.5142 10.271 32.5409 10.3092 32.5757 10.3584C32.6458 10.4576 32.7484 10.6027 32.8755 10.7881C33.1296 11.1588 33.4855 11.6912 33.895 12.3379C34.713 13.6296 35.7492 15.3874 36.6108 17.2393C37.4678 19.0811 38.1739 21.0606 38.2935 22.7842C38.4139 24.5219 37.9344 26.1204 36.2847 26.9453C34.8349 27.6702 33.4567 28.0459 32.061 28.0459C30.8399 28.0458 29.6323 27.7586 28.3784 27.2012L27.8374 26.9453C26.1879 26.1204 25.7092 24.5218 25.8296 22.7842C25.9491 21.0606 26.6552 19.0811 27.5122 17.2393C28.3738 15.3874 29.4101 13.6296 30.228 12.3379C30.6375 11.6912 30.9934 11.1588 31.2476 10.7881C31.3747 10.6027 31.4772 10.4576 31.5474 10.3584C31.5822 10.3092 31.6089 10.271 31.6274 10.2451C31.6367 10.2322 31.644 10.2216 31.6489 10.2148C31.6514 10.2115 31.6535 10.2088 31.6548 10.207C31.6554 10.2062 31.6564 10.2055 31.6567 10.2051L31.6567 10.2041L32.062 9.64746L32.4663 10.2041Z" fill="#65D157" stroke="#111111"/>
<path d="M32.0591 53.498L31.6489 53.7832L32.0591 54.375L32.4702 53.7842L32.0591 53.498ZM32.0591 53.498L32.4702 53.7832L32.4722 53.7803C32.4735 53.7784 32.4756 53.7759 32.478 53.7725C32.4831 53.7651 32.4908 53.7543 32.5005 53.7402C32.5199 53.712 32.5478 53.6702 32.5845 53.6162C32.6578 53.5081 32.764 53.3498 32.897 53.1484C33.1628 52.7457 33.5357 52.1697 33.9634 51.4736C34.8176 50.0832 35.897 48.2065 36.7876 46.2764C37.672 44.3596 38.3959 42.336 38.4927 40.667C38.5412 39.829 38.4351 39.0314 38.0659 38.376C37.6865 37.7027 37.059 37.2328 36.1831 37.0137C35.3558 36.8068 34.6879 36.8076 34.0405 36.8574C33.3814 36.9082 32.8179 36.998 32.061 36.998C31.3045 36.998 30.7414 36.9081 30.0825 36.8574C29.5162 36.8138 28.9343 36.8078 28.2437 36.9453L27.9399 37.0137C27.064 37.2327 26.4367 37.7027 26.0571 38.376C25.6878 39.0314 25.581 39.829 25.6294 40.667C25.7258 42.336 26.4497 44.3597 27.3335 46.2764C28.2235 48.2064 29.302 50.0833 30.1558 51.4736C30.5831 52.1696 30.9555 52.7457 31.2212 53.1484C31.3541 53.3498 31.4604 53.5081 31.5337 53.6162C31.5703 53.6703 31.5993 53.712 31.6187 53.7402C31.6282 53.7542 31.6351 53.7652 31.6401 53.7725C31.6425 53.7759 31.6447 53.7784 31.646 53.7803C31.6467 53.7812 31.6476 53.7827 31.6479 53.7832L32.0591 53.498Z" fill="#65D157" stroke="#111111"/>
<path d="M47.7593 16.8744L47.2649 16.7956L47.7586 16.8751C47.7585 16.8756 47.7588 16.8768 47.7586 16.8778C47.7583 16.88 47.7579 16.8834 47.7572 16.8875C47.7559 16.8957 47.7529 16.9077 47.7503 16.9234C47.7451 16.9548 47.7378 17.001 47.7275 17.0608C47.707 17.1805 47.6762 17.3552 47.635 17.5759C47.5526 18.0178 47.4284 18.6465 47.2607 19.3934C46.9258 20.8852 46.4155 22.8609 45.7153 24.7796C45.0189 26.6879 44.1185 28.587 42.9843 29.8902C41.8407 31.2041 40.3713 31.9955 38.6215 31.4122C37.0838 30.8996 35.8435 30.1907 34.8567 29.2038C33.9932 28.3403 33.3432 27.2828 32.8507 26.0018L32.6483 25.4391C32.0652 23.6893 32.8572 22.2205 34.171 21.077C35.4743 19.9427 37.3733 19.0423 39.2816 18.3459C41.2003 17.6457 43.176 17.1355 44.6678 16.8005C45.4147 16.6328 46.0427 16.508 46.4846 16.4255C46.7054 16.3843 46.88 16.3535 46.9997 16.333C47.0594 16.3227 47.1057 16.3154 47.1371 16.3102C47.1529 16.3076 47.1655 16.3053 47.1737 16.304C47.1777 16.3033 47.1812 16.3029 47.1834 16.3026L47.1855 16.3019L47.1862 16.3026C47.1868 16.3055 47.1911 16.3312 47.2276 16.5609L47.1868 16.3019L47.8663 16.1942L47.7593 16.8744Z" fill="#65D157" stroke="#111111"/>
<path d="M29.2678 34.7937C30.2547 35.7805 30.9636 37.0208 31.4762 38.5584L31.5694 38.8837C31.9582 40.491 31.186 41.8491 29.9542 42.9212C28.6509 44.0555 26.7519 44.9559 24.8436 45.6523C22.925 46.3525 20.9492 46.8627 19.4574 47.1977C18.7105 47.3654 18.0818 47.4895 17.6399 47.572C17.4191 47.6132 17.2446 47.644 17.1248 47.6645C17.0649 47.6748 17.0182 47.6828 16.9867 47.688C16.9714 47.6905 16.9596 47.6929 16.9515 47.6942C16.9474 47.6949 16.944 47.6952 16.9418 47.6956C16.9407 47.6958 16.9397 47.6955 16.9391 47.6956L16.9384 47.6963L16.2575 47.804L16.3659 47.1238L16.3659 47.1224L16.3666 47.1204C16.367 47.1182 16.3673 47.1148 16.368 47.1107C16.3693 47.1025 16.3709 47.0904 16.3735 47.0748C16.3787 47.0433 16.3867 46.9966 16.397 46.9367C16.4175 46.8169 16.4483 46.6423 16.4895 46.4216C16.572 45.9797 16.6968 45.3516 16.8645 44.6048C17.1995 43.113 17.7097 41.1373 18.4099 39.2186C19.1063 37.3103 20.0067 35.4113 21.141 34.108C22.2845 32.7941 23.7534 32.0023 25.5031 32.5853L26.0658 32.7877C27.3468 33.2801 28.4043 33.9302 29.2678 34.7937Z" fill="#65D157" stroke="#111111"/>
<path d="M16.9355 16.3012L16.8568 16.7956L16.9362 16.3019L16.9389 16.3019C16.9411 16.3022 16.9446 16.3026 16.9486 16.3032C16.9568 16.3046 16.9695 16.3069 16.9852 16.3094C17.0166 16.3146 17.0625 16.3227 17.1219 16.3329C17.2417 16.3535 17.4168 16.3836 17.6378 16.4248C18.0796 16.5072 18.7076 16.632 19.4545 16.7997C20.9466 17.1347 22.9229 17.6449 24.8421 18.3451C26.7509 19.0415 28.6498 19.9426 29.9534 21.0769C31.2675 22.2204 32.0599 23.6885 31.4767 25.4383C30.9642 26.9761 30.2553 28.2162 29.2684 29.2031C28.4048 30.0667 27.3475 30.7179 26.0664 31.2105L25.5036 31.4114C23.7538 31.9947 22.2847 31.2033 21.1408 29.8895C20.0063 28.5862 19.1052 26.6872 18.4084 24.7788C17.7078 22.8601 17.1969 20.8844 16.8616 19.3927C16.6938 18.6461 16.5698 18.0184 16.4873 17.5766C16.4461 17.3556 16.4147 17.1805 16.3941 17.0607C16.3838 17.001 16.3765 16.9548 16.3713 16.9233C16.3688 16.9079 16.3671 16.8957 16.3658 16.8874C16.3652 16.8835 16.3648 16.8799 16.3644 16.8778C16.3642 16.8767 16.3631 16.8756 16.363 16.875L16.3637 16.8743C16.3658 16.8738 16.3878 16.8701 16.622 16.8329L16.363 16.8736L16.2553 16.1941L16.9355 16.3012Z" fill="#65D157" stroke="#111111"/>
<path d="M34.8552 34.7932C35.8421 33.8063 37.0823 33.0975 38.62 32.5849L38.9452 32.4916C40.5525 32.1028 41.9106 32.875 42.9828 34.1068C44.117 35.4101 45.0174 37.3091 45.7138 39.2174C46.414 41.1361 46.9243 43.1118 47.2592 44.6036C47.427 45.3505 47.5511 45.9792 47.6335 46.4211C47.6747 46.642 47.7055 46.8165 47.726 46.9362C47.7363 46.996 47.7436 47.0422 47.7488 47.0736C47.7514 47.0894 47.7537 47.102 47.755 47.1102C47.7557 47.1141 47.7568 47.1171 47.7571 47.1192C47.7573 47.1203 47.757 47.1214 47.7571 47.122L47.7578 47.1227L47.2634 47.2014L47.7571 47.1234L47.8648 47.8028L47.1853 47.6951L47.184 47.6951L47.1819 47.6944C47.1797 47.6941 47.1762 47.6937 47.1722 47.6931C47.164 47.6917 47.1514 47.6894 47.1356 47.6868C47.1042 47.6816 47.0579 47.6743 46.9982 47.664C46.8784 47.6435 46.7039 47.6127 46.4831 47.5715C46.0412 47.4891 45.4132 47.3643 44.6663 47.1966C43.1745 46.8615 41.1988 46.3514 39.2801 45.6511C37.3718 44.9547 35.4728 44.0544 34.1695 42.9201C32.8557 41.7765 32.0638 40.3076 32.6468 38.558L32.8492 37.9952C33.3417 36.7142 33.9917 35.6568 34.8552 34.7932Z" fill="#65D157" stroke="#111111"/>
<rect x="21.5" y="21.5" width="21" height="21" rx="10.5" fill="#FBF8EF" stroke="#111111"/>
<rect x="24.5" y="24.5" width="15" height="15" rx="7.5" fill="#65D157" stroke="#111111"/>
<path d="M61 53V61H53L61 53Z" fill="#FBF8EF"/>
<path d="M53 3H61V11L53 3Z" fill="#FBF8EF"/>
<path d="M11 3H3V11L11 3Z" fill="#FBF8EF"/>
<path d="M11 61H3V53L11 61Z" fill="#FBF8EF"/>
</g>
<defs>
<clipPath id="clip0_2741_1891">
<rect width="64" height="64" fill="white"/>
</clipPath>
</defs>
</svg>
