<svg width="64" height="64" viewBox="0 0 64 64" fill="none" xmlns="http://www.w3.org/2000/svg">
<g clip-path="url(#clip0_2741_2427)">
<rect width="64" height="64" fill="#FBF8EF"/>
<rect x="-21.8304" y="32" width="76.1911" height="76.1911" transform="rotate(-45 -21.8304 32)" fill="#FBF8EF"/>
<rect x="-21.8304" y="32" width="76.1911" height="76.1911" transform="rotate(-45 -21.8304 32)" stroke="#65D157" stroke-width="4"/>
<rect width="62.9413" height="62.9413" transform="translate(-13.0005 32) rotate(-45)" fill="#65D157"/>
<rect width="56" height="56" transform="translate(-8 32) rotate(-45)" fill="#FBF8EF"/>
<path d="M32 24L32.7909 29.0484L36 25.0718L34.1607 29.8393L38.9282 28L34.9516 31.2091L40 32L34.9516 32.7909L38.9282 36L34.1607 34.1607L36 38.9282L32.7909 34.9516L32 40L31.2091 34.9516L28 38.9282L29.8393 34.1607L25.0718 36L29.0484 32.7909L24 32L29.0484 31.2091L25.0718 28L29.8393 29.8393L28 25.0718L31.2091 29.0484L32 24Z" fill="#FBF8EF"/>
<path d="M53.0566 31.9941C53.0566 32.7349 53.0558 33.2548 53.0176 33.6533C52.9893 33.9483 52.9426 34.1425 52.8789 34.2852L52.8096 34.4121C52.6665 34.6297 52.47 34.8059 52.2393 34.9238L52.1387 34.9707C51.9713 35.0411 51.7478 35.0716 51.3545 35.0371C51.155 35.0196 50.9271 34.9872 50.6582 34.9424L49.7158 34.7725C47.0397 34.2765 45.0594 33.9091 43.6904 33.5566C43.0056 33.3803 42.4993 33.214 42.1455 33.0479C41.8694 32.9181 41.7311 32.8093 41.665 32.7344L41.6201 32.6709C41.4325 32.2992 41.4092 31.8689 41.5498 31.4824L41.6201 31.3193C41.6543 31.2517 41.7765 31.1155 42.1445 30.9424C42.4982 30.7761 43.0046 30.6092 43.6895 30.4326C45.0583 30.0797 47.0389 29.7117 49.7148 29.2148C50.4432 29.0796 50.9547 28.9853 51.3535 28.9502C51.6484 28.9242 51.8481 28.9342 52 28.9707L52.1377 29.0156C52.4119 29.131 52.646 29.3257 52.8096 29.5742C52.9094 29.726 52.9798 29.9407 53.0176 30.334C53.0558 30.7326 53.0566 31.253 53.0566 31.9941Z" fill="#65D157" stroke="#111111"/>
<path d="M22.4272 31.3193C22.6165 31.6925 22.6405 32.1247 22.4985 32.5127L22.4272 32.6758C22.393 32.7433 22.2713 32.8795 21.9058 33.0518C21.5546 33.2172 21.052 33.3828 20.3726 33.5586C19.0145 33.91 17.0503 34.2773 14.396 34.7725C13.6691 34.9081 13.1583 35.0026 12.7603 35.0381C12.4655 35.0643 12.2664 35.0538 12.1147 35.0176L11.978 34.9736C11.7362 34.8725 11.5255 34.7098 11.3667 34.5029L11.3022 34.4121C11.2029 34.2606 11.1328 34.0467 11.0952 33.6543C11.0571 33.2564 11.0562 32.7368 11.0562 31.9971C11.0562 31.2573 11.0571 30.7378 11.0952 30.3398C11.1235 30.0454 11.1695 29.8514 11.2329 29.709L11.3022 29.582C11.4459 29.3631 11.6442 29.1865 11.8765 29.0684L11.978 29.0205C12.1451 28.9508 12.3681 28.9211 12.7603 28.9561C13.1585 28.9916 13.6697 29.0869 14.397 29.2227C17.0511 29.718 19.0146 30.085 20.3726 30.4365C21.052 30.6124 21.5546 30.7779 21.9058 30.9434C22.18 31.0726 22.3175 31.1812 22.3833 31.2559L22.4272 31.3193Z" fill="#65D157" stroke="#111111"/>
<path d="M32.0493 11.002C32.7913 11.002 33.3122 11.0027 33.7114 11.041C34.0068 11.0694 34.2015 11.116 34.3442 11.1797L34.4722 11.249C34.6907 11.3929 34.8671 11.5911 34.9849 11.8232L35.0317 11.9248C35.1016 12.0924 35.1312 12.3161 35.0952 12.71C35.0769 12.9098 35.0435 13.138 34.9976 13.4072L34.8237 14.3516C34.32 17.0148 33.9474 18.9854 33.5913 20.3477C33.4132 21.0291 33.2455 21.5328 33.0786 21.8848C32.9486 22.1589 32.8392 22.2964 32.7642 22.3623L32.7007 22.4072C32.3274 22.5947 31.8953 22.6173 31.5083 22.4746L31.3462 22.4033C31.2787 22.3689 31.1428 22.2463 30.9712 21.8789C30.8064 21.526 30.6414 21.0206 30.4673 20.3379C30.1193 18.9736 29.7588 17.0009 29.271 14.335C29.1381 13.6088 29.0453 13.0987 29.0112 12.7012C28.9861 12.4072 28.9961 12.208 29.0327 12.0566L29.0776 11.9189C29.179 11.6786 29.3414 11.4695 29.5474 11.3115L29.6382 11.2471C29.7897 11.1479 30.0034 11.0786 30.395 11.041C30.7923 11.0029 31.3109 11.002 32.0493 11.002Z" fill="#65D157" stroke="#111111"/>
<path d="M31.3486 41.5967C31.7207 41.4071 32.1523 41.3831 32.54 41.5234L32.7031 41.5937C32.7708 41.6278 32.9074 41.7489 33.0811 42.1152C33.2479 42.4672 33.4157 42.9716 33.5937 43.6533C33.9496 45.0156 34.3219 46.9862 34.8252 49.6494C34.963 50.3787 35.0592 50.8907 35.0957 51.29C35.1227 51.5855 35.1132 51.7854 35.0771 51.9375L35.0322 52.0752C34.9315 52.3168 34.7698 52.5276 34.5635 52.6865L34.4727 52.751C34.3209 52.8508 34.1066 52.9212 33.7129 52.959C33.3136 52.9973 32.7921 52.998 32.0498 52.998C31.3114 52.998 30.7928 52.998 30.3955 52.96C30.1015 52.9318 29.908 52.8847 29.7656 52.8213L29.6387 52.7529C29.4205 52.6099 29.2442 52.4127 29.126 52.1816L29.0791 52.0811C29.0087 51.9141 28.9781 51.691 29.0117 51.2988C29.0459 50.9012 29.1385 50.3913 29.2715 49.665C29.7598 46.999 30.1215 45.0264 30.4697 43.6621C30.644 42.9794 30.8087 42.474 30.9736 42.1211C31.1026 41.8452 31.2115 41.7076 31.2861 41.6416L31.3486 41.5967Z" fill="#65D157" stroke="#111111"/>
<path d="M46.9042 17.1465C47.4291 17.6713 47.7974 18.0407 48.0526 18.3501C48.2414 18.5791 48.3461 18.7495 48.402 18.8956L48.4427 19.0344C48.4954 19.2899 48.4802 19.554 48.3999 19.8009L48.3612 19.9058C48.2923 20.074 48.1553 20.2531 47.8516 20.5066C47.6976 20.6352 47.5135 20.7738 47.2909 20.932L46.5009 21.4775C44.2572 23.0118 42.5967 24.1468 41.3792 24.8618C40.7702 25.2195 40.2946 25.4587 39.9271 25.5903C39.5446 25.7272 39.3617 25.717 39.2897 25.6932C38.8938 25.5621 38.5726 25.2735 38.3996 24.8998L38.3354 24.7347C38.3119 24.6628 38.3018 24.4802 38.4403 24.0981C38.5735 23.731 38.8147 23.2558 39.1751 22.648C39.8951 21.4335 41.0374 19.7781 42.5808 17.5408C43.0005 16.9322 43.2951 16.5048 43.5524 16.1991C43.8061 15.8975 43.9858 15.7612 44.1538 15.6929C44.4293 15.5809 44.7319 15.5531 45.0232 15.6135C45.2007 15.6503 45.4016 15.7523 45.7054 16.0029C46.0136 16.2572 46.3814 16.6237 46.9042 17.1465Z" fill="#65D157" stroke="#111111"/>
<path d="M24.7637 38.306C25.1611 38.4353 25.4839 38.7235 25.6586 39.0974L25.7249 39.2631C25.7486 39.3351 25.7579 39.5172 25.622 39.8977C25.4913 40.2636 25.2537 40.7375 24.8983 41.3437C24.1881 42.555 23.0615 44.2071 21.5375 46.4391C21.1197 47.0511 20.825 47.48 20.5687 47.7878C20.3788 48.0157 20.2307 48.1505 20.0977 48.2325L19.9693 48.2987C19.7271 48.3984 19.4634 48.4325 19.2049 48.3989L19.0937 48.3802C18.9162 48.3434 18.7153 48.2413 18.4108 47.9901C18.1018 47.7352 17.7333 47.3678 17.2092 46.8438C16.6871 46.3216 16.3211 45.9542 16.0671 45.6464C15.8793 45.4188 15.775 45.249 15.7191 45.1036L15.6769 44.9648C15.6236 44.7088 15.6388 44.4439 15.7191 44.1963L15.757 44.092C15.8255 43.9244 15.9618 43.7451 16.2632 43.4919C16.5689 43.2353 16.996 42.9413 17.6042 42.5224C19.8304 40.9894 21.4773 39.8546 22.6859 39.1395C23.2904 38.7818 23.7631 38.5432 24.1284 38.411C24.4135 38.3079 24.5876 38.2869 24.687 38.2929L24.7637 38.306Z" fill="#65D157" stroke="#111111"/>
<path d="M17.2031 17.1534C17.7273 16.6292 18.0963 16.2614 18.4053 16.0064C18.6338 15.8179 18.8037 15.7129 18.9495 15.657L19.0883 15.6163C19.3816 15.5556 19.6869 15.5838 19.9639 15.6978C20.1316 15.7668 20.3098 15.9047 20.5626 16.2081C20.6908 16.362 20.8288 16.5464 20.9865 16.7688L21.5314 17.5581C23.0557 19.7908 24.184 21.4426 24.8943 22.6542C25.2497 23.2605 25.4872 23.7342 25.618 24.1002C25.7201 24.3861 25.7391 24.5602 25.7326 24.6595L25.7195 24.7348C25.5886 25.132 25.2989 25.4537 24.924 25.627L24.7589 25.6926C24.6869 25.716 24.504 25.7252 24.1236 25.5876C23.7582 25.4553 23.2859 25.2156 22.6811 24.8577C21.4724 24.1424 19.8246 23.0084 17.5981 21.4748C16.9899 21.0559 16.5634 20.7613 16.2578 20.5046C16.0317 20.3147 15.8986 20.1665 15.8172 20.0336L15.7516 19.9045C15.6528 19.6624 15.6188 19.3994 15.6529 19.1415L15.6715 19.0317C15.7084 18.8545 15.8106 18.6543 16.061 18.3508C16.315 18.043 16.681 17.6755 17.2031 17.1534Z" fill="#65D157" stroke="#111111"/>
<path d="M38.3314 39.2626C38.4609 38.8668 38.7483 38.5457 39.1207 38.3711L39.2851 38.3049C39.3569 38.2811 39.5398 38.2709 39.9224 38.4077C40.2902 38.5393 40.7666 38.7785 41.376 39.1363C42.5941 39.8514 44.2561 40.9865 46.5012 42.5213C47.1141 42.9402 47.5438 43.2351 47.8518 43.4921C48.0797 43.6823 48.2139 43.8306 48.2958 43.9638L48.3615 44.0929C48.4604 44.3344 48.4949 44.597 48.4616 44.8546L48.4429 44.9644C48.4063 45.1424 48.3039 45.3441 48.0521 45.6494C47.7969 45.9587 47.4291 46.3276 46.9044 46.8523C46.3817 47.375 46.0145 47.7422 45.7063 47.9965C45.4783 48.1846 45.3078 48.2886 45.1622 48.3445L45.0234 48.3853C44.7687 48.4381 44.5054 48.4239 44.259 48.3445L44.154 48.3072C43.986 48.239 43.8071 48.1019 43.5533 47.8004C43.4246 47.6476 43.2863 47.4647 43.1279 47.2438L42.5803 46.4601C41.0357 44.2221 39.8932 42.5656 39.1725 41.3508C38.8119 40.7428 38.5704 40.2672 38.4371 39.9C38.2984 39.5178 38.308 39.3346 38.3314 39.2626Z" fill="#65D157" stroke="#111111"/>
<rect x="24.5" y="24.5" width="15" height="15" rx="7.5" fill="#FBF8EF" stroke="#111111"/>
<rect x="49.5" y="22.5" width="3" height="3" rx="1.5" fill="#FBF8EF" stroke="#111111"/>
<rect x="49.5" y="38.5" width="3" height="3" rx="1.5" fill="#FBF8EF" stroke="#111111"/>
<rect x="38.5" y="49.5" width="3" height="3" rx="1.5" fill="#FBF8EF" stroke="#111111"/>
<rect x="22.5" y="49.5" width="3" height="3" rx="1.5" fill="#FBF8EF" stroke="#111111"/>
<rect x="11.5" y="38.5" width="3" height="3" rx="1.5" fill="#FBF8EF" stroke="#111111"/>
<rect x="11.5" y="22.5" width="3" height="3" rx="1.5" fill="#FBF8EF" stroke="#111111"/>
<rect x="21.5" y="11.5" width="3" height="3" rx="1.5" fill="#FBF8EF" stroke="#111111"/>
<rect x="38.5" y="11.5" width="3" height="3" rx="1.5" fill="#FBF8EF" stroke="#111111"/>
</g>
<defs>
<clipPath id="clip0_2741_2427">
<rect width="64" height="64" fill="white"/>
</clipPath>
</defs>
</svg>
