<svg width="64" height="64" viewBox="0 0 64 64" fill="none" xmlns="http://www.w3.org/2000/svg">
<g clip-path="url(#clip0_2741_2008)">
<rect width="64" height="64" fill="#FBF8EF"/>
<rect width="45.2548" height="45.2548" transform="translate(0 32) rotate(-45)" fill="#F8A300"/>
<path d="M32 11.5C32.7866 11.5 33.4378 11.7537 33.9482 12.2139C34.4482 12.6646 34.7826 13.2855 35.0049 13.9756C35.4466 15.3467 35.487 17.1281 35.3643 18.8477C35.3428 19.1477 35.3138 19.4477 35.2832 19.7451C35.4055 19.4722 35.5316 19.1983 35.6631 18.9277C36.4165 17.3772 37.3421 15.8542 38.4102 14.8877C38.9477 14.4013 39.5477 14.0309 40.2061 13.8906C40.8781 13.7474 41.5688 13.8528 42.25 14.2461C42.9313 14.6394 43.3681 15.1852 43.5801 15.8389C43.7877 16.4791 43.7667 17.1839 43.6143 17.8926C43.3112 19.301 42.4554 20.8642 41.4893 22.292C41.3207 22.5411 41.1458 22.7861 40.9707 23.0283C41.213 22.8531 41.4589 22.6793 41.708 22.5107C43.1358 21.5446 44.699 20.6888 46.1074 20.3857C46.8161 20.2333 47.5209 20.2123 48.1611 20.4199C48.8148 20.6319 49.3606 21.0687 49.7539 21.75L49.8877 22.0059C50.1694 22.6036 50.2347 23.2059 50.1094 23.7939C49.969 24.4522 49.5987 25.0523 49.1123 25.5898C48.1458 26.6579 46.6228 27.5835 45.0723 28.3369C44.8015 28.4685 44.5269 28.5935 44.2539 28.7158C44.5516 28.6852 44.852 28.6572 45.1523 28.6357C46.8718 28.513 48.6533 28.5534 50.0244 28.9951C50.7145 29.2174 51.3354 29.5518 51.7861 30.0518C52.2463 30.5622 52.5 31.2133 52.5 32C52.5 32.7866 52.2463 33.4378 51.7861 33.9482C51.3354 34.4482 50.7145 34.7826 50.0244 35.0049C48.6533 35.4466 46.8718 35.487 45.1523 35.3643C44.852 35.3428 44.5516 35.3138 44.2539 35.2832C44.5271 35.4056 44.8014 35.5315 45.0723 35.6631C46.6228 36.4165 48.1458 37.3421 49.1123 38.4102C49.5987 38.9477 49.969 39.5477 50.1094 40.2061C50.2347 40.7941 50.1694 41.3964 49.8877 41.9941L49.7539 42.25C49.3606 42.9313 48.8148 43.3681 48.1611 43.5801C47.5209 43.7877 46.8161 43.7667 46.1074 43.6143C44.699 43.3112 43.1358 42.4554 41.708 41.4893C41.4587 41.3206 41.2131 41.146 40.9707 40.9707C41.146 41.2131 41.3206 41.4587 41.4893 41.708C42.4554 43.1358 43.3112 44.699 43.6143 46.1074C43.7667 46.8161 43.7877 47.5209 43.5801 48.1611C43.3946 48.733 43.0369 49.2218 42.4941 49.5986L42.25 49.7539C41.5688 50.1471 40.8781 50.2526 40.2061 50.1094C39.5477 49.969 38.9477 49.5987 38.4102 49.1123C37.3421 48.1458 36.4165 46.6228 35.6631 45.0723C35.5315 44.8014 35.4056 44.5271 35.2832 44.2539C35.3138 44.5516 35.3428 44.852 35.3643 45.1523C35.487 46.8718 35.4466 48.6533 35.0049 50.0244C34.7826 50.7145 34.4482 51.3354 33.9482 51.7861C33.4378 52.2463 32.7866 52.5 32 52.5C31.2133 52.5 30.5622 52.2463 30.0518 51.7861C29.5518 51.3354 29.2174 50.7145 28.9951 50.0244C28.5534 48.6533 28.513 46.8718 28.6357 45.1523C28.6572 44.852 28.6852 44.5516 28.7158 44.2539C28.5935 44.5269 28.4685 44.8015 28.3369 45.0723C27.5835 46.6228 26.6579 48.1458 25.5898 49.1123C25.0523 49.5987 24.4522 49.969 23.7939 50.1094C23.2059 50.2347 22.6036 50.1694 22.0059 49.8877L21.75 49.7539C21.0687 49.3606 20.6319 48.8148 20.4199 48.1611C20.2123 47.5209 20.2333 46.8161 20.3857 46.1074C20.6888 44.699 21.5446 43.1358 22.5107 41.708C22.6793 41.4589 22.8531 41.213 23.0283 40.9707C22.7861 41.1458 22.5411 41.3207 22.292 41.4893C20.8642 42.4554 19.301 43.3112 17.8926 43.6143C17.1839 43.7667 16.4791 43.7877 15.8389 43.5801C15.1852 43.3681 14.6394 42.9313 14.2461 42.25C13.8528 41.5688 13.7474 40.8781 13.8906 40.2061C14.0309 39.5477 14.4013 38.9477 14.8877 38.4102C15.8542 37.3421 17.3772 36.4165 18.9277 35.6631C19.1983 35.5316 19.4722 35.4055 19.7451 35.2832C19.4477 35.3138 19.1477 35.3428 18.8477 35.3643C17.1281 35.487 15.3467 35.4466 13.9756 35.0049C13.2855 34.7826 12.6646 34.4482 12.2139 33.9482C11.7537 33.4378 11.5 32.7866 11.5 32C11.5 31.2133 11.7537 30.5622 12.2139 30.0518C12.6646 29.5518 13.2855 29.2174 13.9756 28.9951C15.3467 28.5534 17.1281 28.513 18.8477 28.6357C19.1477 28.6572 19.4477 28.6853 19.7451 28.7158C19.4724 28.5936 19.1982 28.4683 18.9277 28.3369C17.3772 27.5835 15.8542 26.6579 14.8877 25.5898C14.4013 25.0523 14.0309 24.4522 13.8906 23.7939C13.7474 23.1219 13.8528 22.4312 14.2461 21.75C14.6394 21.0687 15.1852 20.6319 15.8389 20.4199C16.4791 20.2123 17.1839 20.2333 17.8926 20.3857C19.301 20.6888 20.8642 21.5446 22.292 22.5107C22.5409 22.6792 22.7862 22.8533 23.0283 23.0283C22.8533 22.7862 22.6792 22.5409 22.5107 22.292C21.5446 20.8642 20.6888 19.301 20.3857 17.8926C20.2333 17.1839 20.2123 16.4791 20.4199 15.8389C20.6319 15.1852 21.0687 14.6394 21.75 14.2461C22.4312 13.8528 23.1219 13.7474 23.7939 13.8906C24.4522 14.0309 25.0523 14.4013 25.5898 14.8877C26.6579 15.8542 27.5835 17.3772 28.3369 18.9277C28.4683 19.1982 28.5936 19.4724 28.7158 19.7451C28.6853 19.4477 28.6572 19.1477 28.6357 18.8477C28.513 17.1281 28.5534 15.3467 28.9951 13.9756C29.2174 13.2855 29.5518 12.6646 30.0518 12.2139C30.5622 11.7537 31.2133 11.5 32 11.5Z" fill="#FBF8EF" stroke="#111111"/>
<path d="M32.3223 29.875L32.3535 30.6816L32.7832 29.999L37.249 22.9082L33.3418 30.3203L32.9648 31.0352L33.6797 30.6582L41.0908 26.75L34.001 31.2168L33.3184 31.6465L34.125 31.6777L42.4961 32L34.125 32.3223L33.3184 32.3535L34.001 32.7832L41.0908 37.249L33.6797 33.3418L32.9648 32.9648L33.3418 33.6797L37.249 41.0908L32.7832 34.001L32.3535 33.3184L32.3223 34.125L32 42.4961L31.6777 34.125L31.6465 33.3184L31.2168 34.001L26.75 41.0908L30.6582 33.6797L31.0352 32.9648L30.3203 33.3418L22.9082 37.249L29.999 32.7832L30.6816 32.3535L29.875 32.3223L21.5029 32L29.875 31.6777L30.6816 31.6465L29.999 31.2168L22.9082 26.75L30.3203 30.6582L31.0352 31.0352L30.6582 30.3203L26.75 22.9082L31.2168 29.999L31.6465 30.6816L31.6777 29.875L32 21.5029L32.3223 29.875Z" stroke="#111111" stroke-width="0.5"/>
<rect x="27.5" y="27.5" width="9" height="9" rx="4.5" fill="#F8A300" stroke="#111111"/>
<path d="M61 45V61H45L61 45Z" fill="#F8A300"/>
<path d="M45 3H61V19L45 3Z" fill="#F8A300"/>
<path d="M19 3H3V19L19 3Z" fill="#F8A300"/>
<path d="M19 61H3V45L19 61Z" fill="#F8A300"/>
</g>
<defs>
<clipPath id="clip0_2741_2008">
<rect width="64" height="64" fill="white"/>
</clipPath>
</defs>
</svg>
