<svg width="64" height="64" viewBox="0 0 64 64" fill="none" xmlns="http://www.w3.org/2000/svg">
<g clip-path="url(#clip0_379_2725)">
<rect width="64" height="64" fill="#FBF8EF"/>
<path d="M2.73224 53.3015C2.73224 53.3015 19.719 53.2575 13.336 45.0526C7.4696 37.5116 2.73224 53.3015 2.73224 53.3015Z" fill="#7ECEA6"/>
<path fill-rule="evenodd" clip-rule="evenodd" d="M13.4135 45.148C13.3588 45.0749 3.75241 52.7132 3.75241 52.7132C3.75241 52.7132 13.8923 45.8264 13.7622 45.6326C13.6321 45.4388 13.498 45.261 13.4135 45.148Z" fill="#111111"/>
<path d="M7.11834 61.1154C7.11834 61.1154 9.29519 41.14 18.1478 49.6745C26.2841 57.5183 7.11834 61.1154 7.11834 61.1154Z" fill="#7ECEA6"/>
<path fill-rule="evenodd" clip-rule="evenodd" d="M18.0468 49.5722C18.1259 49.6457 7.93949 59.9897 7.93949 59.9897C7.93949 59.9897 17.3087 48.9241 17.5203 49.1014C17.732 49.2787 17.9244 49.4587 18.0468 49.5722Z" fill="#111111"/>
<path d="M55.8393 61.3603C55.8393 61.3603 36.0616 57.8111 45.1862 49.5681C53.5725 41.9921 55.8393 61.3603 55.8393 61.3603Z" fill="#7ECEA6"/>
<path fill-rule="evenodd" clip-rule="evenodd" d="M45.0799 49.6634C45.1587 49.5895 54.7756 60.465 54.7756 60.465C54.7756 60.465 44.3825 50.3551 44.5739 50.1561C44.7654 49.9572 44.9582 49.7776 45.0799 49.6634Z" fill="#111111"/>
<path d="M8.81309 2.67812C8.81309 2.67812 28.5435 6.48128 19.3137 14.6063C10.8307 22.0738 8.81309 2.67812 8.81309 2.67812Z" fill="#7ECEA6"/>
<path fill-rule="evenodd" clip-rule="evenodd" d="M19.4253 14.5124C19.3456 14.5853 9.86925 3.58701 9.86925 3.58701C9.86925 3.58701 20.1316 13.8297 19.9376 14.0262C19.7436 14.2227 19.5485 14.3997 19.4253 14.5124Z" fill="#111111"/>
<path d="M56.0324 2.16388C56.0324 2.16388 55.6628 22.2541 46.0778 14.5513C37.2683 7.4718 56.0324 2.16388 56.0324 2.16388Z" fill="#7ECEA6"/>
<path fill-rule="evenodd" clip-rule="evenodd" d="M46.1899 14.6439C46.1044 14.5778 55.3182 3.35873 55.3182 3.35873C55.3182 3.35873 46.9833 15.2229 46.7566 15.0654C46.5298 14.9079 46.3219 14.746 46.1899 14.6439Z" fill="#111111"/>
<path d="M4.01976 12.8993C4.01976 12.8993 20.8461 10.57 15.6719 19.5861C10.9164 27.8727 4.01976 12.8993 4.01976 12.8993Z" fill="#7ECEA6"/>
<path fill-rule="evenodd" clip-rule="evenodd" d="M15.7364 19.481C15.6924 19.561 5.11326 13.3395 5.11326 13.3395C5.11326 13.3395 16.1157 18.7423 16.014 18.9524C15.9122 19.1624 15.8043 19.3573 15.7364 19.481Z" fill="#111111"/>
<path d="M61.8631 11.8993C61.8631 11.8993 45.0367 9.57004 50.2109 18.5861C54.9664 26.8727 61.8631 11.8993 61.8631 11.8993Z" fill="#7ECEA6"/>
<path fill-rule="evenodd" clip-rule="evenodd" d="M50.1465 18.481C50.1904 18.561 60.7695 12.3395 60.7695 12.3395C60.7695 12.3395 49.7671 17.7423 49.8688 17.9524C49.9706 18.1624 50.0785 18.3573 50.1465 18.481Z" fill="#111111"/>
<path d="M60.3576 53.0575C60.3576 53.0575 43.3709 53.0135 49.7538 44.8086C55.6202 37.2676 60.3576 53.0575 60.3576 53.0575Z" fill="#7ECEA6"/>
<path fill-rule="evenodd" clip-rule="evenodd" d="M49.6764 44.904C49.7311 44.8309 59.3374 52.4692 59.3374 52.4692C59.3374 52.4692 49.1976 45.5825 49.3277 45.3887C49.4578 45.1949 49.5919 45.017 49.6764 44.904Z" fill="#111111"/>
<path d="M42.0424 21.9576C43.0433 20.7279 44.2235 19.1755 45.2608 17.5377C46.4481 15.6629 47.4629 13.6534 47.7918 11.8773C47.9567 10.9869 47.9524 10.1386 47.6966 9.3901C47.4388 8.63541 46.9312 8.00023 46.125 7.53478C45.3271 7.07414 44.614 6.96641 43.9766 7.18426C43.3496 7.39856 42.8489 7.9106 42.4305 8.57347C41.6137 9.86753 41.0283 11.8742 40.44 13.891L40.4057 14.0086C39.7985 16.0895 39.1809 18.1781 38.3043 19.6375C37.8677 20.3644 37.3793 20.913 36.8171 21.2292C36.2633 21.5406 35.6176 21.6382 34.8328 21.4279C34.0479 21.2176 33.5376 20.8102 33.2137 20.2637C32.8848 19.7087 32.7362 18.9895 32.7215 18.1416C32.6921 16.4394 33.2015 14.3218 33.7161 12.2161L33.7452 12.0972C34.2442 10.0563 34.7406 8.02588 34.6802 6.49677C34.6492 5.71349 34.4717 5.01974 34.0358 4.52064C33.5928 4.01328 32.9213 3.75 32 3.75C31.0691 3.75 30.3119 4.0463 29.7113 4.57094C29.1155 5.09132 28.6877 5.82383 28.3853 6.67735C27.782 8.37995 27.6561 10.6276 27.747 12.8449C27.8264 14.7819 28.0723 16.7164 28.3242 18.2818C27.7597 16.8002 27.0054 15.0019 26.1057 13.2847C25.0757 11.319 23.8428 9.43545 22.4691 8.26257C21.7805 7.67461 21.0437 7.25416 20.2676 7.10138C19.485 6.94735 18.6812 7.06934 17.875 7.53478C17.0771 7.99543 16.6273 8.55917 16.4972 9.2201C16.3693 9.87026 16.5624 10.5598 16.9273 11.2536C17.6395 12.6081 19.0847 14.1183 20.5372 15.6362C20.5654 15.6657 20.5936 15.6952 20.6219 15.7247C22.1204 17.291 23.6203 18.8702 24.4459 20.359C24.8572 21.1006 25.0881 21.7979 25.0807 22.4429C25.0735 23.0782 24.8352 23.6861 24.2607 24.2607C23.6861 24.8352 23.0782 25.0735 22.4429 25.0807C21.7979 25.0881 21.1006 24.8572 20.359 24.4459C18.8702 23.6203 17.291 22.1204 15.7247 20.6219C15.6952 20.5936 15.6657 20.5654 15.6362 20.5372C14.1183 19.0847 12.6081 17.6395 11.2536 16.9273C10.5598 16.5624 9.87026 16.3693 9.2201 16.4972C8.55917 16.6273 7.99543 17.0771 7.53478 17.875C7.06934 18.6812 6.94735 19.485 7.10138 20.2676C7.25416 21.0437 7.67461 21.7805 8.26257 22.4691C9.43545 23.8428 11.319 25.0757 13.2847 26.1057C15.0019 27.0054 16.8002 27.7597 18.2818 28.3242C16.7164 28.0723 14.7819 27.8264 12.8449 27.747C10.6276 27.6561 8.37995 27.782 6.67735 28.3853C5.82383 28.6877 5.09132 29.1155 4.57094 29.7113C4.0463 30.3119 3.75 31.0691 3.75 32C3.75 32.9213 4.01328 33.5928 4.52064 34.0358C5.01974 34.4717 5.71349 34.6492 6.49677 34.6802C8.02588 34.7406 10.0563 34.2442 12.0972 33.7452L12.2161 33.7161C14.3218 33.2015 16.4394 32.6921 18.1416 32.7215C18.9895 32.7362 19.7087 32.8848 20.2637 33.2137C20.8102 33.5376 21.2176 34.0479 21.4279 34.8328C21.6382 35.6176 21.5406 36.2633 21.2292 36.8171C20.913 37.3793 20.3644 37.8677 19.6375 38.3043C18.1781 39.1809 16.0895 39.7985 14.0086 40.4057L13.8911 40.44C11.8742 41.0283 9.86753 41.6137 8.57347 42.4305C7.9106 42.8489 7.39856 43.3496 7.18426 43.9766C6.96641 44.614 7.07414 45.3271 7.53478 46.125C8.00023 46.9312 8.63541 47.4388 9.3901 47.6966C10.1386 47.9524 10.9869 47.9567 11.8773 47.7918C13.6534 47.4629 15.6629 46.4481 17.5377 45.2608C19.1755 44.2235 20.7279 43.0433 21.9576 42.0424C20.9567 43.2721 19.7765 44.8245 18.7392 46.4623C17.5519 48.3371 16.5371 50.3466 16.2082 52.1227C16.0434 53.0131 16.0476 53.8614 16.3034 54.6099C16.5612 55.3646 17.0688 55.9998 17.875 56.4652C18.6729 56.9259 19.386 57.0336 20.0234 56.8157C20.6504 56.6014 21.1511 56.0894 21.5695 55.4265C22.3863 54.1325 22.9717 52.1258 23.56 50.109L23.5943 49.9914C24.2015 47.9105 24.8191 45.8219 25.6957 44.3625C26.1323 43.6356 26.6207 43.087 27.1829 42.7708C27.7367 42.4594 28.3824 42.3618 29.1672 42.5721C29.9521 42.7824 30.4624 43.1898 30.7863 43.7363C31.1151 44.2913 31.2638 45.0105 31.2785 45.8584C31.3079 47.5606 30.7985 49.6782 30.2839 51.7839L30.2548 51.9028C29.7558 53.9437 29.2594 55.9741 29.3198 57.5032C29.3508 58.2865 29.5283 58.9803 29.9642 59.4794C30.4072 59.9867 31.0787 60.25 32 60.25C32.9309 60.25 33.6881 59.9537 34.2887 59.4291C34.8845 58.9087 35.3123 58.1762 35.6147 57.3227C36.218 55.6201 36.3439 53.3724 36.253 51.1551C36.1736 49.2181 35.9277 47.2836 35.6758 45.7182C36.2403 47.1998 36.9946 48.9981 37.8943 50.7153C38.9243 52.681 40.1572 54.5646 41.5309 55.7374C42.2195 56.3254 42.9563 56.7458 43.7324 56.8986C44.515 57.0526 45.3188 56.9307 46.125 56.4652C46.9229 56.0046 47.3727 55.4408 47.5028 54.7799C47.6307 54.1297 47.4376 53.4402 47.0727 52.7464C46.3604 51.3919 44.9153 49.8817 43.4628 48.3637L43.3781 48.2753C41.8796 46.709 40.3797 45.1298 39.5541 43.641C39.1428 42.8994 38.9119 42.2021 38.9193 41.5571C38.9265 40.9218 39.1648 40.3139 39.7393 39.7393C40.3139 39.1648 40.9218 38.9265 41.5571 38.9193C42.2021 38.9119 42.8994 39.1428 43.641 39.5541C45.1298 40.3797 46.709 41.8796 48.2753 43.3781L48.3637 43.4628C49.8817 44.9153 51.3919 46.3604 52.7464 47.0727C53.4402 47.4376 54.1297 47.6307 54.7799 47.5028C55.4408 47.3727 56.0046 46.9229 56.4652 46.125C56.9307 45.3188 57.0526 44.515 56.8986 43.7324C56.7458 42.9563 56.3254 42.2195 55.7374 41.5309C54.5646 40.1572 52.681 38.9243 50.7153 37.8943C48.9981 36.9946 47.1998 36.2403 45.7182 35.6758C47.2836 35.9277 49.2181 36.1736 51.1551 36.253C53.3724 36.3439 55.6201 36.218 57.3227 35.6147C58.1762 35.3123 58.9087 34.8845 59.4291 34.2887C59.9537 33.6881 60.25 32.9309 60.25 32C60.25 31.0787 59.9867 30.4072 59.4794 29.9642C58.9803 29.5283 58.2865 29.3508 57.5032 29.3198C55.9741 29.2594 53.9437 29.7558 51.9028 30.2548L51.7839 30.2839C49.6782 30.7985 47.5606 31.3079 45.8584 31.2785C45.0105 31.2638 44.2913 31.1151 43.7363 30.7863C43.1898 30.4624 42.7824 29.9521 42.5721 29.1672C42.3618 28.3824 42.4594 27.7367 42.7708 27.1829C43.087 26.6207 43.6356 26.1323 44.3625 25.6957C45.8219 24.8191 47.9105 24.2015 49.9914 23.5943L50.109 23.56C52.1258 22.9717 54.1325 22.3863 55.4265 21.5695C56.0894 21.1511 56.6014 20.6504 56.8157 20.0234C57.0336 19.386 56.9259 18.6729 56.4652 17.875C55.9998 17.0688 55.3646 16.5612 54.6099 16.3034C53.8614 16.0476 53.0131 16.0434 52.1227 16.2082C50.3466 16.5371 48.3371 17.5519 46.4623 18.7392C44.8245 19.7765 43.2721 20.9567 42.0424 21.9576Z" fill="#FBF8EF" stroke="#111111" stroke-width="0.5"/>
<path d="M44.5585 25.3711C45.8778 24.4918 47.4638 23.3572 48.9385 22.0987C50.6266 20.6581 52.1895 19.038 53.0282 17.4382C53.4486 16.6362 53.695 15.8245 53.6717 15.0338C53.6482 14.2366 53.3509 13.4799 52.7181 12.7971C52.0919 12.1214 51.4423 11.8079 50.769 11.8278C50.1067 11.8474 49.4772 12.1887 48.8817 12.6985C47.7191 13.6936 46.5673 15.4379 45.4096 17.1911L45.3421 17.2933C44.1475 19.102 42.9406 20.9151 41.6722 22.0506C41.0404 22.6162 40.4118 22.9961 39.7812 23.1321C39.1602 23.2661 38.5145 23.1686 37.8268 22.736C37.139 22.3033 36.7717 21.7633 36.6237 21.1455C36.4734 20.5182 36.5438 19.7871 36.7801 18.9727C37.2547 17.3378 38.3667 15.4651 39.4802 13.6053L39.5431 13.5002C40.6225 11.6977 41.6964 9.9044 42.0902 8.42565C42.292 7.66818 42.3272 6.95293 42.0582 6.34738C41.7847 5.7318 41.2209 5.28198 40.3407 5.00991C39.4513 4.73501 38.6404 4.7945 37.9116 5.11837C37.1888 5.43961 36.5637 6.0131 36.0227 6.73925C34.9436 8.18778 34.1596 10.298 33.5916 12.4433C33.0954 14.3173 32.7591 16.2382 32.5375 17.8081C32.4357 16.2259 32.2461 14.285 31.8936 12.3788C31.49 10.1965 30.8684 8.03294 29.9023 6.5067C29.418 5.7416 28.8382 5.12232 28.1418 4.74716C27.4397 4.36892 26.6357 4.24807 25.728 4.45469C24.8297 4.65918 24.2334 5.06493 23.914 5.65798C23.5998 6.24137 23.5806 6.95723 23.7243 7.72782C24.0049 9.2322 24.9395 11.1018 25.879 12.981C25.8973 13.0175 25.9155 13.054 25.9338 13.0906C26.9029 15.0295 27.8696 16.9812 28.2188 18.6474C28.3927 19.4774 28.4074 20.2118 28.2099 20.8259C28.0154 21.4306 27.6082 21.9411 26.8896 22.3204C26.171 22.6996 25.5198 22.7478 24.9107 22.5671C24.2923 22.3836 23.6944 21.9571 23.1073 21.3452C21.9287 20.1167 20.8628 18.2173 19.8089 16.3231C19.7891 16.2874 19.7692 16.2518 19.7494 16.2161C18.7281 14.3801 17.7119 12.5534 16.6282 11.473C16.0731 10.9195 15.4713 10.5314 14.8124 10.4616C14.1425 10.3906 13.4711 10.654 12.7954 11.2802C12.1126 11.913 11.7587 12.645 11.6748 13.4381C11.5915 14.2247 11.7757 15.0528 12.134 15.8844C12.8489 17.5432 14.2844 19.2773 15.8583 20.8418C17.2332 22.2085 18.7286 23.4602 19.9774 24.4371C18.5562 23.7342 16.7806 22.9279 14.9534 22.2801C12.8618 21.5384 10.6772 20.995 8.87243 21.0685C7.96768 21.1054 7.14149 21.2979 6.46838 21.7134C5.78975 22.1323 5.28307 22.7682 5.00818 23.6576C4.73611 24.5378 4.78936 25.2571 5.14325 25.8302C5.49137 26.394 6.10176 26.7685 6.84097 27.0294C8.28406 27.5386 10.3706 27.664 12.4677 27.79L12.59 27.7973C14.7537 27.9275 16.9273 28.0662 18.5449 28.5969C19.3506 28.8613 19.9939 29.2157 20.427 29.6938C20.8535 30.1646 21.092 30.7725 21.0611 31.5845C21.0303 32.3964 20.7464 32.9845 20.2853 33.4216C19.8172 33.8654 19.1489 34.17 18.3254 34.3725C16.6723 34.7789 14.4944 34.7523 12.327 34.7179L12.2046 34.7159C10.1039 34.6824 8.01389 34.6491 6.53632 35.0474C5.77945 35.2514 5.1424 35.5785 4.7525 36.1142C4.35614 36.6589 4.24846 37.372 4.45295 38.2703C4.65957 39.178 5.11654 39.8505 5.76142 40.3197C6.40105 40.7852 7.21026 41.0397 8.1096 41.1452C9.90362 41.3554 12.1231 40.9793 14.265 40.3986C16.136 39.8912 17.9677 39.222 19.4381 38.629C18.1188 39.5083 16.5328 40.6429 15.0581 41.9013C13.37 43.3419 11.8071 44.9621 10.9684 46.5619C10.548 47.3638 10.3015 48.1756 10.3248 48.9663C10.3483 49.7634 10.6457 50.5202 11.2785 51.2029C11.9047 51.8787 12.5543 52.1922 13.2276 52.1723C13.8899 52.1527 14.5194 51.8113 15.1149 51.3016C16.2775 50.3065 17.4293 48.5622 18.587 46.809L18.6545 46.7068C19.8491 44.898 21.056 43.0849 22.3244 41.9495C22.9562 41.3839 23.5848 41.004 24.2154 40.868C24.8364 40.734 25.4821 40.8314 26.1698 41.2641C26.8576 41.6968 27.2249 42.2367 27.3729 42.8545C27.5232 43.4818 27.4528 44.2129 27.2164 45.0273C26.7419 46.6622 25.6299 48.535 24.5164 50.3948L24.4534 50.4999C23.3741 52.3024 22.3002 54.0957 21.9064 55.5744C21.7046 56.3319 21.6694 57.0471 21.9384 57.6527C22.2119 58.2683 22.7757 58.7181 23.6559 58.9901C24.5452 59.265 25.3561 59.2056 26.0849 58.8817C26.8078 58.5605 27.4329 57.987 27.9739 57.2608C29.053 55.8123 29.837 53.7021 30.405 51.5568C30.9012 49.6827 31.2375 47.7618 31.4591 46.1919C31.5609 47.7741 31.7505 49.715 32.103 51.6213C32.5065 53.8035 33.1282 55.9671 34.0943 57.4934C34.5786 58.2585 35.1583 58.8777 35.8548 59.2529C36.5569 59.6311 37.3609 59.752 38.2686 59.5454C39.1669 59.3409 39.7632 58.9351 40.0826 58.3421C40.3968 57.7587 40.4159 57.0428 40.2723 56.2722C39.9917 54.7679 39.057 52.8982 38.1176 51.019L38.0628 50.9095C37.0937 48.9706 36.127 47.0188 35.7778 45.3526C35.6039 44.5226 35.5892 43.7883 35.7867 43.1742C35.9812 42.5694 36.3884 42.0589 37.107 41.6797C37.8256 41.3004 38.4768 41.2523 39.0859 41.433C39.7043 41.6165 40.3022 42.043 40.8893 42.6549C42.0679 43.8833 43.1338 45.7827 44.1877 47.6769L44.2472 47.784C45.2685 49.62 46.2846 51.4466 47.3683 52.5271C47.9235 53.0805 48.5252 53.4687 49.1842 53.5385C49.854 53.6094 50.5255 53.3461 51.2012 52.7198C51.884 52.0871 52.2379 51.3551 52.3218 50.562C52.4051 49.7753 52.2209 48.9472 51.8626 48.1157C51.1477 46.4569 49.7122 44.7228 48.1383 43.1582C46.7634 41.7915 45.268 40.5398 44.0192 39.563C45.4404 40.2659 47.216 41.0721 49.0432 41.72C51.1348 42.4616 53.3194 43.0051 55.1242 42.9315C56.0289 42.8946 56.8551 42.7022 57.5282 42.2867C58.2068 41.8677 58.7135 41.2318 58.9884 40.3425C59.2605 39.4622 59.2072 38.743 58.8533 38.1698C58.5052 37.606 57.8948 37.2315 57.1556 36.9707C55.7125 36.4614 53.626 36.3361 51.5289 36.2101L51.4066 36.2027C49.2429 36.0726 47.0693 35.9339 45.4517 35.4031C44.646 35.1388 44.0027 34.7843 43.5696 34.3063C43.1431 33.8354 42.9046 33.2275 42.9354 32.4156C42.9663 31.6036 43.2502 31.0156 43.7113 30.5785C44.1794 30.1347 44.8477 29.8301 45.6712 29.6276C47.3243 29.2211 49.5022 29.2478 51.6696 29.2822L51.792 29.2841C53.8927 29.3176 55.9827 29.351 57.4603 28.9527C58.2171 28.7487 58.8542 28.4216 59.2441 27.8858C59.6405 27.3412 59.7481 26.628 59.5436 25.7297C59.337 24.8221 58.8801 24.1495 58.2352 23.6803C57.5955 23.2149 56.7863 22.9603 55.887 22.8549C54.093 22.6446 51.8735 23.0207 49.7316 23.6015C47.8605 24.1088 46.0288 24.778 44.5585 25.3711Z" fill="#FBF8EF" stroke="#111111" stroke-width="0.5"/>
<path d="M38.1779 21.2767C38.6887 20.114 39.2471 18.7188 39.693 17.2913C40.2528 15.4993 40.6436 13.6306 40.5229 12.1007C40.4624 11.3335 40.2721 10.6346 39.8946 10.072C39.5134 9.50407 38.952 9.09106 38.1832 8.88506C37.4144 8.67906 36.7216 8.756 36.1076 9.05729C35.4994 9.35572 34.9851 9.8658 34.549 10.5C33.6796 11.7646 33.0837 13.5783 32.6725 15.4102C32.3449 16.8693 32.1309 18.3568 31.9919 19.6191C31.8529 18.3568 31.639 16.8693 31.3114 15.4102C30.9001 13.5783 30.3042 11.7646 29.4348 10.5C28.9988 9.8658 28.4845 9.35572 27.8763 9.05729C27.2622 8.756 26.5695 8.67906 25.8007 8.88506C25.0319 9.09106 24.4704 9.50407 24.0893 10.072C23.7118 10.6346 23.5214 11.3335 23.4609 12.1007C23.3403 13.6306 23.7311 15.4993 24.2908 17.2913C24.7367 18.7188 25.2952 20.114 25.8059 21.2767C25.0544 20.253 24.1254 19.0718 23.1121 17.9719C21.84 16.5911 20.4171 15.3183 19.0319 14.6578C18.3371 14.3266 17.6367 14.142 16.9608 14.1877C16.2783 14.2338 15.6399 14.5135 15.0771 15.0763C14.5143 15.6391 14.2346 16.2775 14.1885 16.9599C14.1428 17.6359 14.3274 18.3363 14.6587 19.031C15.3191 20.4163 16.5919 21.8392 17.9727 23.1113C19.0726 24.1245 20.2538 25.0536 21.2775 25.8051C20.1148 25.2943 18.7196 24.7359 17.2922 24.29C15.5001 23.7302 13.6314 23.3394 12.1015 23.4601C11.3343 23.5206 10.6354 23.7109 10.0728 24.0884C9.50489 24.4696 9.09188 25.0311 8.88588 25.7999C8.67989 26.5686 8.75682 27.2614 9.05811 27.8755C9.35655 28.4837 9.86663 28.9979 10.5008 29.434C11.7654 30.3034 13.5791 30.8993 15.411 31.3106C16.8702 31.6381 18.3577 31.8521 19.62 31.9911C18.3577 32.1301 16.8702 32.3441 15.411 32.6716C13.5791 33.0829 11.7654 33.6788 10.5008 34.5482C9.86662 34.9843 9.35654 35.4985 9.05811 36.1067C8.75682 36.7208 8.67989 37.4136 8.88588 38.1823C9.09188 38.9511 9.50489 39.5126 10.0728 39.8938C10.6354 40.2713 11.3343 40.4616 12.1015 40.5221C13.6314 40.6428 15.5001 40.252 17.2922 39.6922C18.7196 39.2463 20.1148 38.6879 21.2775 38.1771C20.2538 38.9286 19.0726 39.8577 17.9727 40.8709C16.5919 42.143 15.3191 43.5659 14.6587 44.9512C14.3274 45.6459 14.1428 46.3463 14.1885 47.0223C14.2346 47.7047 14.5143 48.3431 15.0771 48.9059C15.6399 49.4687 16.2783 49.7484 16.9608 49.7945C17.6367 49.8402 18.3371 49.6556 19.0319 49.3244C20.4171 48.6639 21.84 47.3912 23.1121 46.0103C24.1254 44.9104 25.0544 43.7292 25.8059 42.7055C25.2952 43.8682 24.7367 45.2634 24.2908 46.6909C23.7311 48.4829 23.3403 50.3516 23.4609 51.8815C23.5214 52.6487 23.7118 53.3476 24.0893 53.9102C24.4704 54.4781 25.0319 54.8911 25.8007 55.0971C26.5695 55.3031 27.2622 55.2262 27.8763 54.9249C28.4845 54.6265 28.9988 54.1164 29.4348 53.4822C30.3042 52.2176 30.9001 50.4039 31.3114 48.572C31.639 47.1129 31.8529 45.6254 31.9919 44.3631C32.1309 45.6253 32.3449 47.1129 32.6725 48.572C33.0837 50.4039 33.6796 52.2176 34.549 53.4822C34.9851 54.1164 35.4994 54.6265 36.1076 54.9249C36.7216 55.2262 37.4144 55.3031 38.1832 55.0971C38.952 54.8911 39.5134 54.4781 39.8946 53.9102C40.2721 53.3476 40.4624 52.6487 40.5229 51.8815C40.6436 50.3516 40.2528 48.4829 39.693 46.6909C39.2471 45.2634 38.6887 43.8682 38.1779 42.7055C38.9294 43.7292 39.8585 44.9104 40.8717 46.0103C42.1438 47.3912 43.5668 48.6639 44.952 49.3244C45.6467 49.6556 46.3471 49.8402 47.0231 49.7945C47.7055 49.7484 48.3439 49.4687 48.9067 48.9059C49.4695 48.3431 49.7493 47.7047 49.7954 47.0223C49.841 46.3463 49.6564 45.6459 49.3252 44.9512C48.6648 43.5659 47.392 42.143 46.0112 40.8709C44.9113 39.8577 43.73 38.9286 42.7064 38.1771C43.869 38.6879 45.2642 39.2463 46.6917 39.6922C48.4838 40.252 50.3524 40.6428 51.8823 40.5221C52.6496 40.4616 53.3485 40.2713 53.911 39.8938C54.479 39.5126 54.892 38.9511 55.098 38.1823C55.304 37.4136 55.227 36.7208 54.9257 36.1067C54.6273 35.4985 54.1172 34.9843 53.483 34.5482C52.2184 33.6788 50.4047 33.0829 48.5728 32.6716C47.1137 32.3441 45.6262 32.1301 44.3639 31.9911C45.6262 31.8521 47.1137 31.6381 48.5728 31.3106C50.4047 30.8993 52.2184 30.3034 53.483 29.434C54.1172 28.998 54.6273 28.4837 54.9257 27.8755C55.227 27.2614 55.304 26.5686 55.098 25.7999C54.892 25.0311 54.479 24.4696 53.911 24.0884C53.3485 23.7109 52.6496 23.5206 51.8823 23.4601C50.3524 23.3394 48.4838 23.7302 46.6917 24.29C45.2642 24.7359 43.869 25.2943 42.7064 25.8051C43.73 25.0536 44.9113 24.1246 46.0112 23.1113C47.392 21.8392 48.6648 20.4163 49.3252 19.031C49.6564 18.3363 49.841 17.6359 49.7954 16.9599C49.7493 16.2775 49.4695 15.6391 48.9067 15.0763C48.3439 14.5135 47.7055 14.2338 47.0231 14.1877C46.3471 14.142 45.6467 14.3266 44.952 14.6578C43.5668 15.3183 42.1438 16.5911 40.8717 17.9719C39.8585 19.0718 38.9294 20.253 38.1779 21.2767Z" fill="#7ECEA6" stroke="#111111" stroke-width="0.5"/>
<path d="M34.2237 23.7012C34.3023 23.0845 34.3669 22.4143 34.3944 21.7431C34.4432 20.5512 34.3766 19.329 34.0459 18.3955C33.8797 17.9266 33.6414 17.5145 33.3025 17.2184C32.9586 16.9181 32.5255 16.75 32 16.75C31.4745 16.75 31.0414 16.9181 30.6975 17.2184C30.3586 17.5145 30.1203 17.9266 29.9541 18.3955C29.6234 19.329 29.5568 20.5512 29.6056 21.7431C29.6331 22.4143 29.6977 23.0845 29.7763 23.7012C29.5361 23.1278 29.2569 22.5151 28.9451 21.9201C28.3915 20.8634 27.7227 19.8383 26.9695 19.1952C26.5912 18.8722 26.1788 18.6345 25.7372 18.5476C25.2892 18.4594 24.8301 18.5303 24.375 18.7931C23.9199 19.0559 23.6289 19.418 23.4813 19.85C23.3358 20.2759 23.3354 20.7519 23.426 21.2411C23.6063 22.2149 24.1597 23.3067 24.798 24.3145C25.1574 24.882 25.5484 25.4301 25.9249 25.9249C25.4301 25.5484 24.882 25.1574 24.3145 24.798C23.3067 24.1597 22.2149 23.6063 21.2411 23.426C20.7519 23.3354 20.2759 23.3358 19.85 23.4813C19.418 23.6289 19.0559 23.9199 18.7931 24.375C18.5303 24.8301 18.4594 25.2892 18.5476 25.7372C18.6345 26.1788 18.8722 26.5912 19.1952 26.9695C19.8383 27.7227 20.8634 28.3915 21.9201 28.9451C22.5151 29.2569 23.1278 29.5361 23.7012 29.7763C23.0845 29.6977 22.4143 29.6331 21.7431 29.6056C20.5512 29.5568 19.329 29.6234 18.3955 29.9541C17.9266 30.1203 17.5145 30.3586 17.2184 30.6975C16.9181 31.0414 16.75 31.4745 16.75 32C16.75 32.5255 16.9181 32.9586 17.2184 33.3025C17.5145 33.6414 17.9266 33.8797 18.3955 34.0459C19.329 34.3766 20.5512 34.4432 21.7431 34.3944C22.4143 34.3669 23.0845 34.3023 23.7012 34.2237C23.1278 34.4639 22.5151 34.7431 21.9201 35.0549C20.8634 35.6085 19.8383 36.2773 19.1952 37.0305C18.8722 37.4088 18.6345 37.8212 18.5476 38.2628C18.4594 38.7108 18.5303 39.1699 18.7931 39.625C19.0559 40.0801 19.418 40.3711 19.85 40.5187C20.2759 40.6642 20.7519 40.6646 21.2411 40.574C22.2149 40.3937 23.3067 39.8403 24.3145 39.202C24.882 38.8426 25.4301 38.4516 25.9249 38.0751C25.5484 38.5699 25.1574 39.118 24.798 39.6855C24.1597 40.6933 23.6063 41.7851 23.426 42.7589C23.3354 43.2481 23.3358 43.7241 23.4813 44.15C23.6289 44.582 23.9199 44.9441 24.375 45.2069C24.8301 45.4697 25.2892 45.5406 25.7372 45.4524C26.1788 45.3655 26.5912 45.1278 26.9695 44.8048C27.7227 44.1617 28.3915 43.1366 28.9451 42.0799C29.2569 41.4849 29.5361 40.8722 29.7763 40.2988C29.6977 40.9155 29.6331 41.5857 29.6056 42.2569C29.5568 43.4488 29.6234 44.671 29.9541 45.6045C30.1203 46.0734 30.3586 46.4855 30.6975 46.7816C31.0414 47.0819 31.4745 47.25 32 47.25C32.5255 47.25 32.9586 47.0819 33.3025 46.7816C33.6414 46.4855 33.8797 46.0734 34.0459 45.6045C34.3766 44.671 34.4432 43.4488 34.3944 42.2569C34.3669 41.5857 34.3023 40.9155 34.2237 40.2988C34.4639 40.8722 34.7431 41.4849 35.0549 42.0799C35.6085 43.1366 36.2773 44.1617 37.0305 44.8048C37.4088 45.1278 37.8212 45.3655 38.2628 45.4524C38.7108 45.5406 39.1699 45.4697 39.625 45.2069C40.0801 44.9441 40.3711 44.582 40.5187 44.15C40.6642 43.7241 40.6646 43.2481 40.574 42.7589C40.3937 41.7851 39.8403 40.6933 39.202 39.6855C38.8426 39.118 38.4516 38.5699 38.0751 38.0751C38.5699 38.4516 39.118 38.8426 39.6855 39.202C40.6933 39.8403 41.7851 40.3937 42.7589 40.574C43.2481 40.6646 43.7241 40.6642 44.15 40.5187C44.582 40.3711 44.9441 40.0801 45.2069 39.625C45.4697 39.1699 45.5406 38.7108 45.4524 38.2628C45.3655 37.8212 45.1278 37.4088 44.8048 37.0305C44.1617 36.2773 43.1366 35.6085 42.0799 35.0549C41.4849 34.7431 40.8722 34.4639 40.2988 34.2237C40.9155 34.3023 41.5857 34.3669 42.2569 34.3944C43.4488 34.4432 44.671 34.3766 45.6045 34.0459C46.0734 33.8797 46.4855 33.6414 46.7816 33.3025C47.0819 32.9586 47.25 32.5255 47.25 32C47.25 31.4745 47.0819 31.0414 46.7816 30.6975C46.4855 30.3586 46.0734 30.1203 45.6045 29.9541C44.671 29.6234 43.4488 29.5568 42.2569 29.6056C41.5857 29.6331 40.9155 29.6977 40.2988 29.7763C40.8722 29.5361 41.4849 29.2569 42.0799 28.9451C43.1366 28.3915 44.1617 27.7227 44.8048 26.9695C45.1278 26.5912 45.3655 26.1788 45.4524 25.7372C45.5406 25.2892 45.4697 24.8301 45.2069 24.375C44.9441 23.9199 44.582 23.6289 44.15 23.4813C43.7241 23.3358 43.2481 23.3354 42.7589 23.426C41.7851 23.6063 40.6933 24.1597 39.6855 24.798C39.118 25.1574 38.5699 25.5484 38.0751 25.9249C38.4516 25.4301 38.8426 24.882 39.202 24.3145C39.8403 23.3067 40.3937 22.2149 40.574 21.2411C40.6646 20.7519 40.6642 20.2759 40.5187 19.85C40.3711 19.418 40.0801 19.0559 39.625 18.7931C39.1699 18.5303 38.7108 18.4594 38.2628 18.5476C37.8212 18.6345 37.4088 18.8722 37.0305 19.1952C36.2773 19.8383 35.6085 20.8634 35.0549 21.9201C34.7431 22.5151 34.4639 23.1278 34.2237 23.7012Z" fill="#FBF8EF" stroke="#111111" stroke-width="0.5"/>
<path d="M32.3757 29.1665C32.3292 28.923 32.2679 28.651 32.1885 28.3825C32.0692 27.9789 31.9021 27.5587 31.6659 27.2572C31.5464 27.1046 31.4004 26.9711 31.2223 26.8911C31.0393 26.8089 30.8364 26.79 30.6226 26.8473C30.4087 26.9046 30.2425 27.0224 30.1251 27.1851C30.0108 27.3434 29.9512 27.5321 29.924 27.7239C29.8702 28.1031 29.9356 28.5506 30.034 28.9598C30.0995 29.2321 30.1824 29.4982 30.2639 29.7324C30.0588 29.5931 29.8232 29.4441 29.5772 29.3104C29.2074 29.1094 28.7921 28.9304 28.4118 28.8842C28.2195 28.8609 28.0218 28.8696 27.8393 28.939C27.6518 29.0103 27.495 29.1403 27.3843 29.3321C27.2735 29.5239 27.2393 29.7247 27.2714 29.9228C27.3025 30.1155 27.3938 30.2911 27.5102 30.446C27.7403 30.7522 28.1029 31.0224 28.4619 31.2421C28.7007 31.3883 28.9475 31.5178 29.1707 31.6258C28.9272 31.6723 28.6552 31.7336 28.3867 31.813C27.9831 31.9323 27.5629 32.0995 27.2614 32.3357C27.1088 32.4552 26.9753 32.6012 26.8953 32.7792C26.8131 32.9623 26.7942 33.1651 26.8515 33.379C26.9088 33.5929 27.0266 33.7591 27.1893 33.8765C27.3476 33.9907 27.5363 34.0503 27.7281 34.0776C28.1073 34.1314 28.5548 34.066 28.964 33.9675C29.2363 33.902 29.5024 33.8191 29.7366 33.7376C29.5973 33.9427 29.4483 34.1784 29.3146 34.4244C29.1136 34.7941 28.9346 35.2095 28.8884 35.5897C28.8651 35.7821 28.8738 35.9798 28.9432 36.1622C29.0145 36.3497 29.1445 36.5066 29.3363 36.6173C29.5281 36.728 29.7289 36.7622 29.927 36.7302C30.1197 36.699 30.2953 36.6078 30.4502 36.4914C30.7564 36.2613 31.0266 35.8986 31.2463 35.5396C31.3925 35.3008 31.522 35.054 31.63 34.8308C31.6765 35.0744 31.7378 35.3463 31.8172 35.6148C31.9365 36.0184 32.1037 36.4387 32.3399 36.7402C32.4594 36.8927 32.6054 37.0263 32.7834 37.1062C32.9665 37.1884 33.1693 37.2074 33.3832 37.1501C33.5971 37.0928 33.7633 36.9749 33.8807 36.8122C33.9949 36.654 34.0545 36.4653 34.0818 36.2734C34.1356 35.8942 34.0702 35.4467 33.9717 35.0375C33.9062 34.7653 33.8233 34.4991 33.7418 34.2649C33.9469 34.4043 34.1826 34.5532 34.4286 34.687C34.7983 34.888 35.2137 35.0669 35.5939 35.1131C35.7863 35.1365 35.984 35.1277 36.1664 35.0583C36.3539 34.987 36.5108 34.857 36.6215 34.6652C36.7322 34.4735 36.7664 34.2726 36.7344 34.0746C36.7032 33.8819 36.612 33.7063 36.4956 33.5514C36.2655 33.2452 35.9028 32.975 35.5439 32.7552C35.305 32.6091 35.0582 32.4795 34.835 32.3715C35.0786 32.325 35.3505 32.2637 35.619 32.1843C36.0226 32.065 36.4429 31.8979 36.7444 31.6617C36.8969 31.5422 37.0305 31.3962 37.1104 31.2181C37.1926 31.0351 37.2116 30.8322 37.1543 30.6184C37.097 30.4045 36.9791 30.2383 36.8164 30.1209C36.6582 30.0066 36.4695 29.947 36.2776 29.9198C35.8984 29.866 35.4509 29.9314 35.0417 30.0298C34.7695 30.0953 34.5033 30.1782 34.2691 30.2597C34.4085 30.0546 34.5574 29.819 34.6912 29.573C34.8922 29.2032 35.0711 28.7879 35.1173 28.4076C35.1407 28.2153 35.1319 28.0176 35.0625 27.8351C34.9912 27.6476 34.8612 27.4908 34.6694 27.38C34.4777 27.2693 34.2768 27.2351 34.0788 27.2671C33.8861 27.2983 33.7105 27.3896 33.5556 27.506C33.2494 27.7361 32.9792 28.0987 32.7595 28.4577C32.6133 28.6965 32.4837 28.9433 32.3757 29.1665Z" fill="#7ECEA6" stroke="#111111" stroke-width="0.5"/>
<rect x="30.25" y="30.25" width="3.5" height="3.5" rx="1.75" fill="#FBF8EF" stroke="#111111" stroke-width="0.5"/>
</g>
<defs>
<clipPath id="clip0_379_2725">
<rect width="64" height="64" fill="white"/>
</clipPath>
</defs>
</svg>
