<svg width="64" height="64" viewBox="0 0 64 64" fill="none" xmlns="http://www.w3.org/2000/svg">
<g clip-path="url(#clip0_222_3953)">
<rect width="64" height="64" transform="matrix(0 1 -1 0 64 0)" fill="#6CB9E0"/>
<rect x="17.9375" y="36.5637" width="8" height="16" rx="2" transform="rotate(-180 17.9375 36.5637)" fill="#FBF8EF"/>
<rect x="17.9375" y="9.56367" width="8" height="16" rx="2" transform="rotate(-180 17.9375 9.56367)" fill="#FBF8EF"/>
<rect x="35.4375" y="11.0611" width="8" height="16" rx="2" transform="rotate(90 35.4375 11.0611)" fill="#FBF8EF"/>
<rect x="8.4375" y="11.0611" width="8" height="16" rx="2" transform="rotate(90 8.4375 11.0611)" fill="#FBF8EF"/>
<rect x="31.9688" y="27.4368" width="8" height="16" rx="2" transform="rotate(135 31.9688 27.4368)" fill="#FBF8EF"/>
<rect x="12.875" y="8.34492" width="8" height="16" rx="2" transform="rotate(135 12.875 8.34492)" fill="#FBF8EF"/>
<rect x="31.7188" y="-8.37488" width="8" height="23.6453" rx="2" transform="rotate(45 31.7188 -8.37488)" fill="#FBF8EF"/>
<rect x="7.22266" y="16.1238" width="8" height="33.5807" rx="2" transform="rotate(45 7.22266 16.1238)" fill="#FBF8EF"/>
<rect x="21.9375" y="6.99998" width="16" height="16" rx="8" transform="rotate(90 21.9375 6.99998)" fill="#FBF8EF"/>
<path d="M14 7L15.1694 12.1769L19.6569 9.34315L16.8231 13.8306L22 15L16.8231 16.1694L19.6569 20.6569L15.1694 17.8231L14 23L12.8306 17.8231L8.34315 20.6569L11.1769 16.1694L6 15L11.1769 13.8306L8.34315 9.34315L12.8306 12.1769L14 7Z" fill="#6CB9E0"/>
<rect x="43" y="75.0012" width="8" height="29" rx="2" transform="rotate(-180 43 75.0012)" fill="#FBF8EF"/>
<rect x="43" y="35.0012" width="8" height="37" rx="2" transform="rotate(-180 43 35.0012)" fill="#FBF8EF"/>
<rect x="70" y="36.0025" width="8" height="26" rx="2" transform="rotate(90 70 36.0025)" fill="#FBF8EF"/>
<rect x="33" y="35.9986" width="8" height="35" rx="2" transform="rotate(90 33 35.9986)" fill="#FBF8EF"/>
<rect x="56.9688" y="52.4368" width="8" height="16" rx="2" transform="rotate(135 56.9688 52.4368)" fill="#FBF8EF"/>
<rect x="37.875" y="33.3449" width="8" height="16" rx="2" transform="rotate(135 37.875 33.3449)" fill="#FBF8EF"/>
<rect x="51.3125" y="22.0312" width="8" height="16" rx="2" transform="rotate(45 51.3125 22.0312)" fill="#FBF8EF"/>
<rect x="32.2188" y="41.1231" width="8" height="16" rx="2" transform="rotate(45 32.2188 41.1231)" fill="#FBF8EF"/>
<rect x="46.9375" y="32" width="16" height="16" rx="8" transform="rotate(90 46.9375 32)" fill="#FBF8EF"/>
<path d="M39 32L40.1694 37.1769L44.6569 34.3431L41.8231 38.8306L47 40L41.8231 41.1694L44.6569 45.6568L40.1694 42.8231L39 48L37.8306 42.8231L33.3431 45.6568L36.1769 41.1694L31 40L36.1769 38.8306L33.3431 34.3431L37.8306 37.1769L39 32Z" fill="#6CB9E0"/>
<rect x="68" y="53" width="8" height="32" rx="2" transform="rotate(-180 68 53)" fill="#FBF8EF"/>
<rect x="67.9375" y="9.56367" width="8" height="16" rx="2" transform="rotate(-180 67.9375 9.56367)" fill="#FBF8EF"/>
<rect x="58" y="10.9986" width="8" height="32" rx="2" transform="rotate(90 58 10.9986)" fill="#FBF8EF"/>
<rect x="62.8789" y="8.34456" width="8" height="24.5194" rx="2" transform="rotate(135 62.8789 8.34456)" fill="#FBF8EF"/>
<rect x="57.2188" y="16.1231" width="8" height="16" rx="2" transform="rotate(45 57.2188 16.1231)" fill="#FBF8EF"/>
<rect x="71.9375" y="7" width="16" height="16" rx="8" transform="rotate(90 71.9375 7)" fill="#FBF8EF"/>
<path d="M64 7L65.1694 12.1769L69.6569 9.34315L66.8231 13.8306L72 15L66.8231 16.1694L69.6569 20.6569L65.1694 17.8231L64 23L62.8306 17.8231L58.3431 20.6569L61.1769 16.1694L56 15L61.1769 13.8306L58.3431 9.34315L62.8306 12.1769L64 7Z" fill="#6CB9E0"/>
<rect x="18" y="60.0012" width="8" height="32" rx="2" transform="rotate(-180 18 60.0012)" fill="#FBF8EF"/>
<rect x="48" y="61.0025" width="8" height="29" rx="2" transform="rotate(90 48 61.0025)" fill="#FBF8EF"/>
<rect x="8.4375" y="61.0611" width="8" height="16" rx="2" transform="rotate(90 8.4375 61.0611)" fill="#FBF8EF"/>
<rect x="12.875" y="58.3434" width="8" height="32.9882" rx="2" transform="rotate(135 12.875 58.3434)" fill="#FBF8EF"/>
<rect x="26.3125" y="47.0312" width="8" height="16" rx="2" transform="rotate(45 26.3125 47.0312)" fill="#FBF8EF"/>
<rect x="21.9375" y="57" width="16" height="16" rx="8" transform="rotate(90 21.9375 57)" fill="#FBF8EF"/>
<path d="M14 36L15.0804 38.9196L18 40L15.0804 41.0804L14 44L12.9196 41.0804L10 40L12.9196 38.9196L14 36Z" fill="#6CB9E0"/>
<path d="M39 11L40.0804 13.9196L43 15L40.0804 16.0804L39 19L37.9196 16.0804L35 15L37.9196 13.9196L39 11Z" fill="#6CB9E0"/>
<path d="M64 36L65.0804 38.9196L68 40L65.0804 41.0804L64 44L62.9196 41.0804L60 40L62.9196 38.9196L64 36Z" fill="#6CB9E0"/>
<path d="M14 57L15.1694 62.1769L19.6569 59.3431L16.8231 63.8306L22 65L16.8231 66.1694L19.6569 70.6569L15.1694 67.8231L14 73L12.8306 67.8231L8.34315 70.6569L11.1769 66.1694L6 65L11.1769 63.8306L8.34315 59.3431L12.8306 62.1769L14 57Z" fill="#6CB9E0"/>
<rect x="68" y="60" width="8" height="11" rx="2" transform="rotate(-180 68 60)" fill="#FBF8EF"/>
<rect x="58.4375" y="61.0611" width="8" height="16" rx="2" transform="rotate(90 58.4375 61.0611)" fill="#FBF8EF"/>
<rect x="62.875" y="58.3449" width="8" height="16" rx="2" transform="rotate(135 62.875 58.3449)" fill="#FBF8EF"/>
<rect x="71.9375" y="57" width="16" height="16" rx="8" transform="rotate(90 71.9375 57)" fill="#FBF8EF"/>
<path d="M64 57L65.1694 62.1769L69.6569 59.3431L66.8231 63.8306L72 65L66.8231 66.1694L69.6569 70.6569L65.1694 67.8231L64 73L62.8306 67.8231L58.3431 70.6569L61.1769 66.1694L56 65L61.1769 63.8306L58.3431 59.3431L62.8306 62.1769L64 57Z" fill="#6CB9E0"/>
</g>
<defs>
<clipPath id="clip0_222_3953">
<rect width="64" height="64" fill="white" transform="matrix(0 1 -1 0 64 0)"/>
</clipPath>
</defs>
</svg>
