<svg width="64" height="64" viewBox="0 0 64 64" fill="none" xmlns="http://www.w3.org/2000/svg">
<g clip-path="url(#clip0_2741_2092)">
<rect width="64" height="64" fill="#63BCE5"/>
<rect x="-3.34889" y="32" width="50" height="50" transform="rotate(-45 -3.34889 32)" fill="#63BCE5"/>
<rect x="-3.34889" y="32" width="50" height="50" transform="rotate(-45 -3.34889 32)" stroke="#FBF8EF" stroke-width="3"/>
<rect width="41" height="41" transform="translate(3 32) rotate(-45)" fill="#FBF8EF"/>
<path d="M24.5031 12.92C25.2895 12.611 26.0327 12.7741 26.6761 13.235C27.2945 13.6781 27.8309 14.3992 28.3011 15.2532C29.2453 16.9684 30.0218 19.4064 30.637 21.8606C31.2545 24.3242 31.7198 26.8434 32.03 28.7439C32.0396 28.803 32.0479 28.8621 32.0572 28.92C32.0686 28.8626 32.0799 28.8045 32.0916 28.746C32.4711 26.8579 33.0274 24.3568 33.7346 21.9173C34.439 19.4873 35.3037 17.0794 36.3099 15.4C36.811 14.5638 37.3733 13.8626 38.0075 13.4425C38.6673 13.0054 39.4162 12.8693 40.1908 13.2068C40.9653 13.5444 41.3753 14.1857 41.5043 14.9665C41.6284 15.7172 41.4978 16.6071 41.2263 17.5436C40.6812 19.4238 39.5064 21.6962 38.2063 23.8662C36.9009 26.0449 35.4478 28.1546 34.3233 29.7179C34.288 29.7669 34.2512 29.8147 34.2165 29.8626C34.2658 29.8297 34.3158 29.7964 34.3662 29.7629C35.9695 28.6963 38.1314 27.3216 40.3564 26.0967C42.5727 24.8767 44.8864 23.7854 46.7854 23.3094C47.731 23.0725 48.6244 22.9746 49.3699 23.126C50.1455 23.2835 50.771 23.7169 51.0799 24.5033C51.3889 25.2897 51.2257 26.0329 50.7649 26.6762C50.3218 27.2947 49.6007 27.8311 48.7467 28.3012C47.0317 29.2453 44.5942 30.0217 42.1402 30.6368C39.6766 31.2542 37.157 31.7187 35.2565 32.0289C35.1973 32.0385 35.1384 32.0467 35.0804 32.0561C35.1381 32.0675 35.1966 32.0783 35.2554 32.0901C37.1433 32.4697 39.6438 33.0262 42.0832 33.7334C44.513 34.438 46.9206 35.3037 48.5999 36.31C49.4361 36.8112 50.1373 37.3734 50.5574 38.0077C50.9944 38.6674 51.1306 39.4163 50.793 40.1909C50.4555 40.9654 49.8141 41.3755 49.0334 41.5045C48.2828 41.6285 47.3936 41.4976 46.4572 41.2261C44.5769 40.6809 42.3044 39.5056 40.1342 38.2051C37.9556 36.8996 35.8457 35.4468 34.2826 34.3222C34.2339 34.2871 34.1862 34.2516 34.1385 34.2172C34.1711 34.2661 34.2052 34.3147 34.2384 34.3647C35.3049 35.968 36.679 38.1302 37.9037 40.3553C39.1237 42.5717 40.2146 44.8864 40.6905 46.7855C40.9274 47.7311 41.0253 48.6245 40.8739 49.3701C40.7164 50.1456 40.283 50.7711 39.4966 51.0801C38.7102 51.3891 37.967 51.2259 37.3237 50.765C36.7053 50.3219 36.1687 49.6008 35.6987 48.7468C34.7546 47.0317 33.9786 44.5933 33.3637 42.1391C32.7464 39.6754 32.2816 37.1559 31.9716 35.2554C31.9619 35.1962 31.9528 35.1376 31.9435 35.0797C31.932 35.1371 31.9221 35.1956 31.9103 35.2543C31.5307 37.1422 30.9735 39.6429 30.2661 42.0824C29.5615 44.5122 28.6971 46.9202 27.6908 48.5996C27.1895 49.436 26.6266 50.1374 25.9922 50.5576C25.3324 50.9946 24.5836 51.1308 23.809 50.7932C23.0344 50.4556 22.6244 49.8143 22.4954 49.0335C22.3714 48.2828 22.5019 47.3929 22.7734 46.4565C23.3188 44.5761 24.4939 42.3036 25.7944 40.1335C27.1001 37.9546 28.5535 35.8447 29.6783 34.2815C29.7132 34.2329 29.7481 34.1852 29.7823 34.1377C29.7337 34.1702 29.6854 34.2043 29.6357 34.2373C28.0322 35.304 25.8699 36.679 23.6446 37.9039C21.4281 39.1239 19.1135 40.2147 17.2144 40.6906C16.2688 40.9275 15.3754 41.0254 14.6298 40.874C13.8543 40.7165 13.2288 40.2832 12.9198 39.4968C12.6108 38.7103 12.774 37.9671 13.2349 37.3238C13.678 36.7054 14.3991 36.1689 15.2531 35.6988C16.9683 34.7547 19.4066 33.9789 21.8608 33.3638C24.3248 32.7463 26.8447 32.2815 28.7454 31.9714C28.8049 31.9617 28.8638 31.9523 28.9221 31.9429C28.8642 31.9314 28.8052 31.921 28.7462 31.9092C26.8581 31.5296 24.3571 30.9735 21.9175 30.2662C19.4875 29.5617 17.0797 28.6971 15.4003 27.6909C14.5638 27.1897 13.8625 26.6267 13.4423 25.9924C13.0053 25.3326 12.8691 24.5837 13.2067 23.8091C13.5443 23.0346 14.1856 22.6246 14.9664 22.4956C15.7171 22.3715 16.6069 22.5021 17.5434 22.7736C19.4238 23.3188 21.6962 24.4942 23.8664 25.7946C26.0452 27.1 28.1557 28.5525 29.719 29.6771C29.7672 29.7118 29.8146 29.7475 29.8618 29.7816C29.8295 29.7331 29.7961 29.6841 29.7631 29.6346C28.6964 28.0312 27.3219 25.8694 26.0969 23.6444C24.8767 21.428 23.7854 19.1136 23.3093 17.2145C23.0723 16.2689 22.9745 15.3755 23.1258 14.63C23.2833 13.8544 23.7167 13.2289 24.5031 12.92Z" fill="#63BCE5" stroke="#111111"/>
<path d="M32 11.5C32.8449 11.5 33.477 11.9237 33.9072 12.5879C34.3208 13.2265 34.5564 14.0938 34.6816 15.0605C34.9332 17.0022 34.7635 19.5554 34.4385 22.0645C34.1122 24.5833 33.6242 27.0981 33.2178 28.9805C33.2052 29.0388 33.1911 29.0962 33.1787 29.1533C33.2103 29.1041 33.2421 29.0541 33.2744 29.0039C34.318 27.3856 35.7505 25.2618 37.3008 23.25C38.845 21.2461 40.5304 19.3211 42.0811 18.126C42.8533 17.5308 43.6339 17.0839 44.3779 16.9248C45.1518 16.7593 45.8986 16.9064 46.4961 17.5039C47.0935 18.1014 47.2407 18.8482 47.0752 19.6221C46.9161 20.3661 46.4692 21.1467 45.874 21.9189C44.6789 23.4696 42.7539 25.155 40.75 26.6992C38.7382 28.2495 36.6144 29.682 34.9961 30.7256C34.9459 30.758 34.895 30.7887 34.8457 30.8203C34.903 30.8078 34.961 30.7949 35.0195 30.7822C36.9019 30.3758 39.4167 29.8878 41.9355 29.5615C44.4446 29.2365 46.9978 29.0668 48.9395 29.3184C49.9062 29.4436 50.7735 29.6792 51.4121 30.0928C52.0763 30.523 52.5 31.1551 52.5 32C52.5 32.8449 52.0763 33.477 51.4121 33.9072C50.7735 34.3208 49.9062 34.5564 48.9395 34.6816C46.9978 34.9332 44.4446 34.7635 41.9355 34.4385C39.4167 34.1122 36.9019 33.6242 35.0195 33.2178C34.9609 33.2051 34.9031 33.1912 34.8457 33.1787C34.8951 33.2105 34.9457 33.2419 34.9961 33.2744C36.6144 34.318 38.7382 35.7505 40.75 37.3008C42.7539 38.845 44.6789 40.5304 45.874 42.0811C46.4692 42.8533 46.9161 43.6339 47.0752 44.3779C47.2407 45.1518 47.0935 45.8986 46.4961 46.4961C45.8986 47.0935 45.1518 47.2407 44.3779 47.0752C43.6339 46.9161 42.8533 46.4692 42.0811 45.874C40.5304 44.6789 38.845 42.7539 37.3008 40.75C35.7505 38.7382 34.318 36.6144 33.2744 34.9961C33.2419 34.9457 33.2105 34.8951 33.1787 34.8457C33.1912 34.9031 33.2051 34.9609 33.2178 35.0195C33.6242 36.9019 34.1122 39.4167 34.4385 41.9355C34.7635 44.4446 34.9332 46.9978 34.6816 48.9395C34.5564 49.9062 34.3208 50.7735 33.9072 51.4121C33.477 52.0763 32.8449 52.5 32 52.5C31.1551 52.5 30.523 52.0763 30.0928 51.4121C29.6792 50.7735 29.4436 49.9062 29.3184 48.9395C29.0668 46.9978 29.2365 44.4446 29.5615 41.9355C29.8878 39.4167 30.3758 36.9019 30.7822 35.0195C30.7949 34.961 30.8078 34.903 30.8203 34.8457C30.7887 34.895 30.758 34.9459 30.7256 34.9961C29.682 36.6144 28.2495 38.7382 26.6992 40.75C25.155 42.7539 23.4696 44.6789 21.9189 45.874C21.1467 46.4692 20.3661 46.9161 19.6221 47.0752C18.8482 47.2407 18.1014 47.0935 17.5039 46.4961C16.9064 45.8986 16.7593 45.1518 16.9248 44.3779C17.0839 43.6339 17.5308 42.8533 18.126 42.0811C19.3211 40.5304 21.2461 38.845 23.25 37.3008C25.2618 35.7505 27.3856 34.318 29.0039 33.2744C29.0541 33.2421 29.1041 33.2103 29.1533 33.1787C29.0962 33.1911 29.0388 33.2052 28.9805 33.2178C27.0981 33.6242 24.5833 34.1122 22.0645 34.4385C19.5554 34.7635 17.0022 34.9332 15.0605 34.6816C14.0938 34.5564 13.2265 34.3208 12.5879 33.9072C11.9237 33.477 11.5 32.8449 11.5 32C11.5 31.1551 11.9237 30.523 12.5879 30.0928C13.2265 29.6792 14.0938 29.4436 15.0605 29.3184C17.0022 29.0668 19.5554 29.2365 22.0645 29.5615C24.5833 29.8878 27.0981 30.3758 28.9805 30.7822C29.0387 30.7948 29.0963 30.8079 29.1533 30.8203C29.1043 30.7888 29.0539 30.7578 29.0039 30.7256C27.3856 29.682 25.2618 28.2495 23.25 26.6992C21.2461 25.155 19.3211 23.4696 18.126 21.9189C17.5308 21.1467 17.0839 20.3661 16.9248 19.6221C16.7593 18.8482 16.9064 18.1014 17.5039 17.5039C18.1014 16.9064 18.8482 16.7593 19.6221 16.9248C20.3661 17.0839 21.1467 17.5308 21.9189 18.126C23.4696 19.3211 25.155 21.2461 26.6992 23.25C28.2495 25.2618 29.682 27.3856 30.7256 29.0039C30.7578 29.0539 30.7888 29.1043 30.8203 29.1533C30.8079 29.0963 30.7948 29.0387 30.7822 28.9805C30.3758 27.0981 29.8878 24.5833 29.5615 22.0645C29.2365 19.5554 29.0668 17.0022 29.3184 15.0605C29.4436 14.0938 29.6792 13.2265 30.0928 12.5879C30.523 11.9237 31.1551 11.5 32 11.5Z" fill="#63BCE5" stroke="#111111"/>
<path d="M32.3056 19.2562L32.7167 30.5262L41.2772 23.1845L33.5988 31.4443L44.8434 32.3062L33.5733 32.7173L40.915 41.2778L32.6552 33.5994L31.7933 44.844L31.3822 33.5739L22.8217 40.9156L30.5001 32.6558L19.2556 31.7939L30.5256 31.3828L23.1839 22.8223L31.4437 30.5007L32.3056 19.2562Z" fill="#111111"/>
<rect x="28.5" y="28.5" width="7" height="7" rx="3.5" fill="#FBF8EF" stroke="#111111"/>
<path d="M61 45V61H45L61 45Z" fill="#FBF8EF"/>
<path d="M45 3H61V19L45 3Z" fill="#FBF8EF"/>
<path d="M19 3H3V19L19 3Z" fill="#FBF8EF"/>
<path d="M19 61H3V45L19 61Z" fill="#FBF8EF"/>
<path d="M3 53H11V61L3 53Z" fill="#63BCE5"/>
<path d="M11 3V11H3L11 3Z" fill="#63BCE5"/>
<path d="M61 11L53 11V3L61 11Z" fill="#63BCE5"/>
<path d="M53 61V53H61L53 61Z" fill="#63BCE5"/>
</g>
<defs>
<clipPath id="clip0_2741_2092">
<rect width="64" height="64" fill="white"/>
</clipPath>
</defs>
</svg>
