<svg width="64" height="64" viewBox="0 0 64 64" fill="none" xmlns="http://www.w3.org/2000/svg">
<g clip-path="url(#clip0_379_2894)">
<rect width="64" height="64" fill="#F2995A"/>
<rect width="45.2548" height="45.2548" transform="translate(0 32) rotate(-45)" fill="#FBF8EF"/>
<path d="M44.9625 35.8877C44.1192 35.4779 43.2517 35.112 42.4361 34.7963C43.3002 34.9308 44.2345 35.0476 45.1697 35.1144C46.8811 35.2366 48.6235 35.1938 49.9478 34.7672C50.6122 34.5531 51.1886 34.2371 51.6002 33.7804C52.0166 33.3186 52.25 32.7285 52.25 32C52.25 31.2715 52.0166 30.6814 51.6002 30.2196C51.1886 29.7629 50.6122 29.4469 49.9478 29.2328C48.6235 28.8062 46.8811 28.7634 45.1697 28.8856C44.2345 28.9524 43.3002 29.0692 42.4361 29.2037C43.2517 28.888 44.1192 28.5221 44.9625 28.1123C46.5057 27.3624 47.9933 26.4542 48.9268 25.4226C49.3952 24.905 49.7363 24.3431 49.8645 23.7418C49.9941 23.1336 49.9013 22.5059 49.537 21.875C49.1728 21.2441 48.6756 20.8498 48.0841 20.658C47.4993 20.4683 46.8421 20.4828 46.1596 20.6297C44.7995 20.9223 43.2691 21.7564 41.8481 22.718C41.0716 23.2434 40.3209 23.8117 39.6397 24.3603C40.1883 23.6791 40.7566 22.9284 41.282 22.1519C42.2436 20.7309 43.0777 19.2005 43.3703 17.8404C43.5172 17.1579 43.5317 16.5007 43.342 15.9159C43.1502 15.3244 42.7559 14.8272 42.125 14.463C41.4941 14.0987 40.8664 14.0058 40.2582 14.1355C39.6569 14.2637 39.095 14.6048 38.5774 15.0732C37.5458 16.0067 36.6376 17.4943 35.8877 19.0375C35.4779 19.8808 35.112 20.7483 34.7963 21.5639C34.9308 20.6998 35.0476 19.7655 35.1144 18.8303C35.2366 17.1189 35.1938 15.3765 34.7672 14.0522C34.5531 13.3878 34.2371 12.8114 33.7804 12.3998C33.3186 11.9834 32.7285 11.75 32 11.75C31.2715 11.75 30.6814 11.9834 30.2196 12.3998C29.7629 12.8114 29.4469 13.3878 29.2328 14.0522C28.8062 15.3765 28.7634 17.1189 28.8856 18.8303C28.9524 19.7655 29.0692 20.6998 29.2037 21.5639C28.888 20.7483 28.5221 19.8808 28.1123 19.0375C27.3624 17.4943 26.4542 16.0067 25.4226 15.0732C24.905 14.6048 24.3431 14.2637 23.7418 14.1355C23.1336 14.0058 22.5059 14.0987 21.875 14.463C21.2441 14.8272 20.8498 15.3244 20.658 15.9159C20.4683 16.5007 20.4828 17.1579 20.6297 17.8404C20.9223 19.2005 21.7564 20.7309 22.718 22.1519C23.2434 22.9284 23.8117 23.6791 24.3603 24.3603C23.6791 23.8117 22.9284 23.2434 22.1519 22.718C20.7309 21.7564 19.2005 20.9223 17.8404 20.6297C17.1579 20.4828 16.5007 20.4683 15.9159 20.658C15.3244 20.8498 14.8272 21.2441 14.463 21.875C14.0987 22.5059 14.0058 23.1336 14.1355 23.7418C14.2637 24.3431 14.6048 24.905 15.0732 25.4226C16.0067 26.4542 17.4943 27.3624 19.0375 28.1123C19.8808 28.5221 20.7483 28.888 21.5639 29.2037C20.6998 29.0692 19.7655 28.9524 18.8303 28.8856C17.1189 28.7634 15.3765 28.8062 14.0522 29.2328C13.3878 29.4469 12.8114 29.7629 12.3998 30.2196C11.9834 30.6814 11.75 31.2715 11.75 32C11.75 32.7285 11.9834 33.3186 12.3998 33.7804C12.8114 34.2371 13.3878 34.5531 14.0522 34.7672C15.3765 35.1938 17.1189 35.2366 18.8303 35.1144C19.7655 35.0476 20.6998 34.9308 21.5639 34.7963C20.7483 35.112 19.8808 35.4779 19.0375 35.8877C17.4943 36.6376 16.0067 37.5458 15.0732 38.5774C14.6048 39.095 14.2637 39.6569 14.1355 40.2582C14.0058 40.8664 14.0987 41.4941 14.463 42.125C14.8272 42.7559 15.3244 43.1502 15.9159 43.342C16.5007 43.5317 17.1579 43.5172 17.8404 43.3703C19.2005 43.0777 20.7309 42.2436 22.1519 41.282C22.9284 40.7566 23.6791 40.1883 24.3603 39.6397C23.8117 40.3209 23.2434 41.0716 22.718 41.8481C21.7564 43.2691 20.9223 44.7995 20.6297 46.1596C20.4828 46.8421 20.4683 47.4993 20.658 48.0841C20.8498 48.6756 21.2441 49.1728 21.875 49.537C22.5059 49.9013 23.1336 49.9941 23.7418 49.8645C24.3431 49.7363 24.905 49.3952 25.4226 48.9268C26.4542 47.9933 27.3624 46.5057 28.1123 44.9625C28.5221 44.1192 28.888 43.2517 29.2037 42.4361C29.0692 43.3002 28.9524 44.2345 28.8856 45.1697C28.7634 46.8811 28.8062 48.6235 29.2328 49.9478C29.4469 50.6122 29.7629 51.1886 30.2196 51.6002C30.6814 52.0166 31.2715 52.25 32 52.25C32.7285 52.25 33.3186 52.0166 33.7804 51.6002C34.2371 51.1886 34.5531 50.6122 34.7672 49.9478C35.1938 48.6235 35.2366 46.8811 35.1144 45.1697C35.0476 44.2345 34.9308 43.3002 34.7963 42.4361C35.112 43.2517 35.4779 44.1192 35.8877 44.9625C36.6376 46.5057 37.5458 47.9933 38.5774 48.9268C39.095 49.3952 39.6569 49.7363 40.2582 49.8645C40.8664 49.9941 41.4941 49.9013 42.125 49.537C42.7559 49.1728 43.1502 48.6756 43.342 48.0841C43.5317 47.4993 43.5172 46.8421 43.3703 46.1596C43.0777 44.7995 42.2436 43.2691 41.282 41.8481C40.7566 41.0716 40.1883 40.3209 39.6397 39.6397C40.3209 40.1883 41.0716 40.7566 41.8481 41.282C43.2691 42.2436 44.7995 43.0777 46.1596 43.3703C46.8421 43.5172 47.4993 43.5317 48.0841 43.342C48.6756 43.1502 49.1728 42.7559 49.537 42.125C49.9013 41.4941 49.9941 40.8664 49.8645 40.2582C49.7363 39.6569 49.3952 39.095 48.9268 38.5774C47.9933 37.5458 46.5057 36.6376 44.9625 35.8877ZM36.6669 36.6669C36.5143 36.8195 36.4934 36.8404 36.4907 36.8433L36.4902 36.8438L36.4903 36.8438L36.4905 36.844L36.4907 36.8442L36.4917 36.8453L36.4922 36.8457L36.6669 36.6669ZM27.3331 27.3331C27.4855 27.1807 27.5065 27.1597 27.5093 27.1567L27.5098 27.1562L27.5097 27.1562L27.5095 27.1559L27.5093 27.1558L27.5083 27.1547L27.5078 27.1543L27.3331 27.3331ZM36.6669 27.3331C36.8194 27.4856 36.8404 27.5065 36.8433 27.5093L36.8438 27.5098L36.8438 27.5097L36.844 27.5095L36.8442 27.5093L36.8453 27.5083L36.8457 27.5078L36.6669 27.3331Z" fill="#F2995A" stroke="#111111" stroke-width="0.5"/>
<path d="M32.3222 29.8749L32.3532 30.6818L32.7835 29.9985L37.249 22.9085L33.3416 30.3207L32.965 31.035L33.6793 30.6584L41.0915 26.751L34.0015 31.2165L33.3182 31.6468L34.1251 31.6778L42.498 32L34.1251 32.3222L33.3182 32.3532L34.0015 32.7835L41.0915 37.249L33.6793 33.3416L32.965 32.965L33.3416 33.6793L37.249 41.0915L32.7835 34.0015L32.3532 33.3182L32.3222 34.1251L32 42.498L31.6778 34.1251L31.6468 33.3182L31.2165 34.0015L26.751 41.0915L30.6584 33.6793L31.035 32.965L30.3207 33.3416L22.9085 37.249L29.9985 32.7835L30.6818 32.3532L29.8749 32.3222L21.502 32L29.8749 31.6778L30.6818 31.6468L29.9985 31.2165L22.9085 26.751L30.3207 30.6584L31.035 31.035L30.6584 30.3207L26.751 22.9085L31.2165 29.9985L31.6468 30.6818L31.6778 29.8749L32 21.502L32.3222 29.8749Z" stroke="#111111" stroke-width="0.5"/>
<rect x="28.25" y="28.25" width="7.5" height="7.5" rx="3.75" fill="#FBF8EF" stroke="#111111" stroke-width="0.5"/>
<path d="M61 45V61H45L61 45Z" fill="#FBF8EF"/>
<path d="M45 3H61V19L45 3Z" fill="#FBF8EF"/>
<path d="M19 3H3V19L19 3Z" fill="#FBF8EF"/>
<path d="M19 61H3V45L19 61Z" fill="#FBF8EF"/>
</g>
<defs>
<clipPath id="clip0_379_2894">
<rect width="64" height="64" fill="white"/>
</clipPath>
</defs>
</svg>
