<svg width="64" height="64" viewBox="0 0 64 64" fill="none" xmlns="http://www.w3.org/2000/svg">
<g clip-path="url(#clip0_222_4277)">
<rect width="64" height="64" transform="translate(64 64) rotate(180)" fill="#7ECEA6"/>
<rect x="27.4375" y="17.9375" width="8" height="16" rx="2" transform="rotate(-90 27.4375 17.9375)" fill="#FBF8EF"/>
<rect x="54.4375" y="17.9375" width="8" height="16" rx="2" transform="rotate(-90 54.4375 17.9375)" fill="#FBF8EF"/>
<rect x="52.9375" y="35.4375" width="8" height="16" rx="2" transform="rotate(180 52.9375 35.4375)" fill="#FBF8EF"/>
<rect x="52.9375" y="8.43753" width="8" height="16" rx="2" transform="rotate(180 52.9375 8.43753)" fill="#FBF8EF"/>
<rect x="36.5625" y="31.9688" width="8" height="16" rx="2" transform="rotate(-135 36.5625 31.9688)" fill="#FBF8EF"/>
<rect x="55.6562" y="12.8769" width="8" height="16" rx="2" transform="rotate(-135 55.6562 12.8769)" fill="#FBF8EF"/>
<rect x="72.375" y="31.718" width="8" height="23.6453" rx="2" transform="rotate(135 72.375 31.718)" fill="#FBF8EF"/>
<rect x="47.875" y="7.22008" width="8" height="33.5807" rx="2" transform="rotate(135 47.875 7.22008)" fill="#FBF8EF"/>
<rect x="57" y="21.9374" width="16" height="16" rx="8" transform="rotate(180 57 21.9374)" fill="#FBF8EF"/>
<path d="M57 14L51.8231 15.1694L54.6569 19.6569L50.1694 16.8231L49 22L47.8306 16.8231L43.3431 19.6569L46.1769 15.1694L41 14L46.1769 12.8306L43.3431 8.34315L47.8306 11.1769L49 6L50.1694 11.1769L54.6569 8.34315L51.8231 12.8306L57 14Z" fill="#7ECEA6"/>
<rect x="-11" y="43" width="8" height="29" rx="2" transform="rotate(-90 -11 43)" fill="#FBF8EF"/>
<rect x="29" y="43" width="8" height="37" rx="2" transform="rotate(-90 29 43)" fill="#FBF8EF"/>
<rect x="28" y="70" width="8" height="26" rx="2" transform="rotate(180 28 70)" fill="#FBF8EF"/>
<rect x="28.0039" y="33" width="8" height="35" rx="2" transform="rotate(180 28.0039 33)" fill="#FBF8EF"/>
<rect x="11.5625" y="56.9688" width="8" height="16" rx="2" transform="rotate(-135 11.5625 56.9688)" fill="#FBF8EF"/>
<rect x="30.6562" y="37.8769" width="8" height="16" rx="2" transform="rotate(-135 30.6562 37.8769)" fill="#FBF8EF"/>
<rect x="41.9688" y="51.3119" width="8" height="16" rx="2" transform="rotate(135 41.9688 51.3119)" fill="#FBF8EF"/>
<rect x="22.875" y="32.22" width="8" height="16" rx="2" transform="rotate(135 22.875 32.22)" fill="#FBF8EF"/>
<rect x="32" y="46.9374" width="16" height="16" rx="8" transform="rotate(180 32 46.9374)" fill="#FBF8EF"/>
<path d="M32 39L26.8231 40.1694L29.6569 44.6569L25.1694 41.8231L24 47L22.8306 41.8231L18.3431 44.6569L21.1769 40.1694L16 39L21.1769 37.8306L18.3431 33.3431L22.8306 36.1769L24 31L25.1694 36.1769L29.6569 33.3431L26.8231 37.8306L32 39Z" fill="#7ECEA6"/>
<rect x="10.9961" y="68" width="8" height="32" rx="2" transform="rotate(-90 10.9961 68)" fill="#FBF8EF"/>
<rect x="54.4336" y="67.9375" width="8" height="16" rx="2" transform="rotate(-90 54.4336 67.9375)" fill="#FBF8EF"/>
<rect x="53" y="58" width="8" height="32" rx="2" transform="rotate(180 53 58)" fill="#FBF8EF"/>
<rect x="55.6562" y="62.8769" width="8" height="24.5194" rx="2" transform="rotate(-135 55.6562 62.8769)" fill="#FBF8EF"/>
<rect x="47.875" y="57.22" width="8" height="16" rx="2" transform="rotate(135 47.875 57.22)" fill="#FBF8EF"/>
<rect x="57" y="71.9374" width="16" height="16" rx="8" transform="rotate(180 57 71.9374)" fill="#FBF8EF"/>
<path d="M57 64L51.8231 65.1694L54.6569 69.6569L50.1694 66.8231L49 72L47.8306 66.8231L43.3431 69.6569L46.1769 65.1694L41 64L46.1769 62.8306L43.3431 58.3431L47.8306 61.1769L49 56L50.1694 61.1769L54.6569 58.3431L51.8231 62.8306L57 64Z" fill="#7ECEA6"/>
<rect x="4" y="18" width="8" height="32" rx="2" transform="rotate(-90 4 18)" fill="#FBF8EF"/>
<rect x="2.99609" y="48" width="8" height="29" rx="2" transform="rotate(180 2.99609 48)" fill="#FBF8EF"/>
<rect x="2.9375" y="8.43755" width="8" height="16" rx="2" transform="rotate(180 2.9375 8.43755)" fill="#FBF8EF"/>
<rect x="5.65625" y="12.8769" width="8" height="32.9882" rx="2" transform="rotate(-135 5.65625 12.8769)" fill="#FBF8EF"/>
<rect x="16.9688" y="26.3119" width="8" height="16" rx="2" transform="rotate(135 16.9688 26.3119)" fill="#FBF8EF"/>
<rect x="7" y="21.9374" width="16" height="16" rx="8" transform="rotate(180 7 21.9374)" fill="#FBF8EF"/>
<path d="M28 14L25.0804 15.0804L24 18L22.9196 15.0804L20 14L22.9196 12.9196L24 10L25.0804 12.9196L28 14Z" fill="#7ECEA6"/>
<path d="M53 39L50.0804 40.0804L49 43L47.9196 40.0804L45 39L47.9196 37.9196L49 35L50.0804 37.9196L53 39Z" fill="#7ECEA6"/>
<path d="M28 64L25.0804 65.0804L24 68L22.9196 65.0804L20 64L22.9196 62.9196L24 60L25.0804 62.9196L28 64Z" fill="#7ECEA6"/>
<path d="M7 14L1.82313 15.1694L4.65686 19.6569L0.169377 16.8231L-0.999999 22L-2.16938 16.8231L-6.65685 19.6569L-3.82312 15.1694L-9 14L-3.82312 12.8306L-6.65686 8.34315L-2.16938 11.1769L-1 6L0.169377 11.1769L4.65685 8.34315L1.82312 12.8306L7 14Z" fill="#7ECEA6"/>
<rect x="4" y="68" width="8" height="11" rx="2" transform="rotate(-90 4 68)" fill="#FBF8EF"/>
<rect x="2.9375" y="58.4375" width="8" height="16" rx="2" transform="rotate(180 2.9375 58.4375)" fill="#FBF8EF"/>
<rect x="5.65625" y="62.8769" width="8" height="16" rx="2" transform="rotate(-135 5.65625 62.8769)" fill="#FBF8EF"/>
<rect x="7" y="71.9374" width="16" height="16" rx="8" transform="rotate(180 7 71.9374)" fill="#FBF8EF"/>
<path d="M7 64.0001L1.82313 65.1694L4.65686 69.6569L0.169377 66.8232L-0.999999 72.0001L-2.16938 66.8232L-6.65685 69.6569L-3.82312 65.1694L-9 64.0001L-3.82312 62.8307L-6.65686 58.3432L-2.16938 61.1769L-1 56.0001L0.169377 61.1769L4.65685 58.3432L1.82312 62.8307L7 64.0001Z" fill="#7ECEA6"/>
</g>
<defs>
<clipPath id="clip0_222_4277">
<rect width="64" height="64" fill="white" transform="translate(64 64) rotate(180)"/>
</clipPath>
</defs>
</svg>
