<svg width="64" height="64" viewBox="0 0 64 64" fill="none" xmlns="http://www.w3.org/2000/svg">
<g clip-path="url(#clip0_2741_2141)">
<rect width="64" height="64" fill="#FBF8EF"/>
<path d="M2.7298 53.3017C2.7298 53.3017 19.7165 53.2577 13.3336 45.0527C7.46715 37.5117 2.7298 53.3017 2.7298 53.3017Z" fill="#63BCE5"/>
<path fill-rule="evenodd" clip-rule="evenodd" d="M13.41 45.1482C13.3553 45.0751 3.74899 52.7134 3.74899 52.7134C3.74899 52.7134 13.8889 45.8267 13.7588 45.6329C13.6287 45.4391 13.4946 45.2612 13.41 45.1482Z" fill="#111111"/>
<path d="M7.11931 61.1155C7.11931 61.1155 9.29617 41.1401 18.1488 49.6746C26.2851 57.5185 7.11931 61.1155 7.11931 61.1155Z" fill="#63BCE5"/>
<path fill-rule="evenodd" clip-rule="evenodd" d="M18.0463 49.5725C18.1254 49.646 7.939 59.99 7.939 59.99C7.939 59.99 17.3082 48.9245 17.5198 49.1017C17.7315 49.279 17.9239 49.459 18.0463 49.5725Z" fill="#111111"/>
<path d="M55.8407 61.3602C55.8407 61.3602 36.0631 57.811 45.1877 49.568C53.574 41.992 55.8407 61.3602 55.8407 61.3602Z" fill="#63BCE5"/>
<path fill-rule="evenodd" clip-rule="evenodd" d="M45.0785 49.6634C45.1572 49.5895 54.7742 60.465 54.7742 60.465C54.7742 60.465 44.381 50.355 44.5724 50.1561C44.7639 49.9571 44.9567 49.7776 45.0785 49.6634Z" fill="#111111"/>
<path d="M8.81407 2.67824C8.81407 2.67824 28.5445 6.4814 19.3146 14.6064C10.8316 22.074 8.81407 2.67824 8.81407 2.67824Z" fill="#63BCE5"/>
<path fill-rule="evenodd" clip-rule="evenodd" d="M19.4253 14.5122C19.3456 14.5851 9.86925 3.58688 9.86925 3.58688C9.86925 3.58688 20.1316 13.8296 19.9376 14.0261C19.7436 14.2225 19.5485 14.3996 19.4253 14.5122Z" fill="#111111"/>
<path d="M56.0353 2.16394C56.0353 2.16394 55.6657 22.2542 46.0807 14.5514C37.2712 7.47186 56.0353 2.16394 56.0353 2.16394Z" fill="#63BCE5"/>
<path fill-rule="evenodd" clip-rule="evenodd" d="M46.1918 14.6444C46.1064 14.5784 55.3201 3.35928 55.3201 3.35928C55.3201 3.35928 46.9853 15.2234 46.7585 15.066C46.5318 14.9085 46.3239 14.7465 46.1918 14.6444Z" fill="#111111"/>
<path d="M4.02074 12.8992C4.02074 12.8992 20.8471 10.5699 15.6729 19.586C10.9173 27.8726 4.02074 12.8992 4.02074 12.8992Z" fill="#63BCE5"/>
<path fill-rule="evenodd" clip-rule="evenodd" d="M15.7354 19.4813C15.6914 19.5613 5.11229 13.3398 5.11229 13.3398C5.11229 13.3398 16.1147 18.7426 16.013 18.9527C15.9112 19.1627 15.8033 19.3576 15.7354 19.4813Z" fill="#111111"/>
<path d="M61.8621 11.8992C61.8621 11.8992 45.0358 9.56992 50.21 18.586C54.9655 26.8726 61.8621 11.8992 61.8621 11.8992Z" fill="#63BCE5"/>
<path fill-rule="evenodd" clip-rule="evenodd" d="M50.1474 18.4813C50.1914 18.5613 60.7705 12.3398 60.7705 12.3398C60.7705 12.3398 49.7681 17.7426 49.8698 17.9527C49.9716 18.1627 50.0795 18.3576 50.1474 18.4813Z" fill="#111111"/>
<path d="M60.3581 53.0575C60.3581 53.0575 43.3714 53.0135 49.7543 44.8086C55.6207 37.2676 60.3581 53.0575 60.3581 53.0575Z" fill="#63BCE5"/>
<path fill-rule="evenodd" clip-rule="evenodd" d="M49.6779 44.9041C49.7326 44.831 59.3389 52.4693 59.3389 52.4693C59.3389 52.4693 49.199 45.5825 49.3291 45.3887C49.4592 45.195 49.5933 45.0171 49.6779 44.9041Z" fill="#111111"/>
<path d="M32 3.5C32.9695 3.5 33.7203 3.77897 34.2246 4.35645C34.7142 4.91735 34.8978 5.67858 34.9297 6.4873C34.9929 8.08961 34.4638 10.2099 33.959 12.2754C33.4419 14.391 32.9429 16.4747 32.9717 18.1377C32.986 18.9626 33.1306 19.6336 33.4287 20.1367C33.7169 20.6229 34.1712 20.9919 34.8975 21.1865L35.1631 21.2461C35.7669 21.3549 36.2632 21.254 36.6943 21.0117C37.2041 20.7251 37.6649 20.2162 38.0898 19.5088C38.9462 18.0829 39.556 16.0292 40.166 13.9385C40.7616 11.8974 41.3629 9.79646 42.2187 8.44043C42.6508 7.75589 43.1908 7.18814 43.8955 6.94727C44.621 6.69931 45.4104 6.83359 46.25 7.31836L46.5566 7.5127C47.239 7.98559 47.6901 8.59702 47.9336 9.30957C48.2075 10.1116 48.2078 11.0063 48.0381 11.9229C47.7003 13.747 46.6637 15.7897 45.4717 17.6719C44.8459 18.6599 44.1681 19.6157 43.5098 20.4893C44.3834 19.8309 45.34 19.1541 46.3281 18.5283C48.2103 17.3363 50.253 16.2997 52.0771 15.9619C52.9937 15.7922 53.8884 15.7925 54.6904 16.0664C55.5048 16.3447 56.1873 16.8938 56.6816 17.75L56.8467 18.0625C57.1937 18.786 57.2697 19.4697 57.0527 20.1045C56.8119 20.8092 56.2441 21.3491 55.5596 21.7812C54.2035 22.6371 52.1026 23.2384 50.0615 23.834C47.9708 24.444 45.9171 25.0537 44.4912 25.9102C43.7838 26.3351 43.2749 26.7959 42.9883 27.3057C42.7113 27.7984 42.6189 28.3763 42.8135 29.1025L42.8945 29.3623C43.1022 29.9397 43.4379 30.3191 43.8633 30.5713C44.3664 30.8694 45.0374 31.014 45.8623 31.0283C47.5253 31.0571 49.609 30.5581 51.7246 30.041C53.7901 29.5362 55.9104 29.0071 57.5127 29.0703C58.3214 29.1022 59.0826 29.2858 59.6436 29.7754C60.221 30.2797 60.5 31.0305 60.5 32C60.5 32.9887 60.1833 33.805 59.6172 34.4531C59.0596 35.0915 58.285 35.5392 57.4062 35.8506C55.6576 36.4702 53.3706 36.5942 51.1445 36.5029C49.9742 36.455 48.8058 36.3455 47.7187 36.2119C48.727 36.6398 49.7936 37.1292 50.8311 37.6728C52.8044 38.7068 54.7231 39.9573 55.9277 41.3682C56.5331 42.0772 56.9798 42.8529 57.1436 43.6846C57.2889 44.4233 57.2051 45.178 56.8506 45.9287L56.6816 46.25C56.1969 47.0896 55.5804 47.6 54.8281 47.748C54.0974 47.8918 53.3464 47.6707 52.6299 47.2939C51.2106 46.5475 49.639 45.0286 48.1025 43.5586C46.5289 42.053 44.9741 40.5791 43.5195 39.7725C42.7979 39.3723 42.1444 39.1623 41.5596 39.1689C40.9944 39.1754 40.4476 39.3844 39.916 39.916C39.3844 40.4476 39.1754 40.9944 39.1689 41.5596C39.1623 42.1444 39.3723 42.7979 39.7725 43.5195C40.5791 44.9741 42.053 46.5289 43.5586 48.1025C45.0286 49.639 46.5475 51.2106 47.2939 52.6299C47.6707 53.3464 47.8918 54.0974 47.748 54.8281C47.6185 55.4863 47.2119 56.0411 46.5498 56.4941L46.25 56.6816C45.3939 57.1759 44.5289 57.3097 43.6846 57.1436C42.8529 56.9798 42.0772 56.5331 41.3682 55.9277C39.9573 54.7231 38.7068 52.8044 37.6728 50.8311C37.1292 49.7936 36.6398 48.727 36.2119 47.7187C36.3455 48.8058 36.455 49.9742 36.5029 51.1445C36.5942 53.3706 36.4702 55.6576 35.8506 57.4062C35.5392 58.285 35.0915 59.0596 34.4531 59.6172C33.805 60.1833 32.9887 60.5 32 60.5C31.0305 60.5 30.2797 60.221 29.7754 59.6436C29.2858 59.0826 29.1022 58.3214 29.0703 57.5127C29.0071 55.9104 29.5362 53.7901 30.041 51.7246C30.5581 49.609 31.0571 47.5253 31.0283 45.8623C31.014 45.0374 30.8694 44.3664 30.5713 43.8633C30.3191 43.4379 29.9397 43.1022 29.3623 42.8945L29.1025 42.8135C28.3763 42.6189 27.7984 42.7113 27.3057 42.9883C26.7959 43.2749 26.3351 43.7838 25.9102 44.4912C25.0537 45.9171 24.444 47.9708 23.834 50.0615C23.2384 52.1026 22.6371 54.2035 21.7812 55.5596C21.3491 56.2441 20.8092 56.8119 20.1045 57.0527C19.4697 57.2697 18.786 57.1937 18.0625 56.8467L17.75 56.6816C16.8938 56.1873 16.3447 55.5048 16.0664 54.6904C15.7925 53.8884 15.7922 52.9937 15.9619 52.0771C16.2997 50.253 17.3363 48.2103 18.5283 46.3281C19.1541 45.34 19.8309 44.3834 20.4893 43.5098C19.6157 44.1681 18.6599 44.8459 17.6719 45.4717C15.7897 46.6637 13.747 47.7003 11.9229 48.0381C11.0063 48.2078 10.1116 48.2075 9.30957 47.9336C8.59702 47.6901 7.98559 47.239 7.5127 46.5566L7.31836 46.25C6.83359 45.4104 6.69931 44.621 6.94727 43.8955C7.18814 43.1908 7.75589 42.6508 8.44043 42.2187C9.79646 41.3629 11.8974 40.7616 13.9385 40.166C16.0292 39.556 18.0829 38.9462 19.5088 38.0898C20.2162 37.6649 20.7251 37.2041 21.0117 36.6943C21.254 36.2632 21.3549 35.7669 21.2461 35.1631L21.1865 34.8975C20.9919 34.1712 20.6229 33.7169 20.1367 33.4287C19.6336 33.1306 18.9626 32.986 18.1377 32.9717C16.4747 32.9429 14.391 33.4419 12.2754 33.959C10.2099 34.4638 8.08961 34.9929 6.4873 34.9297C5.67858 34.8978 4.91735 34.7142 4.35645 34.2246C3.77897 33.7203 3.5 32.9695 3.5 32C3.5 31.0113 3.81667 30.195 4.38281 29.5469C4.94041 28.9085 5.71501 28.4608 6.59375 28.1494C8.34244 27.5298 10.6294 27.4058 12.8555 27.4971C14.0254 27.545 15.1935 27.6536 16.2803 27.7871C15.2724 27.3594 14.206 26.8705 13.1689 26.3271C11.1956 25.2932 9.2769 24.0427 8.07227 22.6318C7.4669 21.9228 7.02015 21.1471 6.85645 20.3154C6.69033 19.4711 6.82407 18.6061 7.31836 17.75C7.80312 16.9104 8.41962 16.4 9.17187 16.252C9.90259 16.1082 10.6536 16.3293 11.3701 16.7061C12.7894 17.4525 14.3609 18.9714 15.8975 20.4414C17.4711 21.947 19.0259 23.4209 20.4805 24.2275C21.2021 24.6277 21.8556 24.8377 22.4404 24.8311C23.0056 24.8246 23.5524 24.6156 24.084 24.084C24.6156 23.5524 24.8246 23.0056 24.8311 22.4404C24.8377 21.8556 24.6277 21.2021 24.2275 20.4805C23.4209 19.0259 21.947 17.4711 20.4414 15.8975C18.9714 14.3609 17.4525 12.7894 16.7061 11.3701C16.3293 10.6536 16.1082 9.90259 16.252 9.17187C16.4 8.41962 16.9104 7.80312 17.75 7.31836C18.6061 6.82407 19.4711 6.69033 20.3154 6.85645C21.1471 7.02015 21.9228 7.4669 22.6318 8.07227C24.0427 9.2769 25.2932 11.1956 26.3271 13.1689C26.8705 14.206 27.3594 15.2724 27.7871 16.2803C27.6536 15.1935 27.545 14.0254 27.4971 12.8555C27.4058 10.6294 27.5298 8.34244 28.1494 6.59375C28.4608 5.71501 28.9085 4.94041 29.5469 4.38281C30.195 3.81667 31.0113 3.5 32 3.5Z" fill="#FBF8EF" stroke="#111111"/>
<path d="M40.4145 4.77137C41.3408 5.05767 41.9757 5.54591 42.287 6.24656C42.5892 6.92704 42.5397 7.70851 42.3314 8.4906C41.9186 10.0401 40.787 11.9096 39.6947 13.7339C38.576 15.6025 37.4839 17.4458 37.0203 19.0432C36.7903 19.8356 36.7303 20.5193 36.8666 21.088C36.9984 21.6376 37.3235 22.1244 37.9598 22.5248L38.196 22.6601C38.7407 22.9424 39.2448 22.9926 39.7282 22.8884C40.2999 22.765 40.8904 22.415 41.5053 21.8646C42.7446 20.7552 43.9336 18.9731 45.1338 17.1558C46.3056 15.3816 47.5005 13.552 48.7186 12.5091C49.3336 11.9827 50.0172 11.5998 50.7615 11.5777C51.5279 11.5551 52.2424 11.9165 52.9014 12.6276L53.137 12.9038C53.6493 13.5571 53.8997 14.2745 53.9219 15.0271C53.9468 15.8743 53.6828 16.7292 53.25 17.5547C52.3886 19.1978 50.7951 20.8432 49.1004 22.2895C48.2107 23.0487 47.2809 23.7616 46.394 24.4019C47.423 24.0308 48.5369 23.6668 49.6657 23.3607C51.816 22.7776 54.0736 22.3905 55.9162 22.6064C56.842 22.715 57.6968 22.9794 58.3821 23.478C59.078 23.9843 59.5679 24.7105 59.7873 25.6745L59.8527 26.0218C59.9706 26.8155 59.8413 27.4911 59.4466 28.0336C59.0083 28.6357 58.3064 28.9839 57.5248 29.1946C55.9765 29.6118 53.7918 29.5659 51.6658 29.5322C49.4882 29.4976 47.346 29.4737 45.7308 29.8708C44.9295 30.0679 44.3072 30.3579 43.8828 30.7603C43.4727 31.1492 43.2137 31.6741 43.1852 32.4254L43.1859 32.6975C43.2138 33.3104 43.4224 33.7721 43.7544 34.1386C44.147 34.572 44.7454 34.9084 45.5293 35.1656C47.1097 35.6842 49.2477 35.8228 51.4217 35.9535C53.5442 36.0812 55.7261 36.2019 57.2383 36.7354C58.0016 37.0047 58.6747 37.4048 59.066 38.0383C59.4687 38.6906 59.5136 39.4903 59.2273 40.4166C58.9353 41.3612 58.3917 42.0475 57.6594 42.4996C56.9381 42.9448 56.0659 43.1439 55.1344 43.1818C53.2807 43.2574 51.0591 42.7005 48.9593 41.956C47.8553 41.5645 46.7714 41.1149 45.7722 40.6663C46.6092 41.3728 47.4836 42.1554 48.3143 42.9811C49.8943 44.5518 51.3581 46.3131 52.0924 48.0167C52.4614 48.8729 52.6592 49.7459 52.57 50.5889C52.4907 51.3376 52.1877 52.0339 51.6274 52.6464L51.3711 52.9035C50.66 53.5625 49.9202 53.8681 49.1578 53.7874C48.4173 53.7089 47.765 53.2759 47.1917 52.7044C46.0561 51.5721 45.0032 49.6569 43.9694 47.7986C42.9105 45.8955 41.8603 44.0282 40.7088 42.828C40.1375 42.2326 39.5752 41.8389 39.0145 41.6726C38.4726 41.5119 37.8885 41.55 37.2236 41.901C36.5587 42.2519 36.1976 42.7126 36.0245 43.2506C35.8455 43.8074 35.8531 44.4938 36.0223 45.3014C36.3634 46.9293 37.3125 48.85 38.2862 50.7981C39.2369 52.7002 40.224 54.6502 40.518 56.2266C40.6664 57.0224 40.6558 57.8052 40.3027 58.4609C39.9846 59.0515 39.4323 59.4615 38.6659 59.6988L38.3241 59.7894C37.3602 60.0088 36.4943 59.8811 35.7367 59.4731C34.9904 59.0711 34.3813 58.4152 33.8826 57.6274C32.8904 56.0599 32.2623 53.8575 31.8572 51.6668C31.6442 50.515 31.4915 49.3515 31.3805 48.2619C31.1871 49.3399 30.9466 50.4885 30.6469 51.6208C30.0767 53.7745 29.2828 55.9229 28.1745 57.4106C27.6175 58.1582 26.961 58.7661 26.1865 59.1103C25.4 59.4598 24.5267 59.5213 23.582 59.2293C22.6558 58.943 22.0208 58.4548 21.7096 57.7541C21.4074 57.0736 21.4569 56.2922 21.6652 55.5101C22.078 53.9606 23.2096 52.0911 24.3019 50.2668C25.4206 48.3982 26.5127 46.5548 26.9763 44.9575C27.2063 44.1651 27.2663 43.4813 27.13 42.9126C27.0147 42.4317 26.7513 41.999 26.261 41.6301L26.0368 41.4759C25.4004 41.0755 24.8209 40.9932 24.2684 41.1123C23.6967 41.2356 23.1062 41.5857 22.4913 42.1361C21.252 43.2455 20.063 45.0275 18.8628 46.8449C17.691 48.6191 16.4961 50.4487 15.278 51.4915C14.663 52.0179 13.9794 52.4009 13.235 52.4229C12.5645 52.4428 11.9337 52.1683 11.345 51.6231L11.0951 51.3731C10.4231 50.6479 10.1 49.8337 10.0747 48.9735C10.0498 48.1264 10.3137 47.2715 10.7465 46.4459C11.608 44.8028 13.2015 43.1574 14.8962 41.7112C15.7859 40.952 16.715 40.2378 17.602 39.5976C16.573 39.9686 15.4596 40.3339 14.3309 40.64C12.1806 41.2231 9.92297 41.6102 8.08038 41.3942C7.15459 41.2857 6.29983 41.0212 5.6145 40.5227C5.00562 40.0797 4.55467 39.4681 4.30439 38.6765L4.20927 38.3262C3.99407 37.3808 4.09888 36.587 4.55002 35.9671C4.98825 35.365 5.69014 35.0167 6.47175 34.806C8.02004 34.3888 10.2048 34.4347 12.3308 34.4685C14.5084 34.503 16.6506 34.527 18.2658 34.1298C19.0671 33.9328 19.6894 33.6428 20.1138 33.2404C20.4726 32.9001 20.7156 32.4557 20.7899 31.8466L20.8114 31.5753C20.84 30.824 20.6216 30.2809 20.2422 29.862C19.8496 29.4286 19.2512 29.0923 18.4673 28.835C16.8869 28.3165 14.7488 28.1779 12.5749 28.0471C10.4524 27.9195 8.27043 27.7988 6.75825 27.2653C5.99502 26.9959 5.32193 26.5958 4.93063 25.9624C4.52783 25.31 4.48302 24.5104 4.76933 23.5841C5.0613 22.6395 5.60489 21.9531 6.33719 21.5011C7.05844 21.0558 7.93071 20.8568 8.86221 20.8188C10.7159 20.7433 12.9375 21.3002 15.0373 22.0447C16.1409 22.436 17.2248 22.8846 18.2237 23.3332C17.3871 22.6269 16.5127 21.8449 15.6823 21.0195C14.1023 19.4489 12.6384 17.6876 11.9042 15.9839C11.5352 15.1278 11.3374 14.2547 11.4266 13.4118C11.5172 12.5561 11.9004 11.7692 12.6255 11.0972C13.3366 10.4382 14.0763 10.1326 14.8388 10.2133C15.5793 10.2917 16.2316 10.7247 16.8049 11.2963C17.9405 12.4286 18.9934 14.3438 20.0272 16.202C21.0861 18.1052 22.1362 19.9725 23.2878 21.1727C23.859 21.7681 24.4214 22.1617 24.9821 22.3281C25.524 22.4888 26.108 22.4506 26.773 22.0997C27.4379 21.7488 27.799 21.2881 27.9721 20.7501C28.1511 20.1933 28.1434 19.5069 27.9743 18.6993C27.6332 17.0714 26.6841 15.1507 25.7104 13.2026C24.7596 11.3005 23.7726 9.35051 23.4786 7.77408C23.3302 6.97828 23.3407 6.19545 23.6939 5.53978C24.0574 4.86478 24.7271 4.42651 25.6725 4.21131C26.6364 3.99189 27.5023 4.11955 28.2599 4.52758C29.0061 4.92959 29.6153 5.58548 30.114 6.37323C31.1062 7.94078 31.7343 10.1431 32.1394 12.3339C32.3523 13.4852 32.5044 14.6483 32.6154 15.7376C32.8088 14.6598 33.05 13.5117 33.3497 12.3799C33.9199 10.2261 34.7137 8.07778 35.8221 6.59004C36.379 5.84243 37.0356 5.2346 37.8101 4.89038C38.5966 4.54089 39.4699 4.47939 40.4145 4.77137Z" fill="#FBF8EF" stroke="#111111"/>
<path d="M38.2476 8.64352C39.0723 8.86448 39.6858 9.31271 40.1021 9.93304C40.511 10.5425 40.7095 11.2871 40.7721 12.081C40.8966 13.6596 40.4937 15.5654 39.9313 17.3657C39.6905 18.1366 39.4157 18.897 39.1349 19.6172C39.6183 19.0139 40.1407 18.3961 40.6879 17.802C41.9659 16.4149 43.4151 15.1133 44.8444 14.4319C45.5633 14.0892 46.3077 13.889 47.0401 13.9385C47.7854 13.9888 48.48 14.2959 49.0836 14.8995L49.2958 15.1303C49.7597 15.6778 50.0004 16.2912 50.0444 16.9434C50.0938 17.6757 49.8939 18.4198 49.5512 19.1386C48.8698 20.568 47.568 22.0176 46.1808 23.2956C45.5869 23.8428 44.9681 24.363 44.365 24.8463C45.0852 24.5656 45.8463 24.2923 46.6172 24.0515C48.4174 23.4892 50.323 23.0865 51.9016 23.2109C52.6956 23.2735 53.4409 23.4717 54.0504 23.8807C54.6708 24.297 55.118 24.9108 55.3389 25.7354L55.4086 26.0412C55.5366 26.7473 55.4383 27.3991 55.1504 27.9859C54.8271 28.6448 54.2807 29.1884 53.6245 29.6396C52.3197 30.5366 50.468 31.1409 48.6277 31.5541C47.8393 31.7311 47.0429 31.8732 46.2785 31.9902C47.0428 32.1072 47.8389 32.2505 48.6272 32.4275C50.4674 32.8406 52.3195 33.4448 53.6243 34.3417C54.2805 34.7929 54.8271 35.3373 55.1504 35.9962C55.4795 36.6668 55.5599 37.4221 55.3391 38.2467C55.1181 39.0713 54.6708 39.6851 54.0505 40.1014C53.4409 40.5104 52.6955 40.7085 51.9016 40.7712C50.323 40.8956 48.4171 40.4927 46.6168 39.9304C45.8456 39.6895 45.0849 39.4146 44.3644 39.1337C44.968 39.6174 45.5861 40.1394 46.1805 40.687C47.5677 41.9649 48.8692 43.4141 49.5507 44.8434C49.8934 45.5624 50.0945 46.307 50.0451 47.0394C50.001 47.6913 49.7602 48.3044 49.2966 48.8518L49.083 49.0827C48.4795 49.6862 47.7853 49.9933 47.0401 50.0437C46.3077 50.0932 45.5629 49.8931 44.8439 49.5503C43.4147 48.8688 41.9657 47.5672 40.6879 46.1801C40.1404 45.5859 39.6188 44.9673 39.1353 44.3638C39.4162 45.0843 39.6911 45.8453 39.932 46.6165C40.4943 48.4167 40.897 50.3224 40.7726 51.9009C40.71 52.6949 40.5109 53.4399 40.1019 54.0495C39.7376 54.5923 39.2226 55.0032 38.547 55.2454L38.2481 55.3382C37.4236 55.5592 36.6682 55.4787 35.9976 55.1497C35.3385 54.8264 34.7942 54.2799 34.343 53.6236C33.446 52.3187 32.8416 50.467 32.4285 48.6268C32.2514 47.8382 32.1084 47.0418 31.9914 46.2773C31.8744 47.0417 31.7321 47.8379 31.5551 48.6263C31.142 50.4665 30.5379 52.3185 29.6409 53.6234C29.1896 54.2797 28.6454 54.8261 27.9864 55.1495C27.3157 55.4785 26.5605 55.5591 25.7359 55.3381C24.9113 55.1171 24.2974 54.6698 23.8812 54.0495C23.4722 53.44 23.274 52.6945 23.2114 51.9006C23.0871 50.3221 23.4899 48.4161 24.0522 46.6159C24.2931 45.8447 24.5671 45.0836 24.8479 44.3632C24.3644 44.9667 23.843 45.5853 23.2956 46.1796C22.0176 47.5668 20.5684 48.8683 19.1391 49.5497C18.4203 49.8924 17.6764 50.0938 16.9441 50.0444C16.292 50.0003 15.6783 49.7595 15.1308 49.2956L14.9008 49.0823C14.2971 48.4787 13.9892 47.7845 13.9389 47.0391C13.8894 46.3067 14.0905 45.5622 14.4332 44.8432C15.1147 43.414 16.4163 41.9651 17.8034 40.6872C18.3974 40.1399 19.0146 39.6175 19.6178 39.1341C18.8977 39.4148 18.1378 39.6905 17.367 39.9313C15.5666 40.4937 13.6603 40.8962 12.0817 40.7717C11.2879 40.709 10.5435 40.5101 9.93401 40.1012C9.39122 39.7369 8.98031 39.2218 8.73808 38.5463L8.64433 38.2472C8.42339 37.4226 8.50478 36.6675 8.83379 35.9969C9.15714 35.3379 9.70271 34.7933 10.359 34.3421C11.6638 33.445 13.5156 32.8407 15.3558 32.4275C16.1439 32.2506 16.9402 32.1072 17.7043 31.9902C16.9403 31.8732 16.1443 31.7311 15.3563 31.5541C13.5159 31.141 11.6641 30.537 10.3592 29.6399C9.70298 29.1887 9.15738 28.6446 8.83401 27.9857C8.50493 27.315 8.4235 26.5596 8.64446 25.7349C8.86545 24.9104 9.31372 24.2967 9.93399 23.8805C10.5435 23.4717 11.2882 23.2731 12.082 23.2105C13.6605 23.086 15.5664 23.4889 17.3667 24.0512C18.1375 24.292 18.8983 24.566 19.6184 24.8467C19.0153 24.3634 18.3969 23.8418 17.803 23.2946C16.4159 22.0167 15.1143 20.5674 14.4329 19.1382C14.0903 18.4195 13.8898 17.6756 13.9392 16.9434C13.9895 16.1982 14.2967 15.5035 14.9002 14.8999C15.5039 14.2962 16.199 13.9885 16.9444 13.9382C17.6766 13.8888 18.4206 14.0896 19.1393 14.4323C20.5687 15.1138 22.0183 16.4155 23.2963 17.8027C23.8435 18.3967 24.3649 19.0146 24.8482 19.6178C24.5675 18.8976 24.293 18.1372 24.0522 17.3663C23.4899 15.5659 23.0873 13.6596 23.2118 12.081C23.2745 11.2872 23.4725 10.5425 23.8814 9.93307C24.2977 9.31274 24.9117 8.8646 25.7363 8.64364C26.5609 8.42278 27.3161 8.50406 27.9866 8.8331C28.6454 9.15642 29.1894 9.702 29.6405 10.358C30.5375 11.6628 31.1419 13.5147 31.555 15.3549C31.7319 16.1428 31.8745 16.9391 31.9914 17.7031C32.1084 16.9391 32.2515 16.1433 32.4284 15.3553C32.8416 13.515 33.4456 11.6631 34.3427 10.3583C34.7938 9.70212 35.3381 9.15646 35.9969 8.83306C36.6675 8.50401 37.4231 8.42263 38.2476 8.64352Z" fill="#63BCE5" stroke="#111111"/>
<path d="M32 16.5C32.5834 16.5 33.0754 16.6885 33.4668 17.0303C33.8484 17.3636 34.1061 17.8183 34.2812 18.3125C34.6282 19.2919 34.6937 20.5526 34.6445 21.7529C34.6381 21.9107 34.6284 22.0687 34.6182 22.2256C34.6878 22.0845 34.7597 21.9437 34.833 21.8037C35.3907 20.7394 36.0778 19.6797 36.8682 19.0049C37.2669 18.6645 37.7178 18.4006 38.2148 18.3027C38.7245 18.2025 39.2449 18.2846 39.75 18.5762L39.9316 18.6914C40.3359 18.9718 40.6079 19.3394 40.7549 19.7695C40.9186 20.2489 40.9158 20.7716 40.8203 21.2871C40.631 22.3089 40.0559 23.4332 39.4131 24.4482C39.328 24.5825 39.2402 24.715 39.1523 24.8467C39.284 24.7587 39.4174 24.672 39.5518 24.5869C40.5668 23.9441 41.6911 23.369 42.7129 23.1797C43.2284 23.0842 43.7511 23.0814 44.2305 23.2451C44.7222 23.4131 45.1321 23.7448 45.4238 24.25L45.5234 24.4404C45.7332 24.8853 45.785 25.3393 45.6973 25.7852C45.5994 26.2822 45.3355 26.7331 44.9951 27.1318C44.3203 27.9222 43.2606 28.6093 42.1963 29.167C42.0562 29.2404 41.9146 29.3112 41.7734 29.3809C41.9306 29.3706 42.089 29.3619 42.2471 29.3555C43.4474 29.3063 44.7081 29.3718 45.6875 29.7187C46.1817 29.8939 46.6364 30.1516 46.9697 30.5332C47.3115 30.9246 47.5 31.4166 47.5 32C47.5 32.5834 47.3115 33.0754 46.9697 33.4668C46.6364 33.8484 46.1817 34.1061 45.6875 34.2812C44.7081 34.6282 43.4474 34.6937 42.2471 34.6445C42.089 34.6381 41.9306 34.6284 41.7734 34.6182C41.9148 34.6879 42.0561 34.7595 42.1963 34.833C43.2606 35.3907 44.3203 36.0778 44.9951 36.8682C45.3355 37.2669 45.5994 37.7178 45.6973 38.2148C45.785 38.6607 45.7332 39.1147 45.5234 39.5596L45.4238 39.75C45.1321 40.2552 44.7222 40.5869 44.2305 40.7549C43.7511 40.9186 43.2284 40.9158 42.7129 40.8203C41.6911 40.631 40.5668 40.0559 39.5518 39.4131C39.4172 39.3279 39.2842 39.2404 39.1523 39.1523C39.2404 39.2842 39.3279 39.4172 39.4131 39.5518C40.0559 40.5668 40.631 41.6911 40.8203 42.7129C40.9158 43.2284 40.9186 43.7511 40.7549 44.2305C40.6079 44.6606 40.3358 45.0282 39.9316 45.3086L39.75 45.4238C39.2449 45.7154 38.7245 45.7975 38.2148 45.6973C37.7178 45.5994 37.2669 45.3355 36.8682 44.9951C36.0778 44.3203 35.3907 43.2606 34.833 42.1963C34.7595 42.0561 34.6879 41.9148 34.6182 41.7734C34.6284 41.9306 34.6381 42.089 34.6445 42.2471C34.6937 43.4474 34.6282 44.7081 34.2812 45.6875C34.1061 46.1817 33.8484 46.6364 33.4668 46.9697C33.0754 47.3115 32.5834 47.5 32 47.5C31.4166 47.5 30.9246 47.3115 30.5332 46.9697C30.1516 46.6364 29.8939 46.1817 29.7187 45.6875C29.3718 44.7081 29.3063 43.4474 29.3555 42.2471C29.3619 42.089 29.3706 41.9306 29.3809 41.7734C29.3112 41.9146 29.2404 42.0562 29.167 42.1963C28.6093 43.2606 27.9222 44.3203 27.1318 44.9951C26.7331 45.3355 26.2822 45.5994 25.7852 45.6973C25.3393 45.785 24.8853 45.7332 24.4404 45.5234L24.25 45.4238C23.7448 45.1321 23.4131 44.7222 23.2451 44.2305C23.0814 43.7511 23.0842 43.2284 23.1797 42.7129C23.369 41.6911 23.9441 40.5668 24.5869 39.5518C24.672 39.4174 24.7587 39.284 24.8467 39.1523C24.715 39.2402 24.5825 39.328 24.4482 39.4131C23.4332 40.0559 22.3089 40.631 21.2871 40.8203C20.7716 40.9158 20.2489 40.9186 19.7695 40.7549C19.3394 40.6079 18.9718 40.3359 18.6914 39.9316L18.5762 39.75C18.2846 39.2449 18.2025 38.7245 18.3027 38.2148C18.4006 37.7178 18.6645 37.2669 19.0049 36.8682C19.6797 36.0778 20.7394 35.3907 21.8037 34.833C21.9437 34.7597 22.0845 34.6878 22.2256 34.6182C22.0687 34.6284 21.9107 34.6381 21.7529 34.6445C20.5526 34.6937 19.2919 34.6282 18.3125 34.2812C17.8183 34.1061 17.3636 33.8484 17.0303 33.4668C16.6885 33.0754 16.5 32.5834 16.5 32L16.5088 31.7852C16.5496 31.295 16.7313 30.8755 17.0303 30.5332C17.3636 30.1516 17.8183 29.8939 18.3125 29.7187C19.2919 29.3718 20.5526 29.3063 21.7529 29.3555C21.9107 29.3619 22.0687 29.3706 22.2256 29.3809C22.0846 29.3113 21.9435 29.2403 21.8037 29.167C20.7394 28.6093 19.6797 27.9222 19.0049 27.1318C18.6645 26.7331 18.4006 26.2822 18.3027 25.7852C18.2025 25.2755 18.2846 24.7551 18.5762 24.25C18.8679 23.7448 19.2778 23.4131 19.7695 23.2451C20.2489 23.0814 20.7716 23.0842 21.2871 23.1797C22.3089 23.369 23.4332 23.9441 24.4482 24.5869C24.5824 24.6719 24.7152 24.7589 24.8467 24.8467C24.7589 24.7152 24.6719 24.5824 24.5869 24.4482C23.9441 23.4332 23.369 22.3089 23.1797 21.2871C23.0842 20.7716 23.0814 20.2489 23.2451 19.7695C23.4131 19.2778 23.7448 18.8679 24.25 18.5762C24.7551 18.2846 25.2755 18.2025 25.7852 18.3027C26.2822 18.4006 26.7331 18.6645 27.1318 19.0049C27.9222 19.6797 28.6093 20.7394 29.167 21.8037C29.2403 21.9435 29.3113 22.0846 29.3809 22.2256C29.3706 22.0687 29.3619 21.9107 29.3555 21.7529C29.3063 20.5526 29.3718 19.2919 29.7187 18.3125C29.8939 17.8183 30.1516 17.3636 30.5332 17.0303C30.9246 16.6885 31.4166 16.5 32 16.5Z" fill="#FBF8EF" stroke="#111111"/>
<path d="M30.5573 26.6058C30.8259 26.5338 31.0877 26.5572 31.3238 26.6632C31.5501 26.7648 31.7267 26.9302 31.8623 27.1033C32.1279 27.4424 32.3057 27.899 32.4277 28.3116C32.4424 28.3611 32.4542 28.4112 32.4677 28.4606C32.4935 28.4163 32.5192 28.3715 32.5462 28.3274C32.7709 27.9603 33.0603 27.5645 33.4048 27.3057C33.5805 27.1737 33.7935 27.0604 34.0381 27.0207C34.2938 26.9794 34.5534 27.0248 34.7943 27.1639C35.035 27.303 35.2042 27.5043 35.2961 27.7462C35.3842 27.9779 35.3916 28.2193 35.3651 28.4375C35.3132 28.8652 35.1163 29.3144 34.9108 29.6926C34.8862 29.7378 34.8586 29.7812 34.8332 29.8256C34.8827 29.8125 34.9323 29.7987 34.9825 29.7866C35.4009 29.6859 35.886 29.6113 36.3125 29.6718C36.5302 29.7027 36.7609 29.7733 36.962 29.9184C37.1719 30.0699 37.323 30.2848 37.395 30.5535C37.467 30.8222 37.4436 31.0839 37.3376 31.3201C37.236 31.5462 37.0715 31.7228 36.8984 31.8584C36.5593 32.1241 36.1019 32.302 35.6892 32.424C35.6397 32.4386 35.5896 32.4505 35.5401 32.4639C35.5846 32.4898 35.6302 32.5152 35.6743 32.5422C36.0413 32.7669 36.4364 33.0568 36.6951 33.4011C36.8271 33.5768 36.9413 33.7895 36.981 34.0342C37.0223 34.2898 36.977 34.5494 36.8378 34.7904C36.6987 35.0313 36.4966 35.2004 36.2545 35.2924C36.0228 35.3804 35.7815 35.3879 35.5633 35.3614C35.1358 35.3095 34.6872 35.1123 34.3092 34.9068C34.2637 34.8821 34.2189 34.8553 34.1743 34.8297C34.1873 34.8792 34.2021 34.9286 34.2142 34.9788C34.3149 35.3972 34.3895 35.8823 34.3289 36.3088C34.298 36.5265 34.2274 36.7572 34.0824 36.9582C33.9309 37.1682 33.7159 37.3193 33.4472 37.3913C33.1785 37.4633 32.9168 37.4399 32.6807 37.3338C32.4545 37.2323 32.278 37.0678 32.1424 36.8947C31.8767 36.5556 31.6988 36.0982 31.5768 35.6855C31.5621 35.636 31.5493 35.5861 31.5359 35.5367C31.5102 35.5808 31.4864 35.6265 31.4595 35.6704C31.2348 36.0375 30.9441 36.4325 30.5997 36.6914C30.424 36.8234 30.2113 36.9377 29.9666 36.9773C29.7111 37.0186 29.4522 36.9728 29.2114 36.8339C28.9704 36.6947 28.8013 36.4926 28.7093 36.2506C28.6213 36.0189 28.6129 35.7778 28.6394 35.5596C28.6913 35.1319 28.8894 34.6833 29.0949 34.3052C29.1196 34.2597 29.1455 34.2151 29.1711 34.1705C29.1215 34.1836 29.0722 34.1984 29.022 34.2105C28.6037 34.3111 28.1194 34.3854 27.6929 34.325C27.4751 34.2941 27.2436 34.2238 27.0425 34.0787C26.8327 33.9271 26.6815 33.7122 26.6095 33.4435C26.5375 33.1748 26.5609 32.9131 26.6669 32.6769C26.7685 32.4507 26.9339 32.2741 27.107 32.1384C27.4461 31.8729 27.9027 31.695 28.3153 31.573C28.3648 31.5584 28.4147 31.5456 28.4641 31.5322C28.4201 31.5065 28.3751 31.4823 28.3313 31.4555C27.9642 31.2308 27.5682 30.9404 27.3094 30.596C27.1774 30.4202 27.064 30.2073 27.0244 29.9626C26.9831 29.707 27.0287 29.4483 27.1678 29.2074C27.307 28.9664 27.5082 28.7976 27.7502 28.7056C27.9819 28.6175 28.223 28.6092 28.4412 28.6357C28.8689 28.6876 29.3184 28.8854 29.6965 29.0909C29.7416 29.1154 29.7851 29.1423 29.8293 29.1676C29.8162 29.1181 29.8024 29.0685 29.7903 29.0183C29.6897 28.6 29.6154 28.1156 29.6758 27.6892C29.7067 27.4714 29.777 27.2399 29.9221 27.0388C30.0736 26.8289 30.2886 26.6778 30.5573 26.6058Z" fill="#63BCE5" stroke="#111111"/>
<rect x="29.5" y="29.5" width="5" height="5" rx="2.5" fill="#FBF8EF" stroke="#111111"/>
</g>
<defs>
<clipPath id="clip0_2741_2141">
<rect width="64" height="64" fill="white"/>
</clipPath>
</defs>
</svg>
