<svg width="64" height="64" viewBox="0 0 64 64" fill="none" xmlns="http://www.w3.org/2000/svg">
<g clip-path="url(#clip0_222_4358)">
<rect width="64" height="64" transform="translate(0 64) rotate(-90)" fill="#F2995A"/>
<rect x="46.0625" y="27.4363" width="8" height="16" rx="2" fill="#FBF8EF"/>
<rect x="46.0625" y="54.4363" width="8" height="16" rx="2" fill="#FBF8EF"/>
<rect x="28.5625" y="52.9389" width="8" height="16" rx="2" transform="rotate(-90 28.5625 52.9389)" fill="#FBF8EF"/>
<rect x="55.5625" y="52.9389" width="8" height="16" rx="2" transform="rotate(-90 55.5625 52.9389)" fill="#FBF8EF"/>
<rect x="32.0312" y="36.5632" width="8" height="16" rx="2" transform="rotate(-45 32.0312 36.5632)" fill="#FBF8EF"/>
<rect x="51.125" y="55.6551" width="8" height="16" rx="2" transform="rotate(-45 51.125 55.6551)" fill="#FBF8EF"/>
<rect x="32.2812" y="72.3749" width="8" height="23.6453" rx="2" transform="rotate(-135 32.2812 72.3749)" fill="#FBF8EF"/>
<rect x="56.7773" y="47.8762" width="8" height="33.5807" rx="2" transform="rotate(-135 56.7773 47.8762)" fill="#FBF8EF"/>
<rect x="42.0625" y="57" width="16" height="16" rx="8" transform="rotate(-90 42.0625 57)" fill="#FBF8EF"/>
<path d="M50 57L48.8306 51.8231L44.3431 54.6569L47.1769 50.1694L42 49L47.1769 47.8306L44.3431 43.3431L48.8306 46.1769L50 41L51.1694 46.1769L55.6569 43.3431L52.8231 47.8306L58 49L52.8231 50.1694L55.6569 54.6569L51.1694 51.8231L50 57Z" fill="#F2995A"/>
<rect x="21" y="-11.0012" width="8" height="29" rx="2" fill="#FBF8EF"/>
<rect x="21" y="28.9988" width="8" height="37" rx="2" fill="#FBF8EF"/>
<rect x="-6" y="27.9975" width="8" height="26" rx="2" transform="rotate(-90 -6 27.9975)" fill="#FBF8EF"/>
<rect x="31" y="28.0014" width="8" height="35" rx="2" transform="rotate(-90 31 28.0014)" fill="#FBF8EF"/>
<rect x="7.03125" y="11.5632" width="8" height="16" rx="2" transform="rotate(-45 7.03125 11.5632)" fill="#FBF8EF"/>
<rect x="26.125" y="30.6551" width="8" height="16" rx="2" transform="rotate(-45 26.125 30.6551)" fill="#FBF8EF"/>
<rect x="12.6875" y="41.9687" width="8" height="16" rx="2" transform="rotate(-135 12.6875 41.9687)" fill="#FBF8EF"/>
<rect x="31.7812" y="22.8769" width="8" height="16" rx="2" transform="rotate(-135 31.7812 22.8769)" fill="#FBF8EF"/>
<rect x="17.0625" y="32" width="16" height="16" rx="8" transform="rotate(-90 17.0625 32)" fill="#FBF8EF"/>
<path d="M25 32L23.8306 26.8231L19.3431 29.6569L22.1769 25.1694L17 24L22.1769 22.8306L19.3431 18.3432L23.8306 21.1769L25 16L26.1694 21.1769L30.6569 18.3432L27.8231 22.8306L33 24L27.8231 25.1694L30.6569 29.6569L26.1694 26.8231L25 32Z" fill="#F2995A"/>
<rect x="-4" y="11" width="8" height="32" rx="2" fill="#FBF8EF"/>
<rect x="-3.9375" y="54.4363" width="8" height="16" rx="2" fill="#FBF8EF"/>
<rect x="6" y="53.0014" width="8" height="32" rx="2" transform="rotate(-90 6 53.0014)" fill="#FBF8EF"/>
<rect x="1.12109" y="55.6554" width="8" height="24.5194" rx="2" transform="rotate(-45 1.12109 55.6554)" fill="#FBF8EF"/>
<rect x="6.78125" y="47.8769" width="8" height="16" rx="2" transform="rotate(-135 6.78125 47.8769)" fill="#FBF8EF"/>
<rect x="-7.9375" y="57" width="16" height="16" rx="8" transform="rotate(-90 -7.9375 57)" fill="#FBF8EF"/>
<path d="M-4.76837e-07 57L-1.16938 51.8231L-5.65686 54.6569L-2.82313 50.1694L-8 49L-2.82313 47.8306L-5.65686 43.3431L-1.16938 46.1769L-2.86039e-07 41L1.16938 46.1769L5.65685 43.3431L2.82312 47.8306L8 49L2.82312 50.1694L5.65685 54.6569L1.16938 51.8231L-4.76837e-07 57Z" fill="#F2995A"/>
<rect x="46" y="3.99883" width="8" height="32" rx="2" fill="#FBF8EF"/>
<rect x="16" y="2.99751" width="8" height="29" rx="2" transform="rotate(-90 16 2.99751)" fill="#FBF8EF"/>
<rect x="55.5625" y="2.93891" width="8" height="16" rx="2" transform="rotate(-90 55.5625 2.93891)" fill="#FBF8EF"/>
<rect x="51.125" y="5.65662" width="8" height="32.9882" rx="2" transform="rotate(-45 51.125 5.65662)" fill="#FBF8EF"/>
<rect x="37.6875" y="16.9688" width="8" height="16" rx="2" transform="rotate(-135 37.6875 16.9688)" fill="#FBF8EF"/>
<rect x="42.0625" y="7.00001" width="16" height="16" rx="8" transform="rotate(-90 42.0625 7.00001)" fill="#FBF8EF"/>
<path d="M50 28L48.9196 25.0804L46 24L48.9196 22.9196L50 20L51.0804 22.9196L54 24L51.0804 25.0804L50 28Z" fill="#F2995A"/>
<path d="M25 53L23.9196 50.0804L21 49L23.9196 47.9196L25 45L26.0804 47.9196L29 49L26.0804 50.0804L25 53Z" fill="#F2995A"/>
<path d="M-2.38419e-07 28L-1.08036 25.0804L-4 24L-1.08036 22.9196L-1.4302e-07 20L1.08036 22.9196L4 24L1.08036 25.0804L-2.38419e-07 28Z" fill="#F2995A"/>
<path d="M50 7L48.8306 1.82312L44.3431 4.65685L47.1769 0.169376L42 -1L47.1769 -2.16938L44.3431 -6.65686L48.8306 -3.82313L50 -9L51.1694 -3.82313L55.6569 -6.65686L52.8231 -2.16938L58 -1L52.8231 0.169376L55.6569 4.65685L51.1694 1.82312L50 7Z" fill="#F2995A"/>
<rect x="-4" y="4.00002" width="8" height="11" rx="2" fill="#FBF8EF"/>
<rect x="5.5625" y="2.93891" width="8" height="16" rx="2" transform="rotate(-90 5.5625 2.93891)" fill="#FBF8EF"/>
<rect x="1.125" y="5.65507" width="8" height="16" rx="2" transform="rotate(-45 1.125 5.65507)" fill="#FBF8EF"/>
<rect x="-7.9375" y="7" width="16" height="16" rx="8" transform="rotate(-90 -7.9375 7)" fill="#FBF8EF"/>
<path d="M-4.76837e-07 7L-1.16938 1.82312L-5.65686 4.65685L-2.82313 0.169376L-8 -1L-2.82313 -2.16938L-5.65686 -6.65686L-1.16938 -3.82313L-4.76837e-07 -9L1.16938 -3.82313L5.65685 -6.65686L2.82312 -2.16938L8 -1L2.82312 0.169376L5.65685 4.65685L1.16938 1.82312L-4.76837e-07 7Z" fill="#F2995A"/>
</g>
<defs>
<clipPath id="clip0_222_4358">
<rect width="64" height="64" fill="white" transform="translate(0 64) rotate(-90)"/>
</clipPath>
</defs>
</svg>
