<svg width="64" height="64" viewBox="0 0 64 64" fill="none" xmlns="http://www.w3.org/2000/svg">
<g clip-path="url(#clip0_222_4439)">
<rect width="64" height="64" transform="matrix(-1 0 0 1 64 0)" fill="#F2995A"/>
<rect width="8" height="16" rx="2" transform="matrix(4.21468e-08 1 1 -4.21468e-08 27.4375 46.0625)" fill="#FBF8EF"/>
<rect width="8" height="16" rx="2" transform="matrix(4.21468e-08 1 1 -4.21468e-08 54.4375 46.0625)" fill="#FBF8EF"/>
<rect width="8" height="16" rx="2" transform="matrix(-1 4.21468e-08 4.21468e-08 1 52.9375 28.5625)" fill="#FBF8EF"/>
<rect width="8" height="16" rx="2" transform="matrix(-1 4.21468e-08 4.21468e-08 1 52.9375 55.5625)" fill="#FBF8EF"/>
<rect width="8" height="16" rx="2" transform="matrix(-0.707107 0.707107 0.707107 0.707107 36.5625 32.0312)" fill="#FBF8EF"/>
<rect width="8" height="16" rx="2" transform="matrix(-0.707107 0.707107 0.707107 0.707107 55.6562 51.1231)" fill="#FBF8EF"/>
<rect width="8" height="23.6453" rx="2" transform="matrix(-0.707107 -0.707107 -0.707107 0.707107 72.375 32.282)" fill="#FBF8EF"/>
<rect width="8" height="33.5807" rx="2" transform="matrix(-0.707107 -0.707107 -0.707107 0.707107 47.875 56.7799)" fill="#FBF8EF"/>
<rect width="16" height="16" rx="8" transform="matrix(-1 0 0 1 57 42.0626)" fill="#F2995A"/>
<rect width="8" height="29" rx="2" transform="matrix(4.21468e-08 1 1 -4.21468e-08 -11 21)" fill="#FBF8EF"/>
<rect width="8" height="37" rx="2" transform="matrix(4.21468e-08 1 1 -4.21468e-08 29 21)" fill="#FBF8EF"/>
<rect width="8" height="26" rx="2" transform="matrix(-1 4.21468e-08 4.21468e-08 1 28 -5.99999)" fill="#FBF8EF"/>
<rect width="8" height="35" rx="2" transform="matrix(-1 4.21468e-08 4.21468e-08 1 28.0039 31)" fill="#FBF8EF"/>
<rect width="8" height="16" rx="2" transform="matrix(-0.707107 0.707107 0.707107 0.707107 11.5625 7.03122)" fill="#FBF8EF"/>
<rect width="8" height="16" rx="2" transform="matrix(-0.707107 0.707107 0.707107 0.707107 30.6562 26.1231)" fill="#FBF8EF"/>
<rect width="8" height="16" rx="2" transform="matrix(-0.707107 -0.707107 -0.707107 0.707107 41.9688 12.6881)" fill="#FBF8EF"/>
<rect width="8" height="16" rx="2" transform="matrix(-0.707107 -0.707107 -0.707107 0.707107 22.875 31.78)" fill="#FBF8EF"/>
<rect width="16" height="16" rx="8" transform="matrix(-1 0 0 1 32 17.0626)" fill="#F2995A"/>
<rect width="8" height="30" rx="2" transform="matrix(4.21468e-08 1 1 -4.21468e-08 12.9961 -4)" fill="#FBF8EF"/>
<rect width="8" height="16" rx="2" transform="matrix(4.21468e-08 1 1 -4.21468e-08 54.4336 -3.93753)" fill="#FBF8EF"/>
<rect width="8" height="32" rx="2" transform="matrix(-1 4.21468e-08 4.21468e-08 1 53 6.00001)" fill="#FBF8EF"/>
<rect width="8" height="24.5194" rx="2" transform="matrix(-0.707107 0.707107 0.707107 0.707107 55.6562 1.12312)" fill="#FBF8EF"/>
<rect width="8" height="16" rx="2" transform="matrix(-0.707107 -0.707107 -0.707107 0.707107 47.875 6.77996)" fill="#FBF8EF"/>
<rect width="16" height="16" rx="8" transform="matrix(-1 0 0 1 57 -7.93737)" fill="#F2995A"/>
<rect width="8" height="32" rx="2" transform="matrix(4.21468e-08 1 1 -4.21468e-08 4 46)" fill="#FBF8EF"/>
<rect width="8" height="29" rx="2" transform="matrix(-1 4.21468e-08 4.21468e-08 1 2.99609 16)" fill="#FBF8EF"/>
<rect width="8" height="16" rx="2" transform="matrix(-1 4.21468e-08 4.21468e-08 1 2.9375 55.5625)" fill="#FBF8EF"/>
<rect width="8" height="32.9882" rx="2" transform="matrix(-0.707107 0.707107 0.707107 0.707107 5.65625 51.1231)" fill="#FBF8EF"/>
<rect width="8" height="16" rx="2" transform="matrix(-0.707107 -0.707107 -0.707107 0.707107 16.9688 37.6881)" fill="#FBF8EF"/>
<rect width="16" height="16" rx="8" transform="matrix(-1 0 0 1 7 42.0626)" fill="#F2995A"/>
<rect width="8" height="16" rx="2" transform="matrix(4.21468e-08 1 1 -4.21468e-08 4.4375 -3.93754)" fill="#FBF8EF"/>
<rect width="8" height="16" rx="2" transform="matrix(-1 4.21468e-08 4.21468e-08 1 2.9375 5.56247)" fill="#FBF8EF"/>
<rect width="8" height="16" rx="2" transform="matrix(-0.707107 0.707107 0.707107 0.707107 5.65625 1.12311)" fill="#FBF8EF"/>
<rect width="16" height="16" rx="8" transform="matrix(-1 0 0 1 7 -7.93737)" fill="#F2995A"/>
</g>
<defs>
<clipPath id="clip0_222_4439">
<rect width="64" height="64" fill="white" transform="matrix(-1 0 0 1 64 0)"/>
</clipPath>
</defs>
</svg>
