<svg width="334" height="50" viewBox="0 0 334 50" fill="none" xmlns="http://www.w3.org/2000/svg">
<path d="M322.645 36.5759C320.213 36.5759 318.165 36.1919 316.501 35.4239C314.837 34.6239 313.349 33.5039 312.037 32.0639L316.213 27.8399C317.109 28.8319 318.101 29.6159 319.189 30.1919C320.277 30.7679 321.509 31.0559 322.885 31.0559C324.293 31.0559 325.269 30.8479 325.813 30.4319C326.357 29.9839 326.629 29.3919 326.629 28.6559C326.629 27.4719 325.781 26.7679 324.085 26.5439L321.349 26.2079C315.685 25.5039 312.853 22.9119 312.853 18.4319C312.853 17.2159 313.077 16.1119 313.525 15.1199C314.005 14.0959 314.661 13.2319 315.493 12.5279C316.357 11.7919 317.381 11.2319 318.565 10.8479C319.781 10.4319 321.141 10.2239 322.645 10.2239C323.957 10.2239 325.109 10.3199 326.101 10.5119C327.125 10.6719 328.021 10.9279 328.789 11.2799C329.589 11.5999 330.309 12.0159 330.949 12.5279C331.621 13.0079 332.277 13.5519 332.917 14.1599L328.837 18.3359C328.037 17.5359 327.125 16.9119 326.101 16.4639C325.109 15.9839 324.085 15.7439 323.029 15.7439C321.813 15.7439 320.949 15.9359 320.437 16.3199C319.925 16.7039 319.669 17.2159 319.669 17.8559C319.669 18.5279 319.845 19.0559 320.197 19.4399C320.581 19.7919 321.285 20.0479 322.309 20.2079L325.141 20.5919C330.677 21.3279 333.445 23.8559 333.445 28.1759C333.445 29.3919 333.189 30.5119 332.677 31.5359C332.165 32.5599 331.429 33.4559 330.469 34.2239C329.541 34.9599 328.405 35.5359 327.061 35.9519C325.749 36.3679 324.277 36.5759 322.645 36.5759Z" fill="#6CB9E0"/>
<path d="M297.659 36.5759C295.739 36.5759 294.026 36.2719 292.522 35.6639C291.018 35.0239 289.738 34.1439 288.682 33.0239C287.658 31.8719 286.875 30.4799 286.331 28.8479C285.819 27.2159 285.562 25.3919 285.562 23.3759C285.562 21.3919 285.819 19.5999 286.331 17.9999C286.843 16.3679 287.595 14.9759 288.587 13.8239C289.611 12.6719 290.859 11.7919 292.331 11.1839C293.803 10.5439 295.483 10.2239 297.371 10.2239C299.451 10.2239 301.227 10.5759 302.699 11.2799C304.203 11.9839 305.418 12.9279 306.346 14.1119C307.306 15.2959 307.994 16.6719 308.41 18.2399C308.858 19.7759 309.082 21.3919 309.082 23.0879V25.1999H292.906V25.5839C292.906 27.2479 293.355 28.5759 294.251 29.5679C295.147 30.5279 296.555 31.0079 298.475 31.0079C299.947 31.0079 301.146 30.7199 302.074 30.1439C303.002 29.5359 303.867 28.8159 304.667 27.9839L308.219 32.3999C307.099 33.7119 305.626 34.7359 303.802 35.4719C302.01 36.2079 299.963 36.5759 297.659 36.5759ZM297.514 15.4559C296.074 15.4559 294.939 15.9359 294.107 16.8959C293.307 17.8239 292.906 19.0719 292.906 20.6399V21.0239H301.738V20.5919C301.738 19.0559 301.386 17.8239 300.682 16.8959C300.01 15.9359 298.954 15.4559 297.514 15.4559Z" fill="#6CB9E0"/>
<path d="M279.671 36C277.239 36 275.447 35.408 274.295 34.224C273.175 33.04 272.615 31.328 272.615 29.088V0.47998H279.719V30.48H282.887V36H279.671Z" fill="#6CB9E0"/>
<path d="M246.332 36V30.384L258.86 16.32H246.764V10.8H267.116V16.3681L254.54 30.48H267.452V36H246.332Z" fill="#6CB9E0"/>
<path d="M221.488 36V30.384L234.016 16.32H221.92V10.8H242.272V16.3681L229.696 30.48H242.608V36H221.488Z" fill="#6CB9E0"/>
<path d="M209.215 31.7761H208.975C208.751 32.4161 208.447 33.0241 208.063 33.6001C207.711 34.1761 207.247 34.6881 206.671 35.1361C206.095 35.5841 205.407 35.9361 204.607 36.1921C203.839 36.4481 202.943 36.5761 201.919 36.5761C199.327 36.5761 197.359 35.7281 196.015 34.0321C194.703 32.3041 194.047 29.8401 194.047 26.6401V10.8H201.151V26.0161C201.151 27.5521 201.423 28.7361 201.967 29.5681C202.511 30.4001 203.439 30.8161 204.751 30.8161C205.295 30.8161 205.839 30.7361 206.383 30.5761C206.927 30.4161 207.407 30.1921 207.823 29.9041C208.239 29.5841 208.575 29.2001 208.831 28.7521C209.087 28.3041 209.215 27.7761 209.215 27.1681V10.8H216.319V36.0001H209.215V31.7761Z" fill="#6CB9E0"/>
<path d="M165.131 10.7999H172.235V15.0239H172.475C172.827 13.6159 173.627 12.4639 174.875 11.5679C176.155 10.6719 177.611 10.2239 179.243 10.2239C182.443 10.2239 184.859 11.3439 186.491 13.5839C188.123 15.8239 188.939 19.0879 188.939 23.3759C188.939 27.6639 188.123 30.9439 186.491 33.2159C184.859 35.4559 182.443 36.5759 179.243 36.5759C178.411 36.5759 177.627 36.4479 176.891 36.1919C176.155 35.9679 175.483 35.6479 174.875 35.2319C174.299 34.7839 173.803 34.2719 173.387 33.6959C172.971 33.0879 172.667 32.4479 172.475 31.7759H172.235V45.5999H165.131V10.7999ZM176.891 30.8159C178.235 30.8159 179.339 30.3519 180.203 29.4239C181.099 28.4639 181.547 27.1839 181.547 25.5839V21.2159C181.547 19.6159 181.099 18.3519 180.203 17.4239C179.339 16.4639 178.235 15.9839 176.891 15.9839C175.547 15.9839 174.427 16.3199 173.531 16.9919C172.667 17.6319 172.235 18.5279 172.235 19.6799V27.1199C172.235 28.2719 172.667 29.1839 173.531 29.8559C174.427 30.4959 175.547 30.8159 176.891 30.8159Z" fill="#6CB9E0"/>
<path d="M144.245 35.9999C141.781 35.9999 139.909 35.3759 138.629 34.1279C137.381 32.8799 136.757 31.0559 136.757 28.6559V16.3199H133.205V10.7999H134.981C135.941 10.7999 136.597 10.5759 136.949 10.1279C137.301 9.64789 137.477 8.97589 137.477 8.11189V3.98389H143.861V10.7999H148.853V16.3199H143.861V30.4799H148.469V35.9999H144.245Z" fill="#6CB9E0"/>
<path d="M118.971 36.5759C117.051 36.5759 115.339 36.2719 113.835 35.6639C112.331 35.0239 111.051 34.1439 109.995 33.0239C108.971 31.8719 108.187 30.4799 107.643 28.8479C107.131 27.2159 106.875 25.3919 106.875 23.3759C106.875 21.3919 107.131 19.5999 107.643 17.9999C108.155 16.3679 108.907 14.9759 109.899 13.8239C110.923 12.6719 112.171 11.7919 113.643 11.1839C115.115 10.5439 116.795 10.2239 118.683 10.2239C120.763 10.2239 122.539 10.5759 124.011 11.2799C125.515 11.9839 126.731 12.9279 127.659 14.1119C128.619 15.2959 129.307 16.6719 129.723 18.2399C130.171 19.7759 130.395 21.3919 130.395 23.0879V25.1999H114.219V25.5839C114.219 27.2479 114.667 28.5759 115.563 29.5679C116.459 30.5279 117.867 31.0079 119.787 31.0079C121.259 31.0079 122.459 30.7199 123.387 30.1439C124.315 29.5359 125.179 28.8159 125.979 27.9839L129.531 32.3999C128.411 33.7119 126.939 34.7359 125.115 35.4719C123.323 36.2079 121.275 36.5759 118.971 36.5759ZM118.827 15.4559C117.387 15.4559 116.251 15.9359 115.419 16.8959C114.619 17.8239 114.219 19.0719 114.219 20.6399V21.0239H123.051V20.5919C123.051 19.0559 122.699 17.8239 121.995 16.8959C121.323 15.9359 120.267 15.4559 118.827 15.4559Z" fill="#6CB9E0"/>
<path d="M82.0684 0.47998H89.1724V21.456H89.4604L92.5804 16.8L97.6204 10.8H105.492L97.0924 20.448L106.452 36H98.0044L92.3404 25.344L89.1724 28.896V36H82.0684V0.47998Z" fill="#6CB9E0"/>
<path d="M67.4475 36.5759C65.5595 36.5759 63.8795 36.2719 62.4075 35.6639C60.9355 35.0239 59.7035 34.1439 58.7115 33.0239C57.7195 31.8719 56.9675 30.4799 56.4555 28.8479C55.9435 27.2159 55.6875 25.3919 55.6875 23.3759C55.6875 21.3599 55.9435 19.5519 56.4555 17.9519C56.9675 16.3199 57.7195 14.9279 58.7115 13.7759C59.7035 12.6239 60.9355 11.7439 62.4075 11.1359C63.8795 10.5279 65.5595 10.2239 67.4475 10.2239C70.0075 10.2239 72.1355 10.7999 73.8315 11.9519C75.5595 13.1039 76.7915 14.7199 77.5275 16.7999L71.7675 19.2959C71.5435 18.3359 71.0795 17.5199 70.3755 16.8479C69.6715 16.1759 68.6955 15.8399 67.4475 15.8399C66.0075 15.8399 64.9195 16.3199 64.1835 17.2799C63.4475 18.2079 63.0795 19.4719 63.0795 21.0719V25.7759C63.0795 27.3759 63.4475 28.6399 64.1835 29.5679C64.9195 30.4959 66.0075 30.9599 67.4475 30.9599C68.7275 30.9599 69.7355 30.6239 70.4715 29.9519C71.2395 29.2479 71.7995 28.3359 72.1515 27.2159L77.6715 29.6159C76.8395 32.0159 75.5435 33.7759 73.7835 34.8959C72.0555 36.0159 69.9435 36.5759 67.4475 36.5759Z" fill="#6CB9E0"/>
<path d="M40.4017 36.5759C38.5457 36.5759 36.8817 36.2719 35.4097 35.6639C33.9697 35.0559 32.7377 34.1759 31.7137 33.0239C30.7217 31.8719 29.9537 30.4799 29.4097 28.8479C28.8657 27.2159 28.5938 25.3919 28.5938 23.3759C28.5938 21.3599 28.8657 19.5359 29.4097 17.9039C29.9537 16.2719 30.7217 14.8959 31.7137 13.7759C32.7377 12.6239 33.9697 11.7439 35.4097 11.1359C36.8817 10.5279 38.5457 10.2239 40.4017 10.2239C42.2577 10.2239 43.9057 10.5279 45.3457 11.1359C46.8177 11.7439 48.0498 12.6239 49.0418 13.7759C50.0658 14.8959 50.8497 16.2719 51.3937 17.9039C51.9377 19.5359 52.2098 21.3599 52.2098 23.3759C52.2098 25.3919 51.9377 27.2159 51.3937 28.8479C50.8497 30.4799 50.0658 31.8719 49.0418 33.0239C48.0498 34.1759 46.8177 35.0559 45.3457 35.6639C43.9057 36.2719 42.2577 36.5759 40.4017 36.5759ZM40.4017 30.9599C41.8097 30.9599 42.8978 30.5279 43.6658 29.6639C44.4338 28.7999 44.8177 27.5679 44.8177 25.9679V20.8319C44.8177 19.2319 44.4338 17.9999 43.6658 17.1359C42.8978 16.2719 41.8097 15.8399 40.4017 15.8399C38.9937 15.8399 37.9057 16.2719 37.1377 17.1359C36.3697 17.9999 35.9857 19.2319 35.9857 20.8319V25.9679C35.9857 27.5679 36.3697 28.7999 37.1377 29.6639C37.9057 30.5279 38.9937 30.9599 40.4017 30.9599Z" fill="#6CB9E0"/>
<path d="M0 36.0001V2.49609H15.84C17.408 2.49609 18.816 2.76809 20.064 3.31209C21.312 3.82409 22.368 4.54409 23.232 5.47209C24.128 6.40009 24.816 7.53609 25.296 8.88009C25.776 10.1921 26.016 11.6321 26.016 13.2001C26.016 14.8001 25.776 16.2561 25.296 17.5681C24.816 18.8801 24.128 20.0001 23.232 20.9281C22.368 21.8561 21.312 22.5921 20.064 23.1361C18.816 23.6481 17.408 23.9041 15.84 23.9041H7.296V36.0001H0ZM7.296 17.5681H14.976C16.064 17.5681 16.912 17.2961 17.52 16.7521C18.16 16.1761 18.48 15.3441 18.48 14.2561V12.1441C18.48 11.0561 18.16 10.2401 17.52 9.69609C16.912 9.12009 16.064 8.83209 14.976 8.83209H7.296V17.5681Z" fill="#6CB9E0"/>
<path d="M322.645 38.5759C320.213 38.5759 318.165 38.1919 316.501 37.4239C314.837 36.6239 313.349 35.5039 312.037 34.0639L316.213 29.8399C317.109 30.8319 318.101 31.6159 319.189 32.1919C320.277 32.7679 321.509 33.0559 322.885 33.0559C324.293 33.0559 325.269 32.8479 325.813 32.4319C326.357 31.9839 326.629 31.3919 326.629 30.6559C326.629 29.4719 325.781 28.7679 324.085 28.5439L321.349 28.2079C315.685 27.5039 312.853 24.9119 312.853 20.4319C312.853 19.2159 313.077 18.1119 313.525 17.1199C314.005 16.0959 314.661 15.2319 315.493 14.5279C316.357 13.7919 317.381 13.2319 318.565 12.8479C319.781 12.4319 321.141 12.2239 322.645 12.2239C323.957 12.2239 325.109 12.3199 326.101 12.5119C327.125 12.6719 328.021 12.9279 328.789 13.2799C329.589 13.5999 330.309 14.0159 330.949 14.5279C331.621 15.0079 332.277 15.5519 332.917 16.1599L328.837 20.3359C328.037 19.5359 327.125 18.9119 326.101 18.4639C325.109 17.9839 324.085 17.7439 323.029 17.7439C321.813 17.7439 320.949 17.9359 320.437 18.3199C319.925 18.7039 319.669 19.2159 319.669 19.8559C319.669 20.5279 319.845 21.0559 320.197 21.4399C320.581 21.7919 321.285 22.0479 322.309 22.2079L325.141 22.5919C330.677 23.3279 333.445 25.8559 333.445 30.1759C333.445 31.3919 333.189 32.5119 332.677 33.5359C332.165 34.5599 331.429 35.4559 330.469 36.2239C329.541 36.9599 328.405 37.5359 327.061 37.9519C325.749 38.3679 324.277 38.5759 322.645 38.5759Z" fill="#F2995A"/>
<path d="M297.659 38.5759C295.739 38.5759 294.026 38.2719 292.522 37.6639C291.018 37.0239 289.738 36.1439 288.682 35.0239C287.658 33.8719 286.875 32.4799 286.331 30.8479C285.819 29.2159 285.562 27.3919 285.562 25.3759C285.562 23.3919 285.819 21.5999 286.331 19.9999C286.843 18.3679 287.595 16.9759 288.587 15.8239C289.611 14.6719 290.859 13.7919 292.331 13.1839C293.803 12.5439 295.483 12.2239 297.371 12.2239C299.451 12.2239 301.227 12.5759 302.699 13.2799C304.203 13.9839 305.418 14.9279 306.346 16.1119C307.306 17.2959 307.994 18.6719 308.41 20.2399C308.858 21.7759 309.082 23.3919 309.082 25.0879V27.1999H292.906V27.5839C292.906 29.2479 293.355 30.5759 294.251 31.5679C295.147 32.5279 296.555 33.0079 298.475 33.0079C299.947 33.0079 301.146 32.7199 302.074 32.1439C303.002 31.5359 303.867 30.8159 304.667 29.9839L308.219 34.3999C307.099 35.7119 305.626 36.7359 303.802 37.4719C302.01 38.2079 299.963 38.5759 297.659 38.5759ZM297.514 17.4559C296.074 17.4559 294.939 17.9359 294.107 18.8959C293.307 19.8239 292.906 21.0719 292.906 22.6399V23.0239H301.738V22.5919C301.738 21.0559 301.386 19.8239 300.682 18.8959C300.01 17.9359 298.954 17.4559 297.514 17.4559Z" fill="#F2995A"/>
<path d="M279.671 38C277.239 38 275.447 37.408 274.295 36.224C273.175 35.04 272.615 33.328 272.615 31.088V2.47998H279.719V32.48H282.887V38H279.671Z" fill="#F2995A"/>
<path d="M246.332 38V32.384L258.86 18.32H246.764V12.8H267.116V18.3681L254.54 32.48H267.452V38H246.332Z" fill="#F2995A"/>
<path d="M221.488 38V32.384L234.016 18.32H221.92V12.8H242.272V18.3681L229.696 32.48H242.608V38H221.488Z" fill="#F2995A"/>
<path d="M209.215 33.7761H208.975C208.751 34.4161 208.447 35.0241 208.063 35.6001C207.711 36.1761 207.247 36.6881 206.671 37.1361C206.095 37.5841 205.407 37.9361 204.607 38.1921C203.839 38.4481 202.943 38.5761 201.919 38.5761C199.327 38.5761 197.359 37.7281 196.015 36.0321C194.703 34.3041 194.047 31.8401 194.047 28.6401V12.8H201.151V28.0161C201.151 29.5521 201.423 30.7361 201.967 31.5681C202.511 32.4001 203.439 32.8161 204.751 32.8161C205.295 32.8161 205.839 32.7361 206.383 32.5761C206.927 32.4161 207.407 32.1921 207.823 31.9041C208.239 31.5841 208.575 31.2001 208.831 30.7521C209.087 30.3041 209.215 29.7761 209.215 29.1681V12.8H216.319V38.0001H209.215V33.7761Z" fill="#F2995A"/>
<path d="M165.131 12.7999H172.235V17.0239H172.475C172.827 15.6159 173.627 14.4639 174.875 13.5679C176.155 12.6719 177.611 12.2239 179.243 12.2239C182.443 12.2239 184.859 13.3439 186.491 15.5839C188.123 17.8239 188.939 21.0879 188.939 25.3759C188.939 29.6639 188.123 32.9439 186.491 35.2159C184.859 37.4559 182.443 38.5759 179.243 38.5759C178.411 38.5759 177.627 38.4479 176.891 38.1919C176.155 37.9679 175.483 37.6479 174.875 37.2319C174.299 36.7839 173.803 36.2719 173.387 35.6959C172.971 35.0879 172.667 34.4479 172.475 33.7759H172.235V47.5999H165.131V12.7999ZM176.891 32.8159C178.235 32.8159 179.339 32.3519 180.203 31.4239C181.099 30.4639 181.547 29.1839 181.547 27.5839V23.2159C181.547 21.6159 181.099 20.3519 180.203 19.4239C179.339 18.4639 178.235 17.9839 176.891 17.9839C175.547 17.9839 174.427 18.3199 173.531 18.9919C172.667 19.6319 172.235 20.5279 172.235 21.6799V29.1199C172.235 30.2719 172.667 31.1839 173.531 31.8559C174.427 32.4959 175.547 32.8159 176.891 32.8159Z" fill="#F2995A"/>
<path d="M144.245 37.9999C141.781 37.9999 139.909 37.3759 138.629 36.1279C137.381 34.8799 136.757 33.0559 136.757 30.6559V18.3199H133.205V12.7999H134.981C135.941 12.7999 136.597 12.5759 136.949 12.1279C137.301 11.6479 137.477 10.9759 137.477 10.1119V5.98389H143.861V12.7999H148.853V18.3199H143.861V32.4799H148.469V37.9999H144.245Z" fill="#F2995A"/>
<path d="M118.971 38.5759C117.051 38.5759 115.339 38.2719 113.835 37.6639C112.331 37.0239 111.051 36.1439 109.995 35.0239C108.971 33.8719 108.187 32.4799 107.643 30.8479C107.131 29.2159 106.875 27.3919 106.875 25.3759C106.875 23.3919 107.131 21.5999 107.643 19.9999C108.155 18.3679 108.907 16.9759 109.899 15.8239C110.923 14.6719 112.171 13.7919 113.643 13.1839C115.115 12.5439 116.795 12.2239 118.683 12.2239C120.763 12.2239 122.539 12.5759 124.011 13.2799C125.515 13.9839 126.731 14.9279 127.659 16.1119C128.619 17.2959 129.307 18.6719 129.723 20.2399C130.171 21.7759 130.395 23.3919 130.395 25.0879V27.1999H114.219V27.5839C114.219 29.2479 114.667 30.5759 115.563 31.5679C116.459 32.5279 117.867 33.0079 119.787 33.0079C121.259 33.0079 122.459 32.7199 123.387 32.1439C124.315 31.5359 125.179 30.8159 125.979 29.9839L129.531 34.3999C128.411 35.7119 126.939 36.7359 125.115 37.4719C123.323 38.2079 121.275 38.5759 118.971 38.5759ZM118.827 17.4559C117.387 17.4559 116.251 17.9359 115.419 18.8959C114.619 19.8239 114.219 21.0719 114.219 22.6399V23.0239H123.051V22.5919C123.051 21.0559 122.699 19.8239 121.995 18.8959C121.323 17.9359 120.267 17.4559 118.827 17.4559Z" fill="#F2995A"/>
<path d="M82.0684 2.47998H89.1724V23.456H89.4604L92.5804 18.8L97.6204 12.8H105.492L97.0924 22.448L106.452 38H98.0044L92.3404 27.344L89.1724 30.896V38H82.0684V2.47998Z" fill="#F2995A"/>
<path d="M67.4475 38.5759C65.5595 38.5759 63.8795 38.2719 62.4075 37.6639C60.9355 37.0239 59.7035 36.1439 58.7115 35.0239C57.7195 33.8719 56.9675 32.4799 56.4555 30.8479C55.9435 29.2159 55.6875 27.3919 55.6875 25.3759C55.6875 23.3599 55.9435 21.5519 56.4555 19.9519C56.9675 18.3199 57.7195 16.9279 58.7115 15.7759C59.7035 14.6239 60.9355 13.7439 62.4075 13.1359C63.8795 12.5279 65.5595 12.2239 67.4475 12.2239C70.0075 12.2239 72.1355 12.7999 73.8315 13.9519C75.5595 15.1039 76.7915 16.7199 77.5275 18.7999L71.7675 21.2959C71.5435 20.3359 71.0795 19.5199 70.3755 18.8479C69.6715 18.1759 68.6955 17.8399 67.4475 17.8399C66.0075 17.8399 64.9195 18.3199 64.1835 19.2799C63.4475 20.2079 63.0795 21.4719 63.0795 23.0719V27.7759C63.0795 29.3759 63.4475 30.6399 64.1835 31.5679C64.9195 32.4959 66.0075 32.9599 67.4475 32.9599C68.7275 32.9599 69.7355 32.6239 70.4715 31.9519C71.2395 31.2479 71.7995 30.3359 72.1515 29.2159L77.6715 31.6159C76.8395 34.0159 75.5435 35.7759 73.7835 36.8959C72.0555 38.0159 69.9435 38.5759 67.4475 38.5759Z" fill="#F2995A"/>
<path d="M40.4017 38.5759C38.5457 38.5759 36.8817 38.2719 35.4097 37.6639C33.9697 37.0559 32.7377 36.1759 31.7137 35.0239C30.7217 33.8719 29.9537 32.4799 29.4097 30.8479C28.8657 29.2159 28.5938 27.3919 28.5938 25.3759C28.5938 23.3599 28.8657 21.5359 29.4097 19.9039C29.9537 18.2719 30.7217 16.8959 31.7137 15.7759C32.7377 14.6239 33.9697 13.7439 35.4097 13.1359C36.8817 12.5279 38.5457 12.2239 40.4017 12.2239C42.2577 12.2239 43.9057 12.5279 45.3457 13.1359C46.8177 13.7439 48.0498 14.6239 49.0418 15.7759C50.0658 16.8959 50.8497 18.2719 51.3937 19.9039C51.9377 21.5359 52.2098 23.3599 52.2098 25.3759C52.2098 27.3919 51.9377 29.2159 51.3937 30.8479C50.8497 32.4799 50.0658 33.8719 49.0418 35.0239C48.0498 36.1759 46.8177 37.0559 45.3457 37.6639C43.9057 38.2719 42.2577 38.5759 40.4017 38.5759ZM40.4017 32.9599C41.8097 32.9599 42.8978 32.5279 43.6658 31.6639C44.4338 30.7999 44.8177 29.5679 44.8177 27.9679V22.8319C44.8177 21.2319 44.4338 19.9999 43.6658 19.1359C42.8978 18.2719 41.8097 17.8399 40.4017 17.8399C38.9937 17.8399 37.9057 18.2719 37.1377 19.1359C36.3697 19.9999 35.9857 21.2319 35.9857 22.8319V27.9679C35.9857 29.5679 36.3697 30.7999 37.1377 31.6639C37.9057 32.5279 38.9937 32.9599 40.4017 32.9599Z" fill="#F2995A"/>
<path d="M0 38.0001V4.49609H15.84C17.408 4.49609 18.816 4.76809 20.064 5.31209C21.312 5.82409 22.368 6.54409 23.232 7.47209C24.128 8.40009 24.816 9.53609 25.296 10.8801C25.776 12.1921 26.016 13.6321 26.016 15.2001C26.016 16.8001 25.776 18.2561 25.296 19.5681C24.816 20.8801 24.128 22.0001 23.232 22.9281C22.368 23.8561 21.312 24.5921 20.064 25.1361C18.816 25.6481 17.408 25.9041 15.84 25.9041H7.296V38.0001H0ZM7.296 19.5681H14.976C16.064 19.5681 16.912 19.2961 17.52 18.7521C18.16 18.1761 18.48 17.3441 18.48 16.2561V14.1441C18.48 13.0561 18.16 12.2401 17.52 11.6961C16.912 11.1201 16.064 10.8321 14.976 10.8321H7.296V19.5681Z" fill="#F2995A"/>
<path d="M322.645 40.5759C320.213 40.5759 318.165 40.1919 316.501 39.4239C314.837 38.6239 313.349 37.5039 312.037 36.0639L316.213 31.8399C317.109 32.8319 318.101 33.6159 319.189 34.1919C320.277 34.7679 321.509 35.0559 322.885 35.0559C324.293 35.0559 325.269 34.8479 325.813 34.4319C326.357 33.9839 326.629 33.3919 326.629 32.6559C326.629 31.4719 325.781 30.7679 324.085 30.5439L321.349 30.2079C315.685 29.5039 312.853 26.9119 312.853 22.4319C312.853 21.2159 313.077 20.1119 313.525 19.1199C314.005 18.0959 314.661 17.2319 315.493 16.5279C316.357 15.7919 317.381 15.2319 318.565 14.8479C319.781 14.4319 321.141 14.2239 322.645 14.2239C323.957 14.2239 325.109 14.3199 326.101 14.5119C327.125 14.6719 328.021 14.9279 328.789 15.2799C329.589 15.5999 330.309 16.0159 330.949 16.5279C331.621 17.0079 332.277 17.5519 332.917 18.1599L328.837 22.3359C328.037 21.5359 327.125 20.9119 326.101 20.4639C325.109 19.9839 324.085 19.7439 323.029 19.7439C321.813 19.7439 320.949 19.9359 320.437 20.3199C319.925 20.7039 319.669 21.2159 319.669 21.8559C319.669 22.5279 319.845 23.0559 320.197 23.4399C320.581 23.7919 321.285 24.0479 322.309 24.2079L325.141 24.5919C330.677 25.3279 333.445 27.8559 333.445 32.1759C333.445 33.3919 333.189 34.5119 332.677 35.5359C332.165 36.5599 331.429 37.4559 330.469 38.2239C329.541 38.9599 328.405 39.5359 327.061 39.9519C325.749 40.3679 324.277 40.5759 322.645 40.5759Z" fill="#7ECEA6"/>
<path d="M297.659 40.5759C295.739 40.5759 294.026 40.2719 292.522 39.6639C291.018 39.0239 289.738 38.1439 288.682 37.0239C287.658 35.8719 286.875 34.4799 286.331 32.8479C285.819 31.2159 285.562 29.3919 285.562 27.3759C285.562 25.3919 285.819 23.5999 286.331 21.9999C286.843 20.3679 287.595 18.9759 288.587 17.8239C289.611 16.6719 290.859 15.7919 292.331 15.1839C293.803 14.5439 295.483 14.2239 297.371 14.2239C299.451 14.2239 301.227 14.5759 302.699 15.2799C304.203 15.9839 305.418 16.9279 306.346 18.1119C307.306 19.2959 307.994 20.6719 308.41 22.2399C308.858 23.7759 309.082 25.3919 309.082 27.0879V29.1999H292.906V29.5839C292.906 31.2479 293.355 32.5759 294.251 33.5679C295.147 34.5279 296.555 35.0079 298.475 35.0079C299.947 35.0079 301.146 34.7199 302.074 34.1439C303.002 33.5359 303.867 32.8159 304.667 31.9839L308.219 36.3999C307.099 37.7119 305.626 38.7359 303.802 39.4719C302.01 40.2079 299.963 40.5759 297.659 40.5759ZM297.514 19.4559C296.074 19.4559 294.939 19.9359 294.107 20.8959C293.307 21.8239 292.906 23.0719 292.906 24.6399V25.0239H301.738V24.5919C301.738 23.0559 301.386 21.8239 300.682 20.8959C300.01 19.9359 298.954 19.4559 297.514 19.4559Z" fill="#7ECEA6"/>
<path d="M279.671 40C277.239 40 275.447 39.408 274.295 38.224C273.175 37.04 272.615 35.328 272.615 33.088V4.47998H279.719V34.48H282.887V40H279.671Z" fill="#7ECEA6"/>
<path d="M246.332 40V34.384L258.86 20.32H246.764V14.8H267.116V20.3681L254.54 34.48H267.452V40H246.332Z" fill="#7ECEA6"/>
<path d="M221.488 40V34.384L234.016 20.32H221.92V14.8H242.272V20.3681L229.696 34.48H242.608V40H221.488Z" fill="#7ECEA6"/>
<path d="M209.215 35.7761H208.975C208.751 36.4161 208.447 37.0241 208.063 37.6001C207.711 38.1761 207.247 38.6881 206.671 39.1361C206.095 39.5841 205.407 39.9361 204.607 40.1921C203.839 40.4481 202.943 40.5761 201.919 40.5761C199.327 40.5761 197.359 39.7281 196.015 38.0321C194.703 36.3041 194.047 33.8401 194.047 30.6401V14.8H201.151V30.0161C201.151 31.5521 201.423 32.7361 201.967 33.5681C202.511 34.4001 203.439 34.8161 204.751 34.8161C205.295 34.8161 205.839 34.7361 206.383 34.5761C206.927 34.4161 207.407 34.1921 207.823 33.9041C208.239 33.5841 208.575 33.2001 208.831 32.7521C209.087 32.3041 209.215 31.7761 209.215 31.1681V14.8H216.319V40.0001H209.215V35.7761Z" fill="#7ECEA6"/>
<path d="M165.131 14.7999H172.235V19.0239H172.475C172.827 17.6159 173.627 16.4639 174.875 15.5679C176.155 14.6719 177.611 14.2239 179.243 14.2239C182.443 14.2239 184.859 15.3439 186.491 17.5839C188.123 19.8239 188.939 23.0879 188.939 27.3759C188.939 31.6639 188.123 34.9439 186.491 37.2159C184.859 39.4559 182.443 40.5759 179.243 40.5759C178.411 40.5759 177.627 40.4479 176.891 40.1919C176.155 39.9679 175.483 39.6479 174.875 39.2319C174.299 38.7839 173.803 38.2719 173.387 37.6959C172.971 37.0879 172.667 36.4479 172.475 35.7759H172.235V49.5999H165.131V14.7999ZM176.891 34.8159C178.235 34.8159 179.339 34.3519 180.203 33.4239C181.099 32.4639 181.547 31.1839 181.547 29.5839V25.2159C181.547 23.6159 181.099 22.3519 180.203 21.4239C179.339 20.4639 178.235 19.9839 176.891 19.9839C175.547 19.9839 174.427 20.3199 173.531 20.9919C172.667 21.6319 172.235 22.5279 172.235 23.6799V31.1199C172.235 32.2719 172.667 33.1839 173.531 33.8559C174.427 34.4959 175.547 34.8159 176.891 34.8159Z" fill="#7ECEA6"/>
<path d="M144.245 39.9999C141.781 39.9999 139.909 39.3759 138.629 38.1279C137.381 36.8799 136.757 35.0559 136.757 32.6559V20.3199H133.205V14.7999H134.981C135.941 14.7999 136.597 14.5759 136.949 14.1279C137.301 13.6479 137.477 12.9759 137.477 12.1119V7.98389H143.861V14.7999H148.853V20.3199H143.861V34.4799H148.469V39.9999H144.245Z" fill="#7ECEA6"/>
<path d="M118.971 40.5759C117.051 40.5759 115.339 40.2719 113.835 39.6639C112.331 39.0239 111.051 38.1439 109.995 37.0239C108.971 35.8719 108.187 34.4799 107.643 32.8479C107.131 31.2159 106.875 29.3919 106.875 27.3759C106.875 25.3919 107.131 23.5999 107.643 21.9999C108.155 20.3679 108.907 18.9759 109.899 17.8239C110.923 16.6719 112.171 15.7919 113.643 15.1839C115.115 14.5439 116.795 14.2239 118.683 14.2239C120.763 14.2239 122.539 14.5759 124.011 15.2799C125.515 15.9839 126.731 16.9279 127.659 18.1119C128.619 19.2959 129.307 20.6719 129.723 22.2399C130.171 23.7759 130.395 25.3919 130.395 27.0879V29.1999H114.219V29.5839C114.219 31.2479 114.667 32.5759 115.563 33.5679C116.459 34.5279 117.867 35.0079 119.787 35.0079C121.259 35.0079 122.459 34.7199 123.387 34.1439C124.315 33.5359 125.179 32.8159 125.979 31.9839L129.531 36.3999C128.411 37.7119 126.939 38.7359 125.115 39.4719C123.323 40.2079 121.275 40.5759 118.971 40.5759ZM118.827 19.4559C117.387 19.4559 116.251 19.9359 115.419 20.8959C114.619 21.8239 114.219 23.0719 114.219 24.6399V25.0239H123.051V24.5919C123.051 23.0559 122.699 21.8239 121.995 20.8959C121.323 19.9359 120.267 19.4559 118.827 19.4559Z" fill="#7ECEA6"/>
<path d="M82.0684 4.47998H89.1724V25.456H89.4604L92.5804 20.8L97.6204 14.8H105.492L97.0924 24.448L106.452 40H98.0044L92.3404 29.344L89.1724 32.896V40H82.0684V4.47998Z" fill="#7ECEA6"/>
<path d="M67.4475 40.5759C65.5595 40.5759 63.8795 40.2719 62.4075 39.6639C60.9355 39.0239 59.7035 38.1439 58.7115 37.0239C57.7195 35.8719 56.9675 34.4799 56.4555 32.8479C55.9435 31.2159 55.6875 29.3919 55.6875 27.3759C55.6875 25.3599 55.9435 23.5519 56.4555 21.9519C56.9675 20.3199 57.7195 18.9279 58.7115 17.7759C59.7035 16.6239 60.9355 15.7439 62.4075 15.1359C63.8795 14.5279 65.5595 14.2239 67.4475 14.2239C70.0075 14.2239 72.1355 14.7999 73.8315 15.9519C75.5595 17.1039 76.7915 18.7199 77.5275 20.7999L71.7675 23.2959C71.5435 22.3359 71.0795 21.5199 70.3755 20.8479C69.6715 20.1759 68.6955 19.8399 67.4475 19.8399C66.0075 19.8399 64.9195 20.3199 64.1835 21.2799C63.4475 22.2079 63.0795 23.4719 63.0795 25.0719V29.7759C63.0795 31.3759 63.4475 32.6399 64.1835 33.5679C64.9195 34.4959 66.0075 34.9599 67.4475 34.9599C68.7275 34.9599 69.7355 34.6239 70.4715 33.9519C71.2395 33.2479 71.7995 32.3359 72.1515 31.2159L77.6715 33.6159C76.8395 36.0159 75.5435 37.7759 73.7835 38.8959C72.0555 40.0159 69.9435 40.5759 67.4475 40.5759Z" fill="#7ECEA6"/>
<path d="M40.4017 40.5759C38.5457 40.5759 36.8817 40.2719 35.4097 39.6639C33.9697 39.0559 32.7377 38.1759 31.7137 37.0239C30.7217 35.8719 29.9537 34.4799 29.4097 32.8479C28.8657 31.2159 28.5938 29.3919 28.5938 27.3759C28.5938 25.3599 28.8657 23.5359 29.4097 21.9039C29.9537 20.2719 30.7217 18.8959 31.7137 17.7759C32.7377 16.6239 33.9697 15.7439 35.4097 15.1359C36.8817 14.5279 38.5457 14.2239 40.4017 14.2239C42.2577 14.2239 43.9057 14.5279 45.3457 15.1359C46.8177 15.7439 48.0498 16.6239 49.0418 17.7759C50.0658 18.8959 50.8497 20.2719 51.3937 21.9039C51.9377 23.5359 52.2098 25.3599 52.2098 27.3759C52.2098 29.3919 51.9377 31.2159 51.3937 32.8479C50.8497 34.4799 50.0658 35.8719 49.0418 37.0239C48.0498 38.1759 46.8177 39.0559 45.3457 39.6639C43.9057 40.2719 42.2577 40.5759 40.4017 40.5759ZM40.4017 34.9599C41.8097 34.9599 42.8978 34.5279 43.6658 33.6639C44.4338 32.7999 44.8177 31.5679 44.8177 29.9679V24.8319C44.8177 23.2319 44.4338 21.9999 43.6658 21.1359C42.8978 20.2719 41.8097 19.8399 40.4017 19.8399C38.9937 19.8399 37.9057 20.2719 37.1377 21.1359C36.3697 21.9999 35.9857 23.2319 35.9857 24.8319V29.9679C35.9857 31.5679 36.3697 32.7999 37.1377 33.6639C37.9057 34.5279 38.9937 34.9599 40.4017 34.9599Z" fill="#7ECEA6"/>
<path d="M0 40.0001V6.49609H15.84C17.408 6.49609 18.816 6.76809 20.064 7.31209C21.312 7.82409 22.368 8.54409 23.232 9.47209C24.128 10.4001 24.816 11.5361 25.296 12.8801C25.776 14.1921 26.016 15.6321 26.016 17.2001C26.016 18.8001 25.776 20.2561 25.296 21.5681C24.816 22.8801 24.128 24.0001 23.232 24.9281C22.368 25.8561 21.312 26.5921 20.064 27.1361C18.816 27.6481 17.408 27.9041 15.84 27.9041H7.296V40.0001H0ZM7.296 21.5681H14.976C16.064 21.5681 16.912 21.2961 17.52 20.7521C18.16 20.1761 18.48 19.3441 18.48 18.2561V16.1441C18.48 15.0561 18.16 14.2401 17.52 13.6961C16.912 13.1201 16.064 12.8321 14.976 12.8321H7.296V21.5681Z" fill="#7ECEA6"/>
</svg>
