<svg width="334" height="50" viewBox="0 0 334 50" fill="none" xmlns="http://www.w3.org/2000/svg">
<path d="M322.645 36.5761C320.213 36.5761 318.165 36.1921 316.501 35.4241C314.837 34.6241 313.349 33.5041 312.037 32.0641L316.213 27.8401C317.109 28.8321 318.101 29.6161 319.189 30.1921C320.277 30.7681 321.509 31.0561 322.885 31.0561C324.293 31.0561 325.269 30.8481 325.813 30.4321C326.357 29.9841 326.629 29.3921 326.629 28.6561C326.629 27.4721 325.781 26.7681 324.085 26.5441L321.349 26.2081C315.685 25.5041 312.853 22.9121 312.853 18.4321C312.853 17.2161 313.077 16.1121 313.525 15.1201C314.005 14.0961 314.661 13.2321 315.493 12.5281C316.357 11.7921 317.381 11.2321 318.565 10.8481C319.781 10.4321 321.141 10.2241 322.645 10.2241C323.957 10.2241 325.109 10.3201 326.101 10.5121C327.125 10.6721 328.021 10.9281 328.789 11.2801C329.589 11.6001 330.309 12.0161 330.949 12.5281C331.621 13.0081 332.277 13.5521 332.917 14.1601L328.837 18.3361C328.037 17.5361 327.125 16.9121 326.101 16.4641C325.109 15.9841 324.085 15.7441 323.029 15.7441C321.813 15.7441 320.949 15.9361 320.437 16.3201C319.925 16.7041 319.669 17.2161 319.669 17.8561C319.669 18.5281 319.845 19.0561 320.197 19.4401C320.581 19.7921 321.285 20.0481 322.309 20.2081L325.141 20.5921C330.677 21.3281 333.445 23.8561 333.445 28.1761C333.445 29.3921 333.189 30.5121 332.677 31.5361C332.165 32.5601 331.429 33.4561 330.469 34.2241C329.541 34.9601 328.405 35.5361 327.061 35.9521C325.749 36.3681 324.277 36.5761 322.645 36.5761Z" fill="#6CB9E0"/>
<path d="M297.659 36.5761C295.739 36.5761 294.026 36.2721 292.522 35.6641C291.018 35.0241 289.738 34.1441 288.682 33.0241C287.658 31.8721 286.875 30.4801 286.331 28.8481C285.819 27.2161 285.562 25.3921 285.562 23.3761C285.562 21.3921 285.819 19.6001 286.331 18.0001C286.843 16.3681 287.595 14.9761 288.587 13.8241C289.611 12.6721 290.859 11.7921 292.331 11.1841C293.803 10.5441 295.483 10.2241 297.371 10.2241C299.451 10.2241 301.227 10.5761 302.699 11.2801C304.203 11.9841 305.418 12.9281 306.346 14.1121C307.306 15.2961 307.994 16.6721 308.41 18.2401C308.858 19.7761 309.082 21.3921 309.082 23.0881V25.2001H292.906V25.5841C292.906 27.2481 293.355 28.5761 294.251 29.5681C295.147 30.5281 296.555 31.0081 298.475 31.0081C299.947 31.0081 301.146 30.7201 302.074 30.1441C303.002 29.5361 303.867 28.8161 304.667 27.9841L308.219 32.4001C307.099 33.7121 305.626 34.7361 303.802 35.4721C302.01 36.2081 299.963 36.5761 297.659 36.5761ZM297.514 15.4561C296.074 15.4561 294.939 15.9361 294.107 16.8961C293.307 17.8241 292.906 19.0721 292.906 20.6401V21.0241H301.738V20.5921C301.738 19.0561 301.386 17.8241 300.682 16.8961C300.01 15.9361 298.954 15.4561 297.514 15.4561Z" fill="#6CB9E0"/>
<path d="M279.671 36C277.239 36 275.447 35.408 274.295 34.224C273.175 33.04 272.615 31.328 272.615 29.088V0.47998H279.719V30.48H282.887V36H279.671Z" fill="#6CB9E0"/>
<path d="M246.332 35.9998V30.3838L258.86 16.3198H246.764V10.7998H267.116V16.3678L254.54 30.4798H267.452V35.9998H246.332Z" fill="#6CB9E0"/>
<path d="M221.488 35.9998V30.3838L234.016 16.3198H221.92V10.7998H242.272V16.3678L229.696 30.4798H242.608V35.9998H221.488Z" fill="#6CB9E0"/>
<path d="M209.215 31.7758H208.975C208.751 32.4158 208.447 33.0238 208.063 33.5998C207.711 34.1758 207.247 34.6878 206.671 35.1358C206.095 35.5838 205.407 35.9358 204.607 36.1918C203.839 36.4478 202.943 36.5758 201.919 36.5758C199.327 36.5758 197.359 35.7278 196.015 34.0318C194.703 32.3038 194.047 29.8398 194.047 26.6398V10.7998H201.151V26.0158C201.151 27.5518 201.423 28.7358 201.967 29.5678C202.511 30.3998 203.439 30.8158 204.751 30.8158C205.295 30.8158 205.839 30.7358 206.383 30.5758C206.927 30.4158 207.407 30.1918 207.823 29.9038C208.239 29.5838 208.575 29.1998 208.831 28.7518C209.087 28.3038 209.215 27.7758 209.215 27.1678V10.7998H216.319V35.9998H209.215V31.7758Z" fill="#6CB9E0"/>
<path d="M165.131 10.8001H172.235V15.0241H172.475C172.827 13.6161 173.627 12.4641 174.875 11.5681C176.155 10.6721 177.611 10.2241 179.243 10.2241C182.443 10.2241 184.859 11.3441 186.491 13.5841C188.123 15.8241 188.939 19.0881 188.939 23.3761C188.939 27.6641 188.123 30.9441 186.491 33.2161C184.859 35.4561 182.443 36.5761 179.243 36.5761C178.411 36.5761 177.627 36.4481 176.891 36.1921C176.155 35.9681 175.483 35.6481 174.875 35.2321C174.299 34.7841 173.803 34.2721 173.387 33.6961C172.971 33.0881 172.667 32.4481 172.475 31.7761H172.235V45.6001H165.131V10.8001ZM176.891 30.8161C178.235 30.8161 179.339 30.3521 180.203 29.4241C181.099 28.4641 181.547 27.1841 181.547 25.5841V21.2161C181.547 19.6161 181.099 18.3521 180.203 17.4241C179.339 16.4641 178.235 15.9841 176.891 15.9841C175.547 15.9841 174.427 16.3201 173.531 16.9921C172.667 17.6321 172.235 18.5281 172.235 19.6801V27.1201C172.235 28.2721 172.667 29.1841 173.531 29.8561C174.427 30.4961 175.547 30.8161 176.891 30.8161Z" fill="#6CB9E0"/>
<path d="M144.245 35.9999C141.781 35.9999 139.909 35.3759 138.629 34.1279C137.381 32.8799 136.757 31.0559 136.757 28.6559V16.3199H133.205V10.7999H134.981C135.941 10.7999 136.597 10.5759 136.949 10.1279C137.301 9.64789 137.477 8.97589 137.477 8.11189V3.98389H143.861V10.7999H148.853V16.3199H143.861V30.4799H148.469V35.9999H144.245Z" fill="#6CB9E0"/>
<path d="M118.971 36.5761C117.051 36.5761 115.339 36.2721 113.835 35.6641C112.331 35.0241 111.051 34.1441 109.995 33.0241C108.971 31.8721 108.187 30.4801 107.643 28.8481C107.131 27.2161 106.875 25.3921 106.875 23.3761C106.875 21.3921 107.131 19.6001 107.643 18.0001C108.155 16.3681 108.907 14.9761 109.899 13.8241C110.923 12.6721 112.171 11.7921 113.643 11.1841C115.115 10.5441 116.795 10.2241 118.683 10.2241C120.763 10.2241 122.539 10.5761 124.011 11.2801C125.515 11.9841 126.731 12.9281 127.659 14.1121C128.619 15.2961 129.307 16.6721 129.723 18.2401C130.171 19.7761 130.395 21.3921 130.395 23.0881V25.2001H114.219V25.5841C114.219 27.2481 114.667 28.5761 115.563 29.5681C116.459 30.5281 117.867 31.0081 119.787 31.0081C121.259 31.0081 122.459 30.7201 123.387 30.1441C124.315 29.5361 125.179 28.8161 125.979 27.9841L129.531 32.4001C128.411 33.7121 126.939 34.7361 125.115 35.4721C123.323 36.2081 121.275 36.5761 118.971 36.5761ZM118.827 15.4561C117.387 15.4561 116.251 15.9361 115.419 16.8961C114.619 17.8241 114.219 19.0721 114.219 20.6401V21.0241H123.051V20.5921C123.051 19.0561 122.699 17.8241 121.995 16.8961C121.323 15.9361 120.267 15.4561 118.827 15.4561Z" fill="#6CB9E0"/>
<path d="M82.0684 0.47998H89.1724V21.456H89.4604L92.5804 16.8L97.6204 10.8H105.492L97.0924 20.448L106.452 36H98.0044L92.3404 25.344L89.1724 28.896V36H82.0684V0.47998Z" fill="#6CB9E0"/>
<path d="M67.4475 36.5761C65.5595 36.5761 63.8795 36.2721 62.4075 35.6641C60.9355 35.0241 59.7035 34.1441 58.7115 33.0241C57.7195 31.8721 56.9675 30.4801 56.4555 28.8481C55.9435 27.2161 55.6875 25.3921 55.6875 23.3761C55.6875 21.3601 55.9435 19.5521 56.4555 17.9521C56.9675 16.3201 57.7195 14.9281 58.7115 13.7761C59.7035 12.6241 60.9355 11.7441 62.4075 11.1361C63.8795 10.5281 65.5595 10.2241 67.4475 10.2241C70.0075 10.2241 72.1355 10.8001 73.8315 11.9521C75.5595 13.1041 76.7915 14.7201 77.5275 16.8001L71.7675 19.2961C71.5435 18.3361 71.0795 17.5201 70.3755 16.8481C69.6715 16.1761 68.6955 15.8401 67.4475 15.8401C66.0075 15.8401 64.9195 16.3201 64.1835 17.2801C63.4475 18.2081 63.0795 19.4721 63.0795 21.0721V25.7761C63.0795 27.3761 63.4475 28.6401 64.1835 29.5681C64.9195 30.4961 66.0075 30.9601 67.4475 30.9601C68.7275 30.9601 69.7355 30.6241 70.4715 29.9521C71.2395 29.2481 71.7995 28.3361 72.1515 27.2161L77.6715 29.6161C76.8395 32.0161 75.5435 33.7761 73.7835 34.8961C72.0555 36.0161 69.9435 36.5761 67.4475 36.5761Z" fill="#6CB9E0"/>
<path d="M40.4017 36.5761C38.5457 36.5761 36.8817 36.2721 35.4097 35.6641C33.9697 35.0561 32.7377 34.1761 31.7137 33.0241C30.7217 31.8721 29.9537 30.4801 29.4097 28.8481C28.8657 27.2161 28.5938 25.3921 28.5938 23.3761C28.5938 21.3601 28.8657 19.5361 29.4097 17.9041C29.9537 16.2721 30.7217 14.8961 31.7137 13.7761C32.7377 12.6241 33.9697 11.7441 35.4097 11.1361C36.8817 10.5281 38.5457 10.2241 40.4017 10.2241C42.2577 10.2241 43.9057 10.5281 45.3457 11.1361C46.8177 11.7441 48.0498 12.6241 49.0418 13.7761C50.0658 14.8961 50.8497 16.2721 51.3937 17.9041C51.9377 19.5361 52.2098 21.3601 52.2098 23.3761C52.2098 25.3921 51.9377 27.2161 51.3937 28.8481C50.8497 30.4801 50.0658 31.8721 49.0418 33.0241C48.0498 34.1761 46.8177 35.0561 45.3457 35.6641C43.9057 36.2721 42.2577 36.5761 40.4017 36.5761ZM40.4017 30.9601C41.8097 30.9601 42.8978 30.5281 43.6658 29.6641C44.4338 28.8001 44.8177 27.5681 44.8177 25.9681V20.8321C44.8177 19.2321 44.4338 18.0001 43.6658 17.1361C42.8978 16.2721 41.8097 15.8401 40.4017 15.8401C38.9937 15.8401 37.9057 16.2721 37.1377 17.1361C36.3697 18.0001 35.9857 19.2321 35.9857 20.8321V25.9681C35.9857 27.5681 36.3697 28.8001 37.1377 29.6641C37.9057 30.5281 38.9937 30.9601 40.4017 30.9601Z" fill="#6CB9E0"/>
<path d="M0 36.0001V2.49609H15.84C17.408 2.49609 18.816 2.76809 20.064 3.31209C21.312 3.82409 22.368 4.54409 23.232 5.47209C24.128 6.40009 24.816 7.53609 25.296 8.88009C25.776 10.1921 26.016 11.6321 26.016 13.2001C26.016 14.8001 25.776 16.2561 25.296 17.5681C24.816 18.8801 24.128 20.0001 23.232 20.9281C22.368 21.8561 21.312 22.5921 20.064 23.1361C18.816 23.6481 17.408 23.9041 15.84 23.9041H7.296V36.0001H0ZM7.296 17.5681H14.976C16.064 17.5681 16.912 17.2961 17.52 16.7521C18.16 16.1761 18.48 15.3441 18.48 14.2561V12.1441C18.48 11.0561 18.16 10.2401 17.52 9.69609C16.912 9.12009 16.064 8.83209 14.976 8.83209H7.296V17.5681Z" fill="#6CB9E0"/>
<path d="M322.645 38.5761C320.213 38.5761 318.165 38.1921 316.501 37.4241C314.837 36.6241 313.349 35.5041 312.037 34.0641L316.213 29.8401C317.109 30.8321 318.101 31.6161 319.189 32.1921C320.277 32.7681 321.509 33.0561 322.885 33.0561C324.293 33.0561 325.269 32.8481 325.813 32.4321C326.357 31.9841 326.629 31.3921 326.629 30.6561C326.629 29.4721 325.781 28.7681 324.085 28.5441L321.349 28.2081C315.685 27.5041 312.853 24.9121 312.853 20.4321C312.853 19.2161 313.077 18.1121 313.525 17.1201C314.005 16.0961 314.661 15.2321 315.493 14.5281C316.357 13.7921 317.381 13.2321 318.565 12.8481C319.781 12.4321 321.141 12.2241 322.645 12.2241C323.957 12.2241 325.109 12.3201 326.101 12.5121C327.125 12.6721 328.021 12.9281 328.789 13.2801C329.589 13.6001 330.309 14.0161 330.949 14.5281C331.621 15.0081 332.277 15.5521 332.917 16.1601L328.837 20.3361C328.037 19.5361 327.125 18.9121 326.101 18.4641C325.109 17.9841 324.085 17.7441 323.029 17.7441C321.813 17.7441 320.949 17.9361 320.437 18.3201C319.925 18.7041 319.669 19.2161 319.669 19.8561C319.669 20.5281 319.845 21.0561 320.197 21.4401C320.581 21.7921 321.285 22.0481 322.309 22.2081L325.141 22.5921C330.677 23.3281 333.445 25.8561 333.445 30.1761C333.445 31.3921 333.189 32.5121 332.677 33.5361C332.165 34.5601 331.429 35.4561 330.469 36.2241C329.541 36.9601 328.405 37.5361 327.061 37.9521C325.749 38.3681 324.277 38.5761 322.645 38.5761Z" fill="#7ECEA6"/>
<path d="M297.659 38.5761C295.739 38.5761 294.026 38.2721 292.522 37.6641C291.018 37.0241 289.738 36.1441 288.682 35.0241C287.658 33.8721 286.875 32.4801 286.331 30.8481C285.819 29.2161 285.562 27.3921 285.562 25.3761C285.562 23.3921 285.819 21.6001 286.331 20.0001C286.843 18.3681 287.595 16.9761 288.587 15.8241C289.611 14.6721 290.859 13.7921 292.331 13.1841C293.803 12.5441 295.483 12.2241 297.371 12.2241C299.451 12.2241 301.227 12.5761 302.699 13.2801C304.203 13.9841 305.418 14.9281 306.346 16.1121C307.306 17.2961 307.994 18.6721 308.41 20.2401C308.858 21.7761 309.082 23.3921 309.082 25.0881V27.2001H292.906V27.5841C292.906 29.2481 293.355 30.5761 294.251 31.5681C295.147 32.5281 296.555 33.0081 298.475 33.0081C299.947 33.0081 301.146 32.7201 302.074 32.1441C303.002 31.5361 303.867 30.8161 304.667 29.9841L308.219 34.4001C307.099 35.7121 305.626 36.7361 303.802 37.4721C302.01 38.2081 299.963 38.5761 297.659 38.5761ZM297.514 17.4561C296.074 17.4561 294.939 17.9361 294.107 18.8961C293.307 19.8241 292.906 21.0721 292.906 22.6401V23.0241H301.738V22.5921C301.738 21.0561 301.386 19.8241 300.682 18.8961C300.01 17.9361 298.954 17.4561 297.514 17.4561Z" fill="#7ECEA6"/>
<path d="M279.671 38C277.239 38 275.447 37.408 274.295 36.224C273.175 35.04 272.615 33.328 272.615 31.088V2.47998H279.719V32.48H282.887V38H279.671Z" fill="#7ECEA6"/>
<path d="M246.332 37.9998V32.3838L258.86 18.3198H246.764V12.7998H267.116V18.3678L254.54 32.4798H267.452V37.9998H246.332Z" fill="#7ECEA6"/>
<path d="M221.488 37.9998V32.3838L234.016 18.3198H221.92V12.7998H242.272V18.3678L229.696 32.4798H242.608V37.9998H221.488Z" fill="#7ECEA6"/>
<path d="M209.215 33.7758H208.975C208.751 34.4158 208.447 35.0238 208.063 35.5998C207.711 36.1758 207.247 36.6878 206.671 37.1358C206.095 37.5838 205.407 37.9358 204.607 38.1918C203.839 38.4478 202.943 38.5758 201.919 38.5758C199.327 38.5758 197.359 37.7278 196.015 36.0318C194.703 34.3038 194.047 31.8398 194.047 28.6398V12.7998H201.151V28.0158C201.151 29.5518 201.423 30.7358 201.967 31.5678C202.511 32.3998 203.439 32.8158 204.751 32.8158C205.295 32.8158 205.839 32.7358 206.383 32.5758C206.927 32.4158 207.407 32.1918 207.823 31.9038C208.239 31.5838 208.575 31.1998 208.831 30.7518C209.087 30.3038 209.215 29.7758 209.215 29.1678V12.7998H216.319V37.9998H209.215V33.7758Z" fill="#7ECEA6"/>
<path d="M165.131 12.8001H172.235V17.0241H172.475C172.827 15.6161 173.627 14.4641 174.875 13.5681C176.155 12.6721 177.611 12.2241 179.243 12.2241C182.443 12.2241 184.859 13.3441 186.491 15.5841C188.123 17.8241 188.939 21.0881 188.939 25.3761C188.939 29.6641 188.123 32.9441 186.491 35.2161C184.859 37.4561 182.443 38.5761 179.243 38.5761C178.411 38.5761 177.627 38.4481 176.891 38.1921C176.155 37.9681 175.483 37.6481 174.875 37.2321C174.299 36.7841 173.803 36.2721 173.387 35.6961C172.971 35.0881 172.667 34.4481 172.475 33.7761H172.235V47.6001H165.131V12.8001ZM176.891 32.8161C178.235 32.8161 179.339 32.3521 180.203 31.4241C181.099 30.4641 181.547 29.1841 181.547 27.5841V23.2161C181.547 21.6161 181.099 20.3521 180.203 19.4241C179.339 18.4641 178.235 17.9841 176.891 17.9841C175.547 17.9841 174.427 18.3201 173.531 18.9921C172.667 19.6321 172.235 20.5281 172.235 21.6801V29.1201C172.235 30.2721 172.667 31.1841 173.531 31.8561C174.427 32.4961 175.547 32.8161 176.891 32.8161Z" fill="#7ECEA6"/>
<path d="M144.245 37.9999C141.781 37.9999 139.909 37.3759 138.629 36.1279C137.381 34.8799 136.757 33.0559 136.757 30.6559V18.3199H133.205V12.7999H134.981C135.941 12.7999 136.597 12.5759 136.949 12.1279C137.301 11.6479 137.477 10.9759 137.477 10.1119V5.98389H143.861V12.7999H148.853V18.3199H143.861V32.4799H148.469V37.9999H144.245Z" fill="#7ECEA6"/>
<path d="M118.971 38.5761C117.051 38.5761 115.339 38.2721 113.835 37.6641C112.331 37.0241 111.051 36.1441 109.995 35.0241C108.971 33.8721 108.187 32.4801 107.643 30.8481C107.131 29.2161 106.875 27.3921 106.875 25.3761C106.875 23.3921 107.131 21.6001 107.643 20.0001C108.155 18.3681 108.907 16.9761 109.899 15.8241C110.923 14.6721 112.171 13.7921 113.643 13.1841C115.115 12.5441 116.795 12.2241 118.683 12.2241C120.763 12.2241 122.539 12.5761 124.011 13.2801C125.515 13.9841 126.731 14.9281 127.659 16.1121C128.619 17.2961 129.307 18.6721 129.723 20.2401C130.171 21.7761 130.395 23.3921 130.395 25.0881V27.2001H114.219V27.5841C114.219 29.2481 114.667 30.5761 115.563 31.5681C116.459 32.5281 117.867 33.0081 119.787 33.0081C121.259 33.0081 122.459 32.7201 123.387 32.1441C124.315 31.5361 125.179 30.8161 125.979 29.9841L129.531 34.4001C128.411 35.7121 126.939 36.7361 125.115 37.4721C123.323 38.2081 121.275 38.5761 118.971 38.5761ZM118.827 17.4561C117.387 17.4561 116.251 17.9361 115.419 18.8961C114.619 19.8241 114.219 21.0721 114.219 22.6401V23.0241H123.051V22.5921C123.051 21.0561 122.699 19.8241 121.995 18.8961C121.323 17.9361 120.267 17.4561 118.827 17.4561Z" fill="#7ECEA6"/>
<path d="M82.0684 2.47998H89.1724V23.456H89.4604L92.5804 18.8L97.6204 12.8H105.492L97.0924 22.448L106.452 38H98.0044L92.3404 27.344L89.1724 30.896V38H82.0684V2.47998Z" fill="#7ECEA6"/>
<path d="M67.4475 38.5761C65.5595 38.5761 63.8795 38.2721 62.4075 37.6641C60.9355 37.0241 59.7035 36.1441 58.7115 35.0241C57.7195 33.8721 56.9675 32.4801 56.4555 30.8481C55.9435 29.2161 55.6875 27.3921 55.6875 25.3761C55.6875 23.3601 55.9435 21.5521 56.4555 19.9521C56.9675 18.3201 57.7195 16.9281 58.7115 15.7761C59.7035 14.6241 60.9355 13.7441 62.4075 13.1361C63.8795 12.5281 65.5595 12.2241 67.4475 12.2241C70.0075 12.2241 72.1355 12.8001 73.8315 13.9521C75.5595 15.1041 76.7915 16.7201 77.5275 18.8001L71.7675 21.2961C71.5435 20.3361 71.0795 19.5201 70.3755 18.8481C69.6715 18.1761 68.6955 17.8401 67.4475 17.8401C66.0075 17.8401 64.9195 18.3201 64.1835 19.2801C63.4475 20.2081 63.0795 21.4721 63.0795 23.0721V27.7761C63.0795 29.3761 63.4475 30.6401 64.1835 31.5681C64.9195 32.4961 66.0075 32.9601 67.4475 32.9601C68.7275 32.9601 69.7355 32.6241 70.4715 31.9521C71.2395 31.2481 71.7995 30.3361 72.1515 29.2161L77.6715 31.6161C76.8395 34.0161 75.5435 35.7761 73.7835 36.8961C72.0555 38.0161 69.9435 38.5761 67.4475 38.5761Z" fill="#7ECEA6"/>
<path d="M40.4017 38.5761C38.5457 38.5761 36.8817 38.2721 35.4097 37.6641C33.9697 37.0561 32.7377 36.1761 31.7137 35.0241C30.7217 33.8721 29.9537 32.4801 29.4097 30.8481C28.8657 29.2161 28.5938 27.3921 28.5938 25.3761C28.5938 23.3601 28.8657 21.5361 29.4097 19.9041C29.9537 18.2721 30.7217 16.8961 31.7137 15.7761C32.7377 14.6241 33.9697 13.7441 35.4097 13.1361C36.8817 12.5281 38.5457 12.2241 40.4017 12.2241C42.2577 12.2241 43.9057 12.5281 45.3457 13.1361C46.8177 13.7441 48.0498 14.6241 49.0418 15.7761C50.0658 16.8961 50.8497 18.2721 51.3937 19.9041C51.9377 21.5361 52.2098 23.3601 52.2098 25.3761C52.2098 27.3921 51.9377 29.2161 51.3937 30.8481C50.8497 32.4801 50.0658 33.8721 49.0418 35.0241C48.0498 36.1761 46.8177 37.0561 45.3457 37.6641C43.9057 38.2721 42.2577 38.5761 40.4017 38.5761ZM40.4017 32.9601C41.8097 32.9601 42.8978 32.5281 43.6658 31.6641C44.4338 30.8001 44.8177 29.5681 44.8177 27.9681V22.8321C44.8177 21.2321 44.4338 20.0001 43.6658 19.1361C42.8978 18.2721 41.8097 17.8401 40.4017 17.8401C38.9937 17.8401 37.9057 18.2721 37.1377 19.1361C36.3697 20.0001 35.9857 21.2321 35.9857 22.8321V27.9681C35.9857 29.5681 36.3697 30.8001 37.1377 31.6641C37.9057 32.5281 38.9937 32.9601 40.4017 32.9601Z" fill="#7ECEA6"/>
<path d="M0 38.0001V4.49609H15.84C17.408 4.49609 18.816 4.76809 20.064 5.31209C21.312 5.82409 22.368 6.54409 23.232 7.47209C24.128 8.40009 24.816 9.53609 25.296 10.8801C25.776 12.1921 26.016 13.6321 26.016 15.2001C26.016 16.8001 25.776 18.2561 25.296 19.5681C24.816 20.8801 24.128 22.0001 23.232 22.9281C22.368 23.8561 21.312 24.5921 20.064 25.1361C18.816 25.6481 17.408 25.9041 15.84 25.9041H7.296V38.0001H0ZM7.296 19.5681H14.976C16.064 19.5681 16.912 19.2961 17.52 18.7521C18.16 18.1761 18.48 17.3441 18.48 16.2561V14.1441C18.48 13.0561 18.16 12.2401 17.52 11.6961C16.912 11.1201 16.064 10.8321 14.976 10.8321H7.296V19.5681Z" fill="#7ECEA6"/>
<path d="M322.645 40.5761C320.213 40.5761 318.165 40.1921 316.501 39.4241C314.837 38.6241 313.349 37.5041 312.037 36.0641L316.213 31.8401C317.109 32.8321 318.101 33.6161 319.189 34.1921C320.277 34.7681 321.509 35.0561 322.885 35.0561C324.293 35.0561 325.269 34.8481 325.813 34.4321C326.357 33.9841 326.629 33.3921 326.629 32.6561C326.629 31.4721 325.781 30.7681 324.085 30.5441L321.349 30.2081C315.685 29.5041 312.853 26.9121 312.853 22.4321C312.853 21.2161 313.077 20.1121 313.525 19.1201C314.005 18.0961 314.661 17.2321 315.493 16.5281C316.357 15.7921 317.381 15.2321 318.565 14.8481C319.781 14.4321 321.141 14.2241 322.645 14.2241C323.957 14.2241 325.109 14.3201 326.101 14.5121C327.125 14.6721 328.021 14.9281 328.789 15.2801C329.589 15.6001 330.309 16.0161 330.949 16.5281C331.621 17.0081 332.277 17.5521 332.917 18.1601L328.837 22.3361C328.037 21.5361 327.125 20.9121 326.101 20.4641C325.109 19.9841 324.085 19.7441 323.029 19.7441C321.813 19.7441 320.949 19.9361 320.437 20.3201C319.925 20.7041 319.669 21.2161 319.669 21.8561C319.669 22.5281 319.845 23.0561 320.197 23.4401C320.581 23.7921 321.285 24.0481 322.309 24.2081L325.141 24.5921C330.677 25.3281 333.445 27.8561 333.445 32.1761C333.445 33.3921 333.189 34.5121 332.677 35.5361C332.165 36.5601 331.429 37.4561 330.469 38.2241C329.541 38.9601 328.405 39.5361 327.061 39.9521C325.749 40.3681 324.277 40.5761 322.645 40.5761Z" fill="#F2995A"/>
<path d="M297.659 40.5761C295.739 40.5761 294.026 40.2721 292.522 39.6641C291.018 39.0241 289.738 38.1441 288.682 37.0241C287.658 35.8721 286.875 34.4801 286.331 32.8481C285.819 31.2161 285.562 29.3921 285.562 27.3761C285.562 25.3921 285.819 23.6001 286.331 22.0001C286.843 20.3681 287.595 18.9761 288.587 17.8241C289.611 16.6721 290.859 15.7921 292.331 15.1841C293.803 14.5441 295.483 14.2241 297.371 14.2241C299.451 14.2241 301.227 14.5761 302.699 15.2801C304.203 15.9841 305.418 16.9281 306.346 18.1121C307.306 19.2961 307.994 20.6721 308.41 22.2401C308.858 23.7761 309.082 25.3921 309.082 27.0881V29.2001H292.906V29.5841C292.906 31.2481 293.355 32.5761 294.251 33.5681C295.147 34.5281 296.555 35.0081 298.475 35.0081C299.947 35.0081 301.146 34.7201 302.074 34.1441C303.002 33.5361 303.867 32.8161 304.667 31.9841L308.219 36.4001C307.099 37.7121 305.626 38.7361 303.802 39.4721C302.01 40.2081 299.963 40.5761 297.659 40.5761ZM297.514 19.4561C296.074 19.4561 294.939 19.9361 294.107 20.8961C293.307 21.8241 292.906 23.0721 292.906 24.6401V25.0241H301.738V24.5921C301.738 23.0561 301.386 21.8241 300.682 20.8961C300.01 19.9361 298.954 19.4561 297.514 19.4561Z" fill="#F2995A"/>
<path d="M279.671 40C277.239 40 275.447 39.408 274.295 38.224C273.175 37.04 272.615 35.328 272.615 33.088V4.47998H279.719V34.48H282.887V40H279.671Z" fill="#F2995A"/>
<path d="M246.332 39.9998V34.3838L258.86 20.3198H246.764V14.7998H267.116V20.3678L254.54 34.4798H267.452V39.9998H246.332Z" fill="#F2995A"/>
<path d="M221.488 39.9998V34.3838L234.016 20.3198H221.92V14.7998H242.272V20.3678L229.696 34.4798H242.608V39.9998H221.488Z" fill="#F2995A"/>
<path d="M209.215 35.7758H208.975C208.751 36.4158 208.447 37.0238 208.063 37.5998C207.711 38.1758 207.247 38.6878 206.671 39.1358C206.095 39.5838 205.407 39.9358 204.607 40.1918C203.839 40.4478 202.943 40.5758 201.919 40.5758C199.327 40.5758 197.359 39.7278 196.015 38.0318C194.703 36.3038 194.047 33.8398 194.047 30.6398V14.7998H201.151V30.0158C201.151 31.5518 201.423 32.7358 201.967 33.5678C202.511 34.3998 203.439 34.8158 204.751 34.8158C205.295 34.8158 205.839 34.7358 206.383 34.5758C206.927 34.4158 207.407 34.1918 207.823 33.9038C208.239 33.5838 208.575 33.1998 208.831 32.7518C209.087 32.3038 209.215 31.7758 209.215 31.1678V14.7998H216.319V39.9998H209.215V35.7758Z" fill="#F2995A"/>
<path d="M165.131 14.8001H172.235V19.0241H172.475C172.827 17.6161 173.627 16.4641 174.875 15.5681C176.155 14.6721 177.611 14.2241 179.243 14.2241C182.443 14.2241 184.859 15.3441 186.491 17.5841C188.123 19.8241 188.939 23.0881 188.939 27.3761C188.939 31.6641 188.123 34.9441 186.491 37.2161C184.859 39.4561 182.443 40.5761 179.243 40.5761C178.411 40.5761 177.627 40.4481 176.891 40.1921C176.155 39.9681 175.483 39.6481 174.875 39.2321C174.299 38.7841 173.803 38.2721 173.387 37.6961C172.971 37.0881 172.667 36.4481 172.475 35.7761H172.235V49.6001H165.131V14.8001ZM176.891 34.8161C178.235 34.8161 179.339 34.3521 180.203 33.4241C181.099 32.4641 181.547 31.1841 181.547 29.5841V25.2161C181.547 23.6161 181.099 22.3521 180.203 21.4241C179.339 20.4641 178.235 19.9841 176.891 19.9841C175.547 19.9841 174.427 20.3201 173.531 20.9921C172.667 21.6321 172.235 22.5281 172.235 23.6801V31.1201C172.235 32.2721 172.667 33.1841 173.531 33.8561C174.427 34.4961 175.547 34.8161 176.891 34.8161Z" fill="#F2995A"/>
<path d="M144.245 39.9999C141.781 39.9999 139.909 39.3759 138.629 38.1279C137.381 36.8799 136.757 35.0559 136.757 32.6559V20.3199H133.205V14.7999H134.981C135.941 14.7999 136.597 14.5759 136.949 14.1279C137.301 13.6479 137.477 12.9759 137.477 12.1119V7.98389H143.861V14.7999H148.853V20.3199H143.861V34.4799H148.469V39.9999H144.245Z" fill="#F2995A"/>
<path d="M118.971 40.5761C117.051 40.5761 115.339 40.2721 113.835 39.6641C112.331 39.0241 111.051 38.1441 109.995 37.0241C108.971 35.8721 108.187 34.4801 107.643 32.8481C107.131 31.2161 106.875 29.3921 106.875 27.3761C106.875 25.3921 107.131 23.6001 107.643 22.0001C108.155 20.3681 108.907 18.9761 109.899 17.8241C110.923 16.6721 112.171 15.7921 113.643 15.1841C115.115 14.5441 116.795 14.2241 118.683 14.2241C120.763 14.2241 122.539 14.5761 124.011 15.2801C125.515 15.9841 126.731 16.9281 127.659 18.1121C128.619 19.2961 129.307 20.6721 129.723 22.2401C130.171 23.7761 130.395 25.3921 130.395 27.0881V29.2001H114.219V29.5841C114.219 31.2481 114.667 32.5761 115.563 33.5681C116.459 34.5281 117.867 35.0081 119.787 35.0081C121.259 35.0081 122.459 34.7201 123.387 34.1441C124.315 33.5361 125.179 32.8161 125.979 31.9841L129.531 36.4001C128.411 37.7121 126.939 38.7361 125.115 39.4721C123.323 40.2081 121.275 40.5761 118.971 40.5761ZM118.827 19.4561C117.387 19.4561 116.251 19.9361 115.419 20.8961C114.619 21.8241 114.219 23.0721 114.219 24.6401V25.0241H123.051V24.5921C123.051 23.0561 122.699 21.8241 121.995 20.8961C121.323 19.9361 120.267 19.4561 118.827 19.4561Z" fill="#F2995A"/>
<path d="M82.0684 4.47998H89.1724V25.456H89.4604L92.5804 20.8L97.6204 14.8H105.492L97.0924 24.448L106.452 40H98.0044L92.3404 29.344L89.1724 32.896V40H82.0684V4.47998Z" fill="#F2995A"/>
<path d="M67.4475 40.5761C65.5595 40.5761 63.8795 40.2721 62.4075 39.6641C60.9355 39.0241 59.7035 38.1441 58.7115 37.0241C57.7195 35.8721 56.9675 34.4801 56.4555 32.8481C55.9435 31.2161 55.6875 29.3921 55.6875 27.3761C55.6875 25.3601 55.9435 23.5521 56.4555 21.9521C56.9675 20.3201 57.7195 18.9281 58.7115 17.7761C59.7035 16.6241 60.9355 15.7441 62.4075 15.1361C63.8795 14.5281 65.5595 14.2241 67.4475 14.2241C70.0075 14.2241 72.1355 14.8001 73.8315 15.9521C75.5595 17.1041 76.7915 18.7201 77.5275 20.8001L71.7675 23.2961C71.5435 22.3361 71.0795 21.5201 70.3755 20.8481C69.6715 20.1761 68.6955 19.8401 67.4475 19.8401C66.0075 19.8401 64.9195 20.3201 64.1835 21.2801C63.4475 22.2081 63.0795 23.4721 63.0795 25.0721V29.7761C63.0795 31.3761 63.4475 32.6401 64.1835 33.5681C64.9195 34.4961 66.0075 34.9601 67.4475 34.9601C68.7275 34.9601 69.7355 34.6241 70.4715 33.9521C71.2395 33.2481 71.7995 32.3361 72.1515 31.2161L77.6715 33.6161C76.8395 36.0161 75.5435 37.7761 73.7835 38.8961C72.0555 40.0161 69.9435 40.5761 67.4475 40.5761Z" fill="#F2995A"/>
<path d="M40.4017 40.5761C38.5457 40.5761 36.8817 40.2721 35.4097 39.6641C33.9697 39.0561 32.7377 38.1761 31.7137 37.0241C30.7217 35.8721 29.9537 34.4801 29.4097 32.8481C28.8657 31.2161 28.5938 29.3921 28.5938 27.3761C28.5938 25.3601 28.8657 23.5361 29.4097 21.9041C29.9537 20.2721 30.7217 18.8961 31.7137 17.7761C32.7377 16.6241 33.9697 15.7441 35.4097 15.1361C36.8817 14.5281 38.5457 14.2241 40.4017 14.2241C42.2577 14.2241 43.9057 14.5281 45.3457 15.1361C46.8177 15.7441 48.0498 16.6241 49.0418 17.7761C50.0658 18.8961 50.8497 20.2721 51.3937 21.9041C51.9377 23.5361 52.2098 25.3601 52.2098 27.3761C52.2098 29.3921 51.9377 31.2161 51.3937 32.8481C50.8497 34.4801 50.0658 35.8721 49.0418 37.0241C48.0498 38.1761 46.8177 39.0561 45.3457 39.6641C43.9057 40.2721 42.2577 40.5761 40.4017 40.5761ZM40.4017 34.9601C41.8097 34.9601 42.8978 34.5281 43.6658 33.6641C44.4338 32.8001 44.8177 31.5681 44.8177 29.9681V24.8321C44.8177 23.2321 44.4338 22.0001 43.6658 21.1361C42.8978 20.2721 41.8097 19.8401 40.4017 19.8401C38.9937 19.8401 37.9057 20.2721 37.1377 21.1361C36.3697 22.0001 35.9857 23.2321 35.9857 24.8321V29.9681C35.9857 31.5681 36.3697 32.8001 37.1377 33.6641C37.9057 34.5281 38.9937 34.9601 40.4017 34.9601Z" fill="#F2995A"/>
<path d="M0 40.0001V6.49609H15.84C17.408 6.49609 18.816 6.76809 20.064 7.31209C21.312 7.82409 22.368 8.54409 23.232 9.47209C24.128 10.4001 24.816 11.5361 25.296 12.8801C25.776 14.1921 26.016 15.6321 26.016 17.2001C26.016 18.8001 25.776 20.2561 25.296 21.5681C24.816 22.8801 24.128 24.0001 23.232 24.9281C22.368 25.8561 21.312 26.5921 20.064 27.1361C18.816 27.6481 17.408 27.9041 15.84 27.9041H7.296V40.0001H0ZM7.296 21.5681H14.976C16.064 21.5681 16.912 21.2961 17.52 20.7521C18.16 20.1761 18.48 19.3441 18.48 18.2561V16.1441C18.48 15.0561 18.16 14.2401 17.52 13.6961C16.912 13.1201 16.064 12.8321 14.976 12.8321H7.296V21.5681Z" fill="#F2995A"/>
</svg>
